M48
;DRILL file {KiCad (5.0.1)-3} date 27/05/2021 11:26:19
;FORMAT={-:-/ absolute / metric / decimal}
FMAT,2
METRIC,TZ
T1C0.300
T2C0.400
T3C0.600
T4C0.800
T5C1.000
T6C1.200
T7C1.500
T8C4.000
T9C4.500
T10C8.400
%
G90
G05
M71
T1
X74.5Y-50.
X75.Y-90.
X80.Y-100.
X80.Y-120.
X84.Y-104.
X88.Y-113.
X88.2Y-108.
X88.2Y-109.2
X89.5Y-109.
X90.5Y-122.
X91.5Y-105.5
X91.5Y-113.
X95.Y-103.
X97.Y-50.
X97.Y-106.
X98.Y-122.
X100.Y-85.
X100.Y-126.
X101.Y-106.
X103.Y-102.
X116.Y-105.
X120.Y-110.
X120.Y-115.
X120.Y-120.
X120.5Y-50.
X125.Y-85.
X128.Y-115.
X129.5Y-122.
X129.5Y-126.
X134.Y-115.
X134.Y-122.
X134.Y-126.
X139.5Y-124.
X143.5Y-50.
X145.Y-85.
X161.Y-99.
X161.Y-101.
X161.Y-103.
X161.Y-109.
X161.Y-111.
X161.Y-113.
X161.Y-115.
X164.Y-128.
X166.5Y-50.
X171.Y-51.
X171.Y-52.
X171.Y-53.
X171.Y-65.
X171.Y-66.
X171.Y-67.
X171.Y-99.
X171.Y-101.
X171.Y-103.
X171.Y-105.
X171.Y-107.
X171.Y-109.
X171.Y-111.
X171.Y-113.
X171.Y-115.
X172.Y-51.
X172.Y-67.
X173.Y-51.
X173.Y-67.
X173.Y-99.
X173.Y-115.
X179.Y-128.
X187.Y-51.
X187.Y-67.
X187.Y-99.
X187.Y-115.
X188.Y-51.
X188.Y-67.
X189.Y-51.
X189.Y-52.
X189.Y-53.
X189.Y-65.
X189.Y-66.
X189.Y-67.
X189.Y-99.
X189.Y-101.
X189.Y-113.
X189.Y-115.
T2
X82.837Y-106.35
X88.Y-101.
X89.Y-99.
X92.Y-109.
X108.Y-103.
X116.Y-101.025
X116.Y-103.
X116.Y-110.
X116.Y-115.
X121.Y-93.
X122.Y-104.
X125.Y-99.
X138.2Y-121.72
X145.Y-99.
X145.Y-105.
T3
X182.Y-44.
X182.879Y-41.879
X182.879Y-46.121
X185.Y-41.
X185.Y-47.
X187.121Y-41.879
X187.121Y-46.121
X188.Y-44.
X69.Y-44.
X69.879Y-41.879
X69.879Y-46.121
X72.Y-41.
X72.Y-47.
X74.121Y-41.879
X74.121Y-46.121
X75.Y-44.
X182.Y-124.
X182.879Y-121.879
X182.879Y-126.121
X185.Y-121.
X185.Y-127.
X187.121Y-121.879
X187.121Y-126.121
X188.Y-124.
X69.Y-124.
X69.879Y-121.879
X69.879Y-126.121
X72.Y-121.
X72.Y-127.
X74.121Y-121.879
X74.121Y-126.121
X75.Y-124.
T4
X88.Y-118.
X92.88Y-118.
X141.5Y-114.
X144.Y-114.
X174.7Y-59.
X176.545Y-54.545
X176.545Y-63.455
X181.Y-52.7
X181.Y-65.3
X185.455Y-54.545
X185.455Y-63.455
X187.3Y-59.
X174.7Y-107.
X176.545Y-102.545
X176.545Y-111.455
X181.Y-100.7
X181.Y-113.3
X185.455Y-102.545
X185.455Y-111.455
X187.3Y-107.
T5
X70.Y-100.3
X70.Y-102.84
X70.Y-105.38
X70.Y-107.92
X70.Y-110.46
X70.Y-113.
X103.3Y-126.
X105.84Y-126.
X108.38Y-126.
X110.92Y-126.
X113.46Y-126.
X116.Y-126.
X75.Y-105.38
X75.Y-107.92
X75.Y-110.46
X75.Y-113.
T6
X125.Y-102.
X140.24Y-102.
X155.Y-102.
X155.Y-109.5
X146.Y-121.
X146.Y-123.54
T7
X80.55Y-93.
X86.Y-93.
X91.45Y-93.
X126.55Y-47.
X132.Y-47.
X137.45Y-47.
X126.55Y-93.
X132.Y-93.
X137.45Y-93.
X80.55Y-47.
X86.Y-47.
X91.45Y-47.
X149.55Y-93.
X155.Y-93.
X160.45Y-93.
X149.55Y-47.
X155.Y-47.
X160.45Y-47.
X103.55Y-47.
X109.Y-47.
X114.45Y-47.
X103.55Y-93.
X109.Y-93.
X114.45Y-93.
T8
X185.Y-44.
X72.Y-44.
X185.Y-124.
X72.Y-124.
T9
X167.5Y-122.
X175.Y-122.
T10
X181.Y-59.
X181.Y-107.
T5
X154.Y-118.G85X156.Y-118.
G05
X154.Y-124.G85X156.Y-124.
G05
X159.7Y-122.G85X159.7Y-120.
G05
T0
M30
