G04 #@! TF.GenerationSoftware,KiCad,Pcbnew,(5.0.1)-3*
G04 #@! TF.CreationDate,2021-05-27T11:26:18+02:00*
G04 #@! TF.ProjectId,mega328 400w load,6D6567613332382034303077206C6F61,rev?*
G04 #@! TF.SameCoordinates,Original*
G04 #@! TF.FileFunction,Legend,Top*
G04 #@! TF.FilePolarity,Positive*
%FSLAX46Y46*%
G04 Gerber Fmt 4.6, Leading zero omitted, Abs format (unit mm)*
G04 Created by KiCad (PCBNEW (5.0.1)-3) date 27/05/2021 11:26:18*
%MOMM*%
%LPD*%
G01*
G04 APERTURE LIST*
%ADD10C,0.200000*%
%ADD11C,0.150000*%
%ADD12C,0.300000*%
%ADD13C,0.120000*%
%ADD14C,0.100000*%
%ADD15C,0.152400*%
%ADD16C,0.080000*%
%ADD17C,0.015000*%
G04 APERTURE END LIST*
D10*
X74309523Y-116452380D02*
X73833333Y-116452380D01*
X73833333Y-115452380D01*
X75214285Y-116357142D02*
X75166666Y-116404761D01*
X75023809Y-116452380D01*
X74928571Y-116452380D01*
X74785714Y-116404761D01*
X74690476Y-116309523D01*
X74642857Y-116214285D01*
X74595238Y-116023809D01*
X74595238Y-115880952D01*
X74642857Y-115690476D01*
X74690476Y-115595238D01*
X74785714Y-115500000D01*
X74928571Y-115452380D01*
X75023809Y-115452380D01*
X75166666Y-115500000D01*
X75214285Y-115547619D01*
X75642857Y-116452380D02*
X75642857Y-115452380D01*
X75880952Y-115452380D01*
X76023809Y-115500000D01*
X76119047Y-115595238D01*
X76166666Y-115690476D01*
X76214285Y-115880952D01*
X76214285Y-116023809D01*
X76166666Y-116214285D01*
X76119047Y-116309523D01*
X76023809Y-116404761D01*
X75880952Y-116452380D01*
X75642857Y-116452380D01*
X94904761Y-128404761D02*
X95047619Y-128452380D01*
X95285714Y-128452380D01*
X95380952Y-128404761D01*
X95428571Y-128357142D01*
X95476190Y-128261904D01*
X95476190Y-128166666D01*
X95428571Y-128071428D01*
X95380952Y-128023809D01*
X95285714Y-127976190D01*
X95095238Y-127928571D01*
X95000000Y-127880952D01*
X94952380Y-127833333D01*
X94904761Y-127738095D01*
X94904761Y-127642857D01*
X94952380Y-127547619D01*
X95000000Y-127500000D01*
X95095238Y-127452380D01*
X95333333Y-127452380D01*
X95476190Y-127500000D01*
X95904761Y-128452380D02*
X95904761Y-127452380D01*
X96142857Y-127452380D01*
X96285714Y-127500000D01*
X96380952Y-127595238D01*
X96428571Y-127690476D01*
X96476190Y-127880952D01*
X96476190Y-128023809D01*
X96428571Y-128214285D01*
X96380952Y-128309523D01*
X96285714Y-128404761D01*
X96142857Y-128452380D01*
X95904761Y-128452380D01*
X98238095Y-128357142D02*
X98190476Y-128404761D01*
X98047619Y-128452380D01*
X97952380Y-128452380D01*
X97809523Y-128404761D01*
X97714285Y-128309523D01*
X97666666Y-128214285D01*
X97619047Y-128023809D01*
X97619047Y-127880952D01*
X97666666Y-127690476D01*
X97714285Y-127595238D01*
X97809523Y-127500000D01*
X97952380Y-127452380D01*
X98047619Y-127452380D01*
X98190476Y-127500000D01*
X98238095Y-127547619D01*
X98619047Y-128166666D02*
X99095238Y-128166666D01*
X98523809Y-128452380D02*
X98857142Y-127452380D01*
X99190476Y-128452380D01*
X100095238Y-128452380D02*
X99761904Y-127976190D01*
X99523809Y-128452380D02*
X99523809Y-127452380D01*
X99904761Y-127452380D01*
X100000000Y-127500000D01*
X100047619Y-127547619D01*
X100095238Y-127642857D01*
X100095238Y-127785714D01*
X100047619Y-127880952D01*
X100000000Y-127928571D01*
X99904761Y-127976190D01*
X99523809Y-127976190D01*
X100523809Y-128452380D02*
X100523809Y-127452380D01*
X100761904Y-127452380D01*
X100904761Y-127500000D01*
X101000000Y-127595238D01*
X101047619Y-127690476D01*
X101095238Y-127880952D01*
X101095238Y-128023809D01*
X101047619Y-128214285D01*
X101000000Y-128309523D01*
X100904761Y-128404761D01*
X100761904Y-128452380D01*
X100523809Y-128452380D01*
D11*
X117150000Y-122073928D02*
X117188095Y-121997738D01*
X117188095Y-121883452D01*
X117150000Y-121769166D01*
X117073809Y-121692976D01*
X116997619Y-121654880D01*
X116845238Y-121616785D01*
X116730952Y-121616785D01*
X116578571Y-121654880D01*
X116502380Y-121692976D01*
X116426190Y-121769166D01*
X116388095Y-121883452D01*
X116388095Y-121959642D01*
X116426190Y-122073928D01*
X116464285Y-122112023D01*
X116730952Y-122112023D01*
X116730952Y-121959642D01*
X116388095Y-122454880D02*
X117188095Y-122454880D01*
X116388095Y-122912023D01*
X117188095Y-122912023D01*
X116388095Y-123292976D02*
X117188095Y-123292976D01*
X117188095Y-123483452D01*
X117150000Y-123597738D01*
X117073809Y-123673928D01*
X116997619Y-123712023D01*
X116845238Y-123750119D01*
X116730952Y-123750119D01*
X116578571Y-123712023D01*
X116502380Y-123673928D01*
X116426190Y-123597738D01*
X116388095Y-123483452D01*
X116388095Y-123292976D01*
X114488095Y-123026309D02*
X114488095Y-122645357D01*
X114107142Y-122607261D01*
X114145238Y-122645357D01*
X114183333Y-122721547D01*
X114183333Y-122912023D01*
X114145238Y-122988214D01*
X114107142Y-123026309D01*
X114030952Y-123064404D01*
X113840476Y-123064404D01*
X113764285Y-123026309D01*
X113726190Y-122988214D01*
X113688095Y-122912023D01*
X113688095Y-122721547D01*
X113726190Y-122645357D01*
X113764285Y-122607261D01*
X114488095Y-123292976D02*
X113688095Y-123559642D01*
X114488095Y-123826309D01*
X110988095Y-121197738D02*
X111788095Y-121197738D01*
X111216666Y-121464404D01*
X111788095Y-121731071D01*
X110988095Y-121731071D01*
X110988095Y-122112023D02*
X111788095Y-122112023D01*
X111026190Y-122454880D02*
X110988095Y-122569166D01*
X110988095Y-122759642D01*
X111026190Y-122835833D01*
X111064285Y-122873928D01*
X111140476Y-122912023D01*
X111216666Y-122912023D01*
X111292857Y-122873928D01*
X111330952Y-122835833D01*
X111369047Y-122759642D01*
X111407142Y-122607261D01*
X111445238Y-122531071D01*
X111483333Y-122492976D01*
X111559523Y-122454880D01*
X111635714Y-122454880D01*
X111711904Y-122492976D01*
X111750000Y-122531071D01*
X111788095Y-122607261D01*
X111788095Y-122797738D01*
X111750000Y-122912023D01*
X111788095Y-123407261D02*
X111788095Y-123559642D01*
X111750000Y-123635833D01*
X111673809Y-123712023D01*
X111521428Y-123750119D01*
X111254761Y-123750119D01*
X111102380Y-123712023D01*
X111026190Y-123635833D01*
X110988095Y-123559642D01*
X110988095Y-123407261D01*
X111026190Y-123331071D01*
X111102380Y-123254880D01*
X111254761Y-123216785D01*
X111521428Y-123216785D01*
X111673809Y-123254880D01*
X111750000Y-123331071D01*
X111788095Y-123407261D01*
X108288095Y-121197738D02*
X109088095Y-121197738D01*
X108516666Y-121464404D01*
X109088095Y-121731071D01*
X108288095Y-121731071D01*
X109088095Y-122264404D02*
X109088095Y-122416785D01*
X109050000Y-122492976D01*
X108973809Y-122569166D01*
X108821428Y-122607261D01*
X108554761Y-122607261D01*
X108402380Y-122569166D01*
X108326190Y-122492976D01*
X108288095Y-122416785D01*
X108288095Y-122264404D01*
X108326190Y-122188214D01*
X108402380Y-122112023D01*
X108554761Y-122073928D01*
X108821428Y-122073928D01*
X108973809Y-122112023D01*
X109050000Y-122188214D01*
X109088095Y-122264404D01*
X108326190Y-122912023D02*
X108288095Y-123026309D01*
X108288095Y-123216785D01*
X108326190Y-123292976D01*
X108364285Y-123331071D01*
X108440476Y-123369166D01*
X108516666Y-123369166D01*
X108592857Y-123331071D01*
X108630952Y-123292976D01*
X108669047Y-123216785D01*
X108707142Y-123064404D01*
X108745238Y-122988214D01*
X108783333Y-122950119D01*
X108859523Y-122912023D01*
X108935714Y-122912023D01*
X109011904Y-122950119D01*
X109050000Y-122988214D01*
X109088095Y-123064404D01*
X109088095Y-123254880D01*
X109050000Y-123369166D01*
X108288095Y-123712023D02*
X109088095Y-123712023D01*
X105626190Y-121692976D02*
X105588095Y-121807261D01*
X105588095Y-121997738D01*
X105626190Y-122073928D01*
X105664285Y-122112023D01*
X105740476Y-122150119D01*
X105816666Y-122150119D01*
X105892857Y-122112023D01*
X105930952Y-122073928D01*
X105969047Y-121997738D01*
X106007142Y-121845357D01*
X106045238Y-121769166D01*
X106083333Y-121731071D01*
X106159523Y-121692976D01*
X106235714Y-121692976D01*
X106311904Y-121731071D01*
X106350000Y-121769166D01*
X106388095Y-121845357D01*
X106388095Y-122035833D01*
X106350000Y-122150119D01*
X105664285Y-122950119D02*
X105626190Y-122912023D01*
X105588095Y-122797738D01*
X105588095Y-122721547D01*
X105626190Y-122607261D01*
X105702380Y-122531071D01*
X105778571Y-122492976D01*
X105930952Y-122454880D01*
X106045238Y-122454880D01*
X106197619Y-122492976D01*
X106273809Y-122531071D01*
X106350000Y-122607261D01*
X106388095Y-122721547D01*
X106388095Y-122797738D01*
X106350000Y-122912023D01*
X106311904Y-122950119D01*
X105588095Y-123292976D02*
X106388095Y-123292976D01*
X105588095Y-123750119D02*
X106045238Y-123407261D01*
X106388095Y-123750119D02*
X105930952Y-123292976D01*
X102964285Y-122988214D02*
X102926190Y-122950119D01*
X102888095Y-122835833D01*
X102888095Y-122759642D01*
X102926190Y-122645357D01*
X103002380Y-122569166D01*
X103078571Y-122531071D01*
X103230952Y-122492976D01*
X103345238Y-122492976D01*
X103497619Y-122531071D01*
X103573809Y-122569166D01*
X103650000Y-122645357D01*
X103688095Y-122759642D01*
X103688095Y-122835833D01*
X103650000Y-122950119D01*
X103611904Y-122988214D01*
X102926190Y-123292976D02*
X102888095Y-123407261D01*
X102888095Y-123597738D01*
X102926190Y-123673928D01*
X102964285Y-123712023D01*
X103040476Y-123750119D01*
X103116666Y-123750119D01*
X103192857Y-123712023D01*
X103230952Y-123673928D01*
X103269047Y-123597738D01*
X103307142Y-123445357D01*
X103345238Y-123369166D01*
X103383333Y-123331071D01*
X103459523Y-123292976D01*
X103535714Y-123292976D01*
X103611904Y-123331071D01*
X103650000Y-123369166D01*
X103688095Y-123445357D01*
X103688095Y-123635833D01*
X103650000Y-123750119D01*
D10*
X160547619Y-124119047D02*
X160547619Y-123547619D01*
X160547619Y-123833333D02*
X161547619Y-123833333D01*
X161404761Y-123738095D01*
X161309523Y-123642857D01*
X161261904Y-123547619D01*
X161452380Y-124500000D02*
X161500000Y-124547619D01*
X161547619Y-124642857D01*
X161547619Y-124880952D01*
X161500000Y-124976190D01*
X161452380Y-125023809D01*
X161357142Y-125071428D01*
X161261904Y-125071428D01*
X161119047Y-125023809D01*
X160547619Y-124452380D01*
X160547619Y-125071428D01*
X161547619Y-126119047D02*
X160547619Y-126452380D01*
X161547619Y-126785714D01*
X160547619Y-127547619D02*
X161547619Y-127547619D01*
X160595238Y-127547619D02*
X160547619Y-127452380D01*
X160547619Y-127261904D01*
X160595238Y-127166666D01*
X160642857Y-127119047D01*
X160738095Y-127071428D01*
X161023809Y-127071428D01*
X161119047Y-127119047D01*
X161166666Y-127166666D01*
X161214285Y-127261904D01*
X161214285Y-127452380D01*
X161166666Y-127547619D01*
X160595238Y-128452380D02*
X160547619Y-128357142D01*
X160547619Y-128166666D01*
X160595238Y-128071428D01*
X160642857Y-128023809D01*
X160738095Y-127976190D01*
X161023809Y-127976190D01*
X161119047Y-128023809D01*
X161166666Y-128071428D01*
X161214285Y-128166666D01*
X161214285Y-128357142D01*
X161166666Y-128452380D01*
X144078571Y-127809523D02*
X144078571Y-128142857D01*
X144602380Y-128142857D02*
X143602380Y-128142857D01*
X143602380Y-127666666D01*
X144316666Y-127333333D02*
X144316666Y-126857142D01*
X144602380Y-127428571D02*
X143602380Y-127095238D01*
X144602380Y-126761904D01*
X144602380Y-126428571D02*
X143602380Y-126428571D01*
X144602380Y-125857142D01*
X143602380Y-125857142D01*
X145921428Y-128380952D02*
X145921428Y-127619047D01*
X146302380Y-128000000D02*
X145540476Y-128000000D01*
X145921428Y-126380952D02*
X145921428Y-125619047D01*
D11*
X77168928Y-104511904D02*
X76787976Y-104511904D01*
X76749880Y-104892857D01*
X76787976Y-104854761D01*
X76864166Y-104816666D01*
X77054642Y-104816666D01*
X77130833Y-104854761D01*
X77168928Y-104892857D01*
X77207023Y-104969047D01*
X77207023Y-105159523D01*
X77168928Y-105235714D01*
X77130833Y-105273809D01*
X77054642Y-105311904D01*
X76864166Y-105311904D01*
X76787976Y-105273809D01*
X76749880Y-105235714D01*
X77435595Y-104511904D02*
X77702261Y-105311904D01*
X77968928Y-104511904D01*
X76673690Y-107211904D02*
X77130833Y-107211904D01*
X76902261Y-108011904D02*
X76902261Y-107211904D01*
X77321309Y-107211904D02*
X77854642Y-108011904D01*
X77854642Y-107211904D02*
X77321309Y-108011904D01*
X77245119Y-110711904D02*
X76978452Y-110330952D01*
X76787976Y-110711904D02*
X76787976Y-109911904D01*
X77092738Y-109911904D01*
X77168928Y-109950000D01*
X77207023Y-109988095D01*
X77245119Y-110064285D01*
X77245119Y-110178571D01*
X77207023Y-110254761D01*
X77168928Y-110292857D01*
X77092738Y-110330952D01*
X76787976Y-110330952D01*
X77511785Y-109911904D02*
X78045119Y-110711904D01*
X78045119Y-109911904D02*
X77511785Y-110711904D01*
X77207023Y-112650000D02*
X77130833Y-112611904D01*
X77016547Y-112611904D01*
X76902261Y-112650000D01*
X76826071Y-112726190D01*
X76787976Y-112802380D01*
X76749880Y-112954761D01*
X76749880Y-113069047D01*
X76787976Y-113221428D01*
X76826071Y-113297619D01*
X76902261Y-113373809D01*
X77016547Y-113411904D01*
X77092738Y-113411904D01*
X77207023Y-113373809D01*
X77245119Y-113335714D01*
X77245119Y-113069047D01*
X77092738Y-113069047D01*
X77587976Y-113411904D02*
X77587976Y-112611904D01*
X78045119Y-113411904D01*
X78045119Y-112611904D01*
X78426071Y-113411904D02*
X78426071Y-112611904D01*
X78616547Y-112611904D01*
X78730833Y-112650000D01*
X78807023Y-112726190D01*
X78845119Y-112802380D01*
X78883214Y-112954761D01*
X78883214Y-113069047D01*
X78845119Y-113221428D01*
X78807023Y-113297619D01*
X78730833Y-113373809D01*
X78616547Y-113411904D01*
X78426071Y-113411904D01*
X67728571Y-112671428D02*
X68014285Y-112471428D01*
X67728571Y-112328571D02*
X68328571Y-112328571D01*
X68328571Y-112557142D01*
X68300000Y-112614285D01*
X68271428Y-112642857D01*
X68214285Y-112671428D01*
X68128571Y-112671428D01*
X68071428Y-112642857D01*
X68042857Y-112614285D01*
X68014285Y-112557142D01*
X68014285Y-112328571D01*
X67757142Y-112900000D02*
X67728571Y-112985714D01*
X67728571Y-113128571D01*
X67757142Y-113185714D01*
X67785714Y-113214285D01*
X67842857Y-113242857D01*
X67900000Y-113242857D01*
X67957142Y-113214285D01*
X67985714Y-113185714D01*
X68014285Y-113128571D01*
X68042857Y-113014285D01*
X68071428Y-112957142D01*
X68100000Y-112928571D01*
X68157142Y-112900000D01*
X68214285Y-112900000D01*
X68271428Y-112928571D01*
X68300000Y-112957142D01*
X68328571Y-113014285D01*
X68328571Y-113157142D01*
X68300000Y-113242857D01*
X68328571Y-113414285D02*
X68328571Y-113757142D01*
X67728571Y-113585714D02*
X68328571Y-113585714D01*
X68300000Y-99542857D02*
X68328571Y-99485714D01*
X68328571Y-99400000D01*
X68300000Y-99314285D01*
X68242857Y-99257142D01*
X68185714Y-99228571D01*
X68071428Y-99200000D01*
X67985714Y-99200000D01*
X67871428Y-99228571D01*
X67814285Y-99257142D01*
X67757142Y-99314285D01*
X67728571Y-99400000D01*
X67728571Y-99457142D01*
X67757142Y-99542857D01*
X67785714Y-99571428D01*
X67985714Y-99571428D01*
X67985714Y-99457142D01*
X67728571Y-99828571D02*
X68328571Y-99828571D01*
X67728571Y-100171428D01*
X68328571Y-100171428D01*
X67728571Y-100457142D02*
X68328571Y-100457142D01*
X68328571Y-100600000D01*
X68300000Y-100685714D01*
X68242857Y-100742857D01*
X68185714Y-100771428D01*
X68071428Y-100800000D01*
X67985714Y-100800000D01*
X67871428Y-100771428D01*
X67814285Y-100742857D01*
X67757142Y-100685714D01*
X67728571Y-100600000D01*
X67728571Y-100457142D01*
D10*
X69023809Y-115928571D02*
X68690476Y-115928571D01*
X68690476Y-116452380D02*
X68690476Y-115452380D01*
X69166666Y-115452380D01*
X69404761Y-115452380D02*
X69976190Y-115452380D01*
X69690476Y-116452380D02*
X69690476Y-115452380D01*
X70309523Y-116452380D02*
X70309523Y-115452380D01*
X70547619Y-115452380D01*
X70690476Y-115500000D01*
X70785714Y-115595238D01*
X70833333Y-115690476D01*
X70880952Y-115880952D01*
X70880952Y-116023809D01*
X70833333Y-116214285D01*
X70785714Y-116309523D01*
X70690476Y-116404761D01*
X70547619Y-116452380D01*
X70309523Y-116452380D01*
X71309523Y-116452380D02*
X71309523Y-115452380D01*
X172880952Y-48452380D02*
X172880952Y-47452380D01*
X173309523Y-48404761D02*
X173404761Y-48452380D01*
X173595238Y-48452380D01*
X173690476Y-48404761D01*
X173738095Y-48309523D01*
X173738095Y-48261904D01*
X173690476Y-48166666D01*
X173595238Y-48119047D01*
X173452380Y-48119047D01*
X173357142Y-48071428D01*
X173309523Y-47976190D01*
X173309523Y-47928571D01*
X173357142Y-47833333D01*
X173452380Y-47785714D01*
X173595238Y-47785714D01*
X173690476Y-47833333D01*
X174547619Y-48404761D02*
X174452380Y-48452380D01*
X174261904Y-48452380D01*
X174166666Y-48404761D01*
X174119047Y-48309523D01*
X174119047Y-47928571D01*
X174166666Y-47833333D01*
X174261904Y-47785714D01*
X174452380Y-47785714D01*
X174547619Y-47833333D01*
X174595238Y-47928571D01*
X174595238Y-48023809D01*
X174119047Y-48119047D01*
X175023809Y-47785714D02*
X175023809Y-48452380D01*
X175023809Y-47880952D02*
X175071428Y-47833333D01*
X175166666Y-47785714D01*
X175309523Y-47785714D01*
X175404761Y-47833333D01*
X175452380Y-47928571D01*
X175452380Y-48452380D01*
X175880952Y-48404761D02*
X175976190Y-48452380D01*
X176166666Y-48452380D01*
X176261904Y-48404761D01*
X176309523Y-48309523D01*
X176309523Y-48261904D01*
X176261904Y-48166666D01*
X176166666Y-48119047D01*
X176023809Y-48119047D01*
X175928571Y-48071428D01*
X175880952Y-47976190D01*
X175880952Y-47928571D01*
X175928571Y-47833333D01*
X176023809Y-47785714D01*
X176166666Y-47785714D01*
X176261904Y-47833333D01*
X177119047Y-48404761D02*
X177023809Y-48452380D01*
X176833333Y-48452380D01*
X176738095Y-48404761D01*
X176690476Y-48309523D01*
X176690476Y-47928571D01*
X176738095Y-47833333D01*
X176833333Y-47785714D01*
X177023809Y-47785714D01*
X177119047Y-47833333D01*
X177166666Y-47928571D01*
X177166666Y-48023809D01*
X176690476Y-48119047D01*
X178357142Y-48071428D02*
X179119047Y-48071428D01*
X178738095Y-48452380D02*
X178738095Y-47690476D01*
D12*
X166678571Y-128107142D02*
X167821428Y-128107142D01*
X167250000Y-128678571D02*
X167250000Y-127535714D01*
X169464285Y-127178571D02*
X169964285Y-128678571D01*
X170464285Y-127178571D01*
X170964285Y-128678571D02*
X170964285Y-127678571D01*
X170964285Y-127178571D02*
X170892857Y-127250000D01*
X170964285Y-127321428D01*
X171035714Y-127250000D01*
X170964285Y-127178571D01*
X170964285Y-127321428D01*
X171678571Y-127678571D02*
X171678571Y-128678571D01*
X171678571Y-127821428D02*
X171750000Y-127750000D01*
X171892857Y-127678571D01*
X172107142Y-127678571D01*
X172250000Y-127750000D01*
X172321428Y-127892857D01*
X172321428Y-128678571D01*
X174178571Y-128107142D02*
X175321428Y-128107142D01*
D11*
X87000000Y-111750000D02*
G75*
G03X87000000Y-111750000I-250000J0D01*
G01*
D10*
X170000000Y-50000000D02*
X170000000Y-90000000D01*
X70000000Y-50000000D02*
X170000000Y-50000000D01*
X70000000Y-90000000D02*
X70000000Y-50000000D01*
X170000000Y-90000000D02*
X70000000Y-90000000D01*
D13*
G04 #@! TO.C,C1*
X92738748Y-100710000D02*
X93261252Y-100710000D01*
X92738748Y-99290000D02*
X93261252Y-99290000D01*
G04 #@! TO.C,C3*
X118710000Y-100261252D02*
X118710000Y-99738748D01*
X117290000Y-100261252D02*
X117290000Y-99738748D01*
G04 #@! TO.C,C4*
X88261252Y-121290000D02*
X87738748Y-121290000D01*
X88261252Y-122710000D02*
X87738748Y-122710000D01*
G04 #@! TO.C,C5*
X99290000Y-98738748D02*
X99290000Y-99261252D01*
X100710000Y-98738748D02*
X100710000Y-99261252D01*
G04 #@! TO.C,C6*
X92738748Y-121290000D02*
X93261252Y-121290000D01*
X92738748Y-122710000D02*
X93261252Y-122710000D01*
G04 #@! TO.C,C7*
X80710000Y-113738748D02*
X80710000Y-114261252D01*
X79290000Y-113738748D02*
X79290000Y-114261252D01*
G04 #@! TO.C,C8*
X164120000Y-105750000D02*
G75*
G03X164120000Y-105750000I-9120000J0D01*
G01*
X164081000Y-105750000D02*
X145919000Y-105750000D01*
X164080000Y-105790000D02*
X145920000Y-105790000D01*
X164080000Y-105830000D02*
X145920000Y-105830000D01*
X164080000Y-105870000D02*
X145920000Y-105870000D01*
X164079000Y-105910000D02*
X145921000Y-105910000D01*
X164078000Y-105950000D02*
X145922000Y-105950000D01*
X164077000Y-105990000D02*
X145923000Y-105990000D01*
X164076000Y-106030000D02*
X145924000Y-106030000D01*
X164075000Y-106070000D02*
X145925000Y-106070000D01*
X164073000Y-106110000D02*
X145927000Y-106110000D01*
X164072000Y-106150000D02*
X145928000Y-106150000D01*
X164070000Y-106190000D02*
X145930000Y-106190000D01*
X164068000Y-106230000D02*
X145932000Y-106230000D01*
X164066000Y-106270000D02*
X145934000Y-106270000D01*
X164063000Y-106310000D02*
X145937000Y-106310000D01*
X164061000Y-106350000D02*
X145939000Y-106350000D01*
X164058000Y-106390000D02*
X145942000Y-106390000D01*
X164055000Y-106430000D02*
X145945000Y-106430000D01*
X164052000Y-106471000D02*
X145948000Y-106471000D01*
X164049000Y-106511000D02*
X145951000Y-106511000D01*
X164045000Y-106551000D02*
X145955000Y-106551000D01*
X164042000Y-106591000D02*
X145958000Y-106591000D01*
X164038000Y-106631000D02*
X145962000Y-106631000D01*
X164034000Y-106671000D02*
X145966000Y-106671000D01*
X164030000Y-106711000D02*
X145970000Y-106711000D01*
X164026000Y-106751000D02*
X145974000Y-106751000D01*
X164021000Y-106791000D02*
X145979000Y-106791000D01*
X164016000Y-106831000D02*
X145984000Y-106831000D01*
X164011000Y-106871000D02*
X145989000Y-106871000D01*
X164006000Y-106911000D02*
X145994000Y-106911000D01*
X164001000Y-106951000D02*
X145999000Y-106951000D01*
X163996000Y-106991000D02*
X146004000Y-106991000D01*
X163990000Y-107031000D02*
X146010000Y-107031000D01*
X163984000Y-107071000D02*
X146016000Y-107071000D01*
X163979000Y-107111000D02*
X146021000Y-107111000D01*
X163972000Y-107151000D02*
X146028000Y-107151000D01*
X163966000Y-107191000D02*
X146034000Y-107191000D01*
X163960000Y-107231000D02*
X146040000Y-107231000D01*
X163953000Y-107271000D02*
X146047000Y-107271000D01*
X163946000Y-107311000D02*
X146054000Y-107311000D01*
X163939000Y-107351000D02*
X146061000Y-107351000D01*
X163932000Y-107391000D02*
X146068000Y-107391000D01*
X163924000Y-107431000D02*
X146076000Y-107431000D01*
X163917000Y-107471000D02*
X146083000Y-107471000D01*
X163909000Y-107511000D02*
X146091000Y-107511000D01*
X163901000Y-107551000D02*
X146099000Y-107551000D01*
X163893000Y-107591000D02*
X146107000Y-107591000D01*
X163885000Y-107631000D02*
X146115000Y-107631000D01*
X163876000Y-107671000D02*
X146124000Y-107671000D01*
X163867000Y-107711000D02*
X146133000Y-107711000D01*
X163858000Y-107751000D02*
X146142000Y-107751000D01*
X163849000Y-107791000D02*
X146151000Y-107791000D01*
X163840000Y-107831000D02*
X146160000Y-107831000D01*
X163831000Y-107871000D02*
X146169000Y-107871000D01*
X163821000Y-107911000D02*
X146179000Y-107911000D01*
X163811000Y-107951000D02*
X146189000Y-107951000D01*
X163801000Y-107991000D02*
X146199000Y-107991000D01*
X163791000Y-108031000D02*
X146209000Y-108031000D01*
X163780000Y-108071000D02*
X156440000Y-108071000D01*
X153560000Y-108071000D02*
X146220000Y-108071000D01*
X163770000Y-108111000D02*
X156440000Y-108111000D01*
X153560000Y-108111000D02*
X146230000Y-108111000D01*
X163759000Y-108151000D02*
X156440000Y-108151000D01*
X153560000Y-108151000D02*
X146241000Y-108151000D01*
X163748000Y-108191000D02*
X156440000Y-108191000D01*
X153560000Y-108191000D02*
X146252000Y-108191000D01*
X163737000Y-108231000D02*
X156440000Y-108231000D01*
X153560000Y-108231000D02*
X146263000Y-108231000D01*
X163725000Y-108271000D02*
X156440000Y-108271000D01*
X153560000Y-108271000D02*
X146275000Y-108271000D01*
X163714000Y-108311000D02*
X156440000Y-108311000D01*
X153560000Y-108311000D02*
X146286000Y-108311000D01*
X163702000Y-108351000D02*
X156440000Y-108351000D01*
X153560000Y-108351000D02*
X146298000Y-108351000D01*
X163690000Y-108391000D02*
X156440000Y-108391000D01*
X153560000Y-108391000D02*
X146310000Y-108391000D01*
X163678000Y-108431000D02*
X156440000Y-108431000D01*
X153560000Y-108431000D02*
X146322000Y-108431000D01*
X163665000Y-108471000D02*
X156440000Y-108471000D01*
X153560000Y-108471000D02*
X146335000Y-108471000D01*
X163653000Y-108511000D02*
X156440000Y-108511000D01*
X153560000Y-108511000D02*
X146347000Y-108511000D01*
X163640000Y-108551000D02*
X156440000Y-108551000D01*
X153560000Y-108551000D02*
X146360000Y-108551000D01*
X163627000Y-108591000D02*
X156440000Y-108591000D01*
X153560000Y-108591000D02*
X146373000Y-108591000D01*
X163614000Y-108631000D02*
X156440000Y-108631000D01*
X153560000Y-108631000D02*
X146386000Y-108631000D01*
X163600000Y-108671000D02*
X156440000Y-108671000D01*
X153560000Y-108671000D02*
X146400000Y-108671000D01*
X163587000Y-108711000D02*
X156440000Y-108711000D01*
X153560000Y-108711000D02*
X146413000Y-108711000D01*
X163573000Y-108751000D02*
X156440000Y-108751000D01*
X153560000Y-108751000D02*
X146427000Y-108751000D01*
X163559000Y-108791000D02*
X156440000Y-108791000D01*
X153560000Y-108791000D02*
X146441000Y-108791000D01*
X163545000Y-108831000D02*
X156440000Y-108831000D01*
X153560000Y-108831000D02*
X146455000Y-108831000D01*
X163530000Y-108871000D02*
X156440000Y-108871000D01*
X153560000Y-108871000D02*
X146470000Y-108871000D01*
X163516000Y-108911000D02*
X156440000Y-108911000D01*
X153560000Y-108911000D02*
X146484000Y-108911000D01*
X163501000Y-108951000D02*
X156440000Y-108951000D01*
X153560000Y-108951000D02*
X146499000Y-108951000D01*
X163486000Y-108991000D02*
X156440000Y-108991000D01*
X153560000Y-108991000D02*
X146514000Y-108991000D01*
X163470000Y-109031000D02*
X156440000Y-109031000D01*
X153560000Y-109031000D02*
X146530000Y-109031000D01*
X163455000Y-109071000D02*
X156440000Y-109071000D01*
X153560000Y-109071000D02*
X146545000Y-109071000D01*
X163439000Y-109111000D02*
X156440000Y-109111000D01*
X153560000Y-109111000D02*
X146561000Y-109111000D01*
X163423000Y-109151000D02*
X156440000Y-109151000D01*
X153560000Y-109151000D02*
X146577000Y-109151000D01*
X163407000Y-109191000D02*
X156440000Y-109191000D01*
X153560000Y-109191000D02*
X146593000Y-109191000D01*
X163390000Y-109231000D02*
X156440000Y-109231000D01*
X153560000Y-109231000D02*
X146610000Y-109231000D01*
X163374000Y-109271000D02*
X156440000Y-109271000D01*
X153560000Y-109271000D02*
X146626000Y-109271000D01*
X163357000Y-109311000D02*
X156440000Y-109311000D01*
X153560000Y-109311000D02*
X146643000Y-109311000D01*
X163340000Y-109351000D02*
X156440000Y-109351000D01*
X153560000Y-109351000D02*
X146660000Y-109351000D01*
X163323000Y-109391000D02*
X156440000Y-109391000D01*
X153560000Y-109391000D02*
X146677000Y-109391000D01*
X163305000Y-109431000D02*
X156440000Y-109431000D01*
X153560000Y-109431000D02*
X146695000Y-109431000D01*
X163287000Y-109471000D02*
X156440000Y-109471000D01*
X153560000Y-109471000D02*
X146713000Y-109471000D01*
X163269000Y-109511000D02*
X156440000Y-109511000D01*
X153560000Y-109511000D02*
X146731000Y-109511000D01*
X163251000Y-109551000D02*
X156440000Y-109551000D01*
X153560000Y-109551000D02*
X146749000Y-109551000D01*
X163233000Y-109591000D02*
X156440000Y-109591000D01*
X153560000Y-109591000D02*
X146767000Y-109591000D01*
X163214000Y-109631000D02*
X156440000Y-109631000D01*
X153560000Y-109631000D02*
X146786000Y-109631000D01*
X163195000Y-109671000D02*
X156440000Y-109671000D01*
X153560000Y-109671000D02*
X146805000Y-109671000D01*
X163176000Y-109711000D02*
X156440000Y-109711000D01*
X153560000Y-109711000D02*
X146824000Y-109711000D01*
X163156000Y-109751000D02*
X156440000Y-109751000D01*
X153560000Y-109751000D02*
X146844000Y-109751000D01*
X163137000Y-109791000D02*
X156440000Y-109791000D01*
X153560000Y-109791000D02*
X146863000Y-109791000D01*
X163117000Y-109831000D02*
X156440000Y-109831000D01*
X153560000Y-109831000D02*
X146883000Y-109831000D01*
X163097000Y-109871000D02*
X156440000Y-109871000D01*
X153560000Y-109871000D02*
X146903000Y-109871000D01*
X163076000Y-109911000D02*
X156440000Y-109911000D01*
X153560000Y-109911000D02*
X146924000Y-109911000D01*
X163056000Y-109951000D02*
X156440000Y-109951000D01*
X153560000Y-109951000D02*
X146944000Y-109951000D01*
X163035000Y-109991000D02*
X156440000Y-109991000D01*
X153560000Y-109991000D02*
X146965000Y-109991000D01*
X163014000Y-110031000D02*
X156440000Y-110031000D01*
X153560000Y-110031000D02*
X146986000Y-110031000D01*
X162992000Y-110071000D02*
X156440000Y-110071000D01*
X153560000Y-110071000D02*
X147008000Y-110071000D01*
X162971000Y-110111000D02*
X156440000Y-110111000D01*
X153560000Y-110111000D02*
X147029000Y-110111000D01*
X162949000Y-110151000D02*
X156440000Y-110151000D01*
X153560000Y-110151000D02*
X147051000Y-110151000D01*
X162927000Y-110191000D02*
X156440000Y-110191000D01*
X153560000Y-110191000D02*
X147073000Y-110191000D01*
X162904000Y-110231000D02*
X156440000Y-110231000D01*
X153560000Y-110231000D02*
X147096000Y-110231000D01*
X162882000Y-110271000D02*
X156440000Y-110271000D01*
X153560000Y-110271000D02*
X147118000Y-110271000D01*
X162859000Y-110311000D02*
X156440000Y-110311000D01*
X153560000Y-110311000D02*
X147141000Y-110311000D01*
X162835000Y-110351000D02*
X156440000Y-110351000D01*
X153560000Y-110351000D02*
X147165000Y-110351000D01*
X162812000Y-110391000D02*
X156440000Y-110391000D01*
X153560000Y-110391000D02*
X147188000Y-110391000D01*
X162788000Y-110431000D02*
X156440000Y-110431000D01*
X153560000Y-110431000D02*
X147212000Y-110431000D01*
X162764000Y-110471000D02*
X156440000Y-110471000D01*
X153560000Y-110471000D02*
X147236000Y-110471000D01*
X162740000Y-110511000D02*
X156440000Y-110511000D01*
X153560000Y-110511000D02*
X147260000Y-110511000D01*
X162715000Y-110551000D02*
X156440000Y-110551000D01*
X153560000Y-110551000D02*
X147285000Y-110551000D01*
X162690000Y-110591000D02*
X156440000Y-110591000D01*
X153560000Y-110591000D02*
X147310000Y-110591000D01*
X162665000Y-110631000D02*
X156440000Y-110631000D01*
X153560000Y-110631000D02*
X147335000Y-110631000D01*
X162640000Y-110671000D02*
X156440000Y-110671000D01*
X153560000Y-110671000D02*
X147360000Y-110671000D01*
X162614000Y-110711000D02*
X156440000Y-110711000D01*
X153560000Y-110711000D02*
X147386000Y-110711000D01*
X162588000Y-110751000D02*
X156440000Y-110751000D01*
X153560000Y-110751000D02*
X147412000Y-110751000D01*
X162561000Y-110791000D02*
X156440000Y-110791000D01*
X153560000Y-110791000D02*
X147439000Y-110791000D01*
X162535000Y-110831000D02*
X156440000Y-110831000D01*
X153560000Y-110831000D02*
X147465000Y-110831000D01*
X162508000Y-110871000D02*
X156440000Y-110871000D01*
X153560000Y-110871000D02*
X147492000Y-110871000D01*
X162480000Y-110911000D02*
X156440000Y-110911000D01*
X153560000Y-110911000D02*
X147520000Y-110911000D01*
X162453000Y-110951000D02*
X147547000Y-110951000D01*
X162425000Y-110991000D02*
X147575000Y-110991000D01*
X162397000Y-111031000D02*
X147603000Y-111031000D01*
X162368000Y-111071000D02*
X147632000Y-111071000D01*
X162339000Y-111111000D02*
X147661000Y-111111000D01*
X162310000Y-111151000D02*
X147690000Y-111151000D01*
X162280000Y-111191000D02*
X147720000Y-111191000D01*
X162250000Y-111231000D02*
X147750000Y-111231000D01*
X162220000Y-111271000D02*
X147780000Y-111271000D01*
X162190000Y-111311000D02*
X147810000Y-111311000D01*
X162159000Y-111351000D02*
X147841000Y-111351000D01*
X162127000Y-111391000D02*
X147873000Y-111391000D01*
X162096000Y-111431000D02*
X147904000Y-111431000D01*
X162064000Y-111471000D02*
X147936000Y-111471000D01*
X162031000Y-111511000D02*
X147969000Y-111511000D01*
X161999000Y-111551000D02*
X148001000Y-111551000D01*
X161965000Y-111591000D02*
X148035000Y-111591000D01*
X161932000Y-111631000D02*
X148068000Y-111631000D01*
X161898000Y-111671000D02*
X148102000Y-111671000D01*
X161864000Y-111711000D02*
X148136000Y-111711000D01*
X161829000Y-111751000D02*
X148171000Y-111751000D01*
X161794000Y-111791000D02*
X148206000Y-111791000D01*
X161758000Y-111831000D02*
X148242000Y-111831000D01*
X161722000Y-111871000D02*
X148278000Y-111871000D01*
X161686000Y-111911000D02*
X148314000Y-111911000D01*
X161649000Y-111951000D02*
X148351000Y-111951000D01*
X161612000Y-111991000D02*
X148388000Y-111991000D01*
X161574000Y-112031000D02*
X148426000Y-112031000D01*
X161536000Y-112071000D02*
X148464000Y-112071000D01*
X161497000Y-112111000D02*
X148503000Y-112111000D01*
X161458000Y-112151000D02*
X148542000Y-112151000D01*
X161418000Y-112191000D02*
X148582000Y-112191000D01*
X161378000Y-112231000D02*
X148622000Y-112231000D01*
X161337000Y-112271000D02*
X148663000Y-112271000D01*
X161296000Y-112311000D02*
X148704000Y-112311000D01*
X161254000Y-112351000D02*
X148746000Y-112351000D01*
X161212000Y-112391000D02*
X148788000Y-112391000D01*
X161170000Y-112431000D02*
X148830000Y-112431000D01*
X161126000Y-112471000D02*
X148874000Y-112471000D01*
X161082000Y-112511000D02*
X148918000Y-112511000D01*
X161038000Y-112551000D02*
X148962000Y-112551000D01*
X160993000Y-112591000D02*
X149007000Y-112591000D01*
X160947000Y-112631000D02*
X149053000Y-112631000D01*
X160901000Y-112671000D02*
X149099000Y-112671000D01*
X160854000Y-112711000D02*
X149146000Y-112711000D01*
X160806000Y-112751000D02*
X149194000Y-112751000D01*
X160758000Y-112791000D02*
X149242000Y-112791000D01*
X160709000Y-112831000D02*
X149291000Y-112831000D01*
X160660000Y-112871000D02*
X149340000Y-112871000D01*
X160609000Y-112911000D02*
X149391000Y-112911000D01*
X160558000Y-112951000D02*
X149442000Y-112951000D01*
X160506000Y-112991000D02*
X149494000Y-112991000D01*
X160454000Y-113031000D02*
X149546000Y-113031000D01*
X160400000Y-113071000D02*
X149600000Y-113071000D01*
X160346000Y-113111000D02*
X149654000Y-113111000D01*
X160291000Y-113151000D02*
X149709000Y-113151000D01*
X160235000Y-113191000D02*
X149765000Y-113191000D01*
X160178000Y-113231000D02*
X149822000Y-113231000D01*
X160120000Y-113271000D02*
X149880000Y-113271000D01*
X160062000Y-113311000D02*
X149938000Y-113311000D01*
X160002000Y-113351000D02*
X149998000Y-113351000D01*
X159941000Y-113391000D02*
X150059000Y-113391000D01*
X159879000Y-113431000D02*
X150121000Y-113431000D01*
X159816000Y-113471000D02*
X150184000Y-113471000D01*
X159752000Y-113511000D02*
X150248000Y-113511000D01*
X159686000Y-113551000D02*
X150314000Y-113551000D01*
X159620000Y-113591000D02*
X150380000Y-113591000D01*
X159552000Y-113631000D02*
X150448000Y-113631000D01*
X159482000Y-113671000D02*
X150518000Y-113671000D01*
X159412000Y-113711000D02*
X150588000Y-113711000D01*
X159339000Y-113751000D02*
X150661000Y-113751000D01*
X159265000Y-113791000D02*
X150735000Y-113791000D01*
X159190000Y-113831000D02*
X150810000Y-113831000D01*
X159113000Y-113871000D02*
X150887000Y-113871000D01*
X159033000Y-113911000D02*
X150967000Y-113911000D01*
X158952000Y-113950000D02*
X151048000Y-113950000D01*
X158869000Y-113990000D02*
X151131000Y-113990000D01*
X158784000Y-114030000D02*
X151216000Y-114030000D01*
X158696000Y-114070000D02*
X151304000Y-114070000D01*
X158605000Y-114110000D02*
X151395000Y-114110000D01*
X158512000Y-114150000D02*
X151488000Y-114150000D01*
X158416000Y-114190000D02*
X151584000Y-114190000D01*
X158317000Y-114230000D02*
X151683000Y-114230000D01*
X158214000Y-114270000D02*
X151786000Y-114270000D01*
X158107000Y-114310000D02*
X151893000Y-114310000D01*
X157996000Y-114350000D02*
X152004000Y-114350000D01*
X157880000Y-114390000D02*
X152120000Y-114390000D01*
X157759000Y-114430000D02*
X152241000Y-114430000D01*
X157632000Y-114470000D02*
X152368000Y-114470000D01*
X157498000Y-114510000D02*
X152502000Y-114510000D01*
X157355000Y-114550000D02*
X152645000Y-114550000D01*
X157203000Y-114590000D02*
X152797000Y-114590000D01*
X157039000Y-114630000D02*
X152961000Y-114630000D01*
X156860000Y-114670000D02*
X153140000Y-114670000D01*
X156661000Y-114710000D02*
X153339000Y-114710000D01*
X156435000Y-114750000D02*
X153565000Y-114750000D01*
X156166000Y-114790000D02*
X153834000Y-114790000D01*
X155814000Y-114830000D02*
X154186000Y-114830000D01*
X155040000Y-114870000D02*
X154960000Y-114870000D01*
X160115000Y-95990560D02*
X160115000Y-97790560D01*
X161015000Y-96890560D02*
X159215000Y-96890560D01*
G04 #@! TO.C,C9*
X89261252Y-114710000D02*
X88738748Y-114710000D01*
X89261252Y-113290000D02*
X88738748Y-113290000D01*
G04 #@! TO.C,C10*
X140290000Y-121738748D02*
X140290000Y-122261252D01*
X141710000Y-121738748D02*
X141710000Y-122261252D01*
G04 #@! TO.C,C11*
X141710000Y-125738748D02*
X141710000Y-126261252D01*
X140290000Y-125738748D02*
X140290000Y-126261252D01*
G04 #@! TO.C,C12*
X75710000Y-100738748D02*
X75710000Y-101261252D01*
X74290000Y-100738748D02*
X74290000Y-101261252D01*
G04 #@! TO.C,C13*
X118738748Y-107290000D02*
X119261252Y-107290000D01*
X118738748Y-108710000D02*
X119261252Y-108710000D01*
G04 #@! TO.C,D1*
X129115000Y-119960000D02*
X131975000Y-119960000D01*
X129115000Y-118040000D02*
X129115000Y-119960000D01*
X131975000Y-118040000D02*
X129115000Y-118040000D01*
G04 #@! TO.C,D2*
X81000000Y-105750000D02*
X79000000Y-105750000D01*
X79000000Y-105750000D02*
X79000000Y-109650000D01*
X81000000Y-105750000D02*
X81000000Y-109650000D01*
G04 #@! TO.C,D3*
X97040000Y-118000000D02*
X97040000Y-120860000D01*
X97040000Y-120860000D02*
X98960000Y-120860000D01*
X98960000Y-120860000D02*
X98960000Y-118000000D01*
G04 #@! TO.C,D4*
X101960000Y-120860000D02*
X101960000Y-118000000D01*
X100040000Y-120860000D02*
X101960000Y-120860000D01*
X100040000Y-118000000D02*
X100040000Y-120860000D01*
G04 #@! TO.C,D5*
X103040000Y-118000000D02*
X103040000Y-120860000D01*
X103040000Y-120860000D02*
X104960000Y-120860000D01*
X104960000Y-120860000D02*
X104960000Y-118000000D01*
G04 #@! TO.C,Q1*
X87805000Y-90549000D02*
X87805000Y-95820000D01*
X84196000Y-90549000D02*
X84196000Y-95820000D01*
X94070000Y-90549000D02*
X94070000Y-95820000D01*
X77930000Y-90549000D02*
X77930000Y-95820000D01*
X77930000Y-95820000D02*
X94070000Y-95820000D01*
X77930000Y-90549000D02*
X94070000Y-90549000D01*
G04 #@! TO.C,Q2*
X100930000Y-90549000D02*
X117070000Y-90549000D01*
X100930000Y-95820000D02*
X117070000Y-95820000D01*
X100930000Y-90549000D02*
X100930000Y-95820000D01*
X117070000Y-90549000D02*
X117070000Y-95820000D01*
X107196000Y-90549000D02*
X107196000Y-95820000D01*
X110805000Y-90549000D02*
X110805000Y-95820000D01*
G04 #@! TO.C,Q3*
X133805000Y-90549000D02*
X133805000Y-95820000D01*
X130196000Y-90549000D02*
X130196000Y-95820000D01*
X140070000Y-90549000D02*
X140070000Y-95820000D01*
X123930000Y-90549000D02*
X123930000Y-95820000D01*
X123930000Y-95820000D02*
X140070000Y-95820000D01*
X123930000Y-90549000D02*
X140070000Y-90549000D01*
G04 #@! TO.C,Q4*
X146930000Y-90549000D02*
X163070000Y-90549000D01*
X146930000Y-95820000D02*
X163070000Y-95820000D01*
X146930000Y-90549000D02*
X146930000Y-95820000D01*
X163070000Y-90549000D02*
X163070000Y-95820000D01*
X153196000Y-90549000D02*
X153196000Y-95820000D01*
X156805000Y-90549000D02*
X156805000Y-95820000D01*
G04 #@! TO.C,Q5*
X153195000Y-49451000D02*
X153195000Y-44180000D01*
X156804000Y-49451000D02*
X156804000Y-44180000D01*
X146930000Y-49451000D02*
X146930000Y-44180000D01*
X163070000Y-49451000D02*
X163070000Y-44180000D01*
X163070000Y-44180000D02*
X146930000Y-44180000D01*
X163070000Y-49451000D02*
X146930000Y-49451000D01*
G04 #@! TO.C,Q6*
X140070000Y-49451000D02*
X123930000Y-49451000D01*
X140070000Y-44180000D02*
X123930000Y-44180000D01*
X140070000Y-49451000D02*
X140070000Y-44180000D01*
X123930000Y-49451000D02*
X123930000Y-44180000D01*
X133804000Y-49451000D02*
X133804000Y-44180000D01*
X130195000Y-49451000D02*
X130195000Y-44180000D01*
G04 #@! TO.C,Q7*
X107195000Y-49451000D02*
X107195000Y-44180000D01*
X110804000Y-49451000D02*
X110804000Y-44180000D01*
X100930000Y-49451000D02*
X100930000Y-44180000D01*
X117070000Y-49451000D02*
X117070000Y-44180000D01*
X117070000Y-44180000D02*
X100930000Y-44180000D01*
X117070000Y-49451000D02*
X100930000Y-49451000D01*
G04 #@! TO.C,Q8*
X94070000Y-49451000D02*
X77930000Y-49451000D01*
X94070000Y-44180000D02*
X77930000Y-44180000D01*
X94070000Y-49451000D02*
X94070000Y-44180000D01*
X77930000Y-49451000D02*
X77930000Y-44180000D01*
X87804000Y-49451000D02*
X87804000Y-44180000D01*
X84195000Y-49451000D02*
X84195000Y-44180000D01*
G04 #@! TO.C,R2*
X127550000Y-100080000D02*
X127550000Y-103920000D01*
X127550000Y-103920000D02*
X137690000Y-103920000D01*
X137690000Y-103920000D02*
X137690000Y-100080000D01*
X137690000Y-100080000D02*
X127550000Y-100080000D01*
X126440000Y-102000000D02*
X127550000Y-102000000D01*
X138800000Y-102000000D02*
X137690000Y-102000000D01*
G04 #@! TO.C,R3*
X102090000Y-99602064D02*
X102090000Y-98397936D01*
X103910000Y-99602064D02*
X103910000Y-98397936D01*
G04 #@! TO.C,R4*
X120090000Y-99397936D02*
X120090000Y-100602064D01*
X121910000Y-99397936D02*
X121910000Y-100602064D01*
G04 #@! TO.C,R7*
X137114564Y-118090000D02*
X135910436Y-118090000D01*
X137114564Y-119910000D02*
X135910436Y-119910000D01*
G04 #@! TO.C,R8*
X83910000Y-107397936D02*
X83910000Y-108602064D01*
X82090000Y-107397936D02*
X82090000Y-108602064D01*
G04 #@! TO.C,R9*
X98910000Y-113397936D02*
X98910000Y-114602064D01*
X97090000Y-113397936D02*
X97090000Y-114602064D01*
G04 #@! TO.C,R10*
X100090000Y-113397936D02*
X100090000Y-114602064D01*
X101910000Y-113397936D02*
X101910000Y-114602064D01*
G04 #@! TO.C,R11*
X103090000Y-113397936D02*
X103090000Y-114602064D01*
X104910000Y-113397936D02*
X104910000Y-114602064D01*
D11*
G04 #@! TO.C,U2*
X87375000Y-110625000D02*
X87600000Y-110625000D01*
X87375000Y-103375000D02*
X87700000Y-103375000D01*
X94625000Y-103375000D02*
X94300000Y-103375000D01*
X94625000Y-110625000D02*
X94300000Y-110625000D01*
X87375000Y-110625000D02*
X87375000Y-110300000D01*
X94625000Y-110625000D02*
X94625000Y-110300000D01*
X94625000Y-103375000D02*
X94625000Y-103700000D01*
X87375000Y-103375000D02*
X87375000Y-103700000D01*
X87600000Y-110625000D02*
X87600000Y-112050000D01*
D13*
G04 #@! TO.C,U3*
X134970000Y-127450000D02*
X136470000Y-127450000D01*
X136470000Y-127450000D02*
X136470000Y-127180000D01*
X136470000Y-127180000D02*
X139300000Y-127180000D01*
X134970000Y-120550000D02*
X136470000Y-120550000D01*
X136470000Y-120550000D02*
X136470000Y-120820000D01*
X136470000Y-120820000D02*
X137570000Y-120820000D01*
G04 #@! TO.C,Y1*
X87240000Y-115475000D02*
X93640000Y-115475000D01*
X87240000Y-120525000D02*
X93640000Y-120525000D01*
X87240000Y-120525000D02*
G75*
G02X87240000Y-115475000I0J2525000D01*
G01*
X93640000Y-120525000D02*
G75*
G03X93640000Y-115475000I0J2525000D01*
G01*
D14*
G04 #@! TO.C,J6*
X167800000Y-118000000D02*
X163100000Y-118000000D01*
X163100000Y-118000000D02*
X163100000Y-119600000D01*
X167500000Y-126000000D02*
X163300000Y-126000000D01*
X163300000Y-126000000D02*
X163200000Y-126000000D01*
X163200000Y-126000000D02*
X163100000Y-126000000D01*
X163100000Y-126000000D02*
X163100000Y-122000000D01*
X177400000Y-118000000D02*
X179400000Y-120700000D01*
X177400000Y-126000000D02*
X179400000Y-123300000D01*
X179400000Y-122000000D02*
X179400000Y-120750000D01*
X179400000Y-122000000D02*
X179400000Y-123250000D01*
X175000000Y-118000000D02*
X177400000Y-118000000D01*
X172000000Y-118000000D02*
X175000000Y-118000000D01*
X175000000Y-126000000D02*
X177400000Y-126000000D01*
X171900000Y-126000000D02*
X175000000Y-126000000D01*
X179400000Y-122100000D02*
X179400000Y-121800000D01*
X163100000Y-122000000D02*
X163100000Y-119600000D01*
X167500000Y-126000000D02*
X171900000Y-126000000D01*
X167800000Y-118000000D02*
X172000000Y-118000000D01*
D13*
G04 #@! TO.C,J7*
X149030000Y-119620000D02*
X143010000Y-119620000D01*
X143010000Y-119620000D02*
X143010000Y-124920000D01*
X143010000Y-124920000D02*
X149030000Y-124920000D01*
X149030000Y-124920000D02*
X149030000Y-119620000D01*
X148000000Y-119330000D02*
X144000000Y-119330000D01*
X143010000Y-121000000D02*
X144010000Y-121000000D01*
X144010000Y-121000000D02*
X144010000Y-123540000D01*
X144010000Y-123540000D02*
X143010000Y-123540000D01*
X144010000Y-121000000D02*
X144540000Y-121250000D01*
X144540000Y-121250000D02*
X144540000Y-123290000D01*
X144540000Y-123290000D02*
X144010000Y-123540000D01*
X143010000Y-121250000D02*
X144010000Y-121250000D01*
X143010000Y-123290000D02*
X144010000Y-123290000D01*
X149030000Y-120200000D02*
X148430000Y-120200000D01*
X148430000Y-120200000D02*
X148430000Y-121800000D01*
X148430000Y-121800000D02*
X149030000Y-121800000D01*
X149030000Y-122740000D02*
X148430000Y-122740000D01*
X148430000Y-122740000D02*
X148430000Y-124340000D01*
X148430000Y-124340000D02*
X149030000Y-124340000D01*
G04 #@! TO.C,J8*
X151250000Y-116900000D02*
X150200000Y-116900000D01*
X150200000Y-117950000D02*
X150200000Y-116900000D01*
X159600000Y-123000000D02*
X159600000Y-131800000D01*
X159600000Y-131800000D02*
X150400000Y-131800000D01*
X156900000Y-117100000D02*
X159600000Y-117100000D01*
X159600000Y-117100000D02*
X159600000Y-119000000D01*
X150400000Y-131800000D02*
X150400000Y-117100000D01*
X150400000Y-117100000D02*
X153000000Y-117100000D01*
G04 #@! TO.C,C14*
X146870000Y-114000000D02*
G75*
G03X146870000Y-114000000I-4120000J0D01*
G01*
X142750000Y-118080000D02*
X142750000Y-109920000D01*
X142710000Y-118080000D02*
X142710000Y-109920000D01*
X142670000Y-118080000D02*
X142670000Y-109920000D01*
X142630000Y-118079000D02*
X142630000Y-109921000D01*
X142590000Y-118077000D02*
X142590000Y-109923000D01*
X142550000Y-118076000D02*
X142550000Y-109924000D01*
X142510000Y-118074000D02*
X142510000Y-115040000D01*
X142510000Y-112960000D02*
X142510000Y-109926000D01*
X142470000Y-118071000D02*
X142470000Y-115040000D01*
X142470000Y-112960000D02*
X142470000Y-109929000D01*
X142430000Y-118068000D02*
X142430000Y-115040000D01*
X142430000Y-112960000D02*
X142430000Y-109932000D01*
X142390000Y-118065000D02*
X142390000Y-115040000D01*
X142390000Y-112960000D02*
X142390000Y-109935000D01*
X142350000Y-118061000D02*
X142350000Y-115040000D01*
X142350000Y-112960000D02*
X142350000Y-109939000D01*
X142310000Y-118057000D02*
X142310000Y-115040000D01*
X142310000Y-112960000D02*
X142310000Y-109943000D01*
X142270000Y-118052000D02*
X142270000Y-115040000D01*
X142270000Y-112960000D02*
X142270000Y-109948000D01*
X142230000Y-118048000D02*
X142230000Y-115040000D01*
X142230000Y-112960000D02*
X142230000Y-109952000D01*
X142190000Y-118042000D02*
X142190000Y-115040000D01*
X142190000Y-112960000D02*
X142190000Y-109958000D01*
X142150000Y-118037000D02*
X142150000Y-115040000D01*
X142150000Y-112960000D02*
X142150000Y-109963000D01*
X142110000Y-118030000D02*
X142110000Y-115040000D01*
X142110000Y-112960000D02*
X142110000Y-109970000D01*
X142070000Y-118024000D02*
X142070000Y-115040000D01*
X142070000Y-112960000D02*
X142070000Y-109976000D01*
X142029000Y-118017000D02*
X142029000Y-115040000D01*
X142029000Y-112960000D02*
X142029000Y-109983000D01*
X141989000Y-118010000D02*
X141989000Y-115040000D01*
X141989000Y-112960000D02*
X141989000Y-109990000D01*
X141949000Y-118002000D02*
X141949000Y-115040000D01*
X141949000Y-112960000D02*
X141949000Y-109998000D01*
X141909000Y-117994000D02*
X141909000Y-115040000D01*
X141909000Y-112960000D02*
X141909000Y-110006000D01*
X141869000Y-117985000D02*
X141869000Y-115040000D01*
X141869000Y-112960000D02*
X141869000Y-110015000D01*
X141829000Y-117976000D02*
X141829000Y-115040000D01*
X141829000Y-112960000D02*
X141829000Y-110024000D01*
X141789000Y-117967000D02*
X141789000Y-115040000D01*
X141789000Y-112960000D02*
X141789000Y-110033000D01*
X141749000Y-117957000D02*
X141749000Y-115040000D01*
X141749000Y-112960000D02*
X141749000Y-110043000D01*
X141709000Y-117947000D02*
X141709000Y-115040000D01*
X141709000Y-112960000D02*
X141709000Y-110053000D01*
X141669000Y-117936000D02*
X141669000Y-115040000D01*
X141669000Y-112960000D02*
X141669000Y-110064000D01*
X141629000Y-117925000D02*
X141629000Y-115040000D01*
X141629000Y-112960000D02*
X141629000Y-110075000D01*
X141589000Y-117914000D02*
X141589000Y-115040000D01*
X141589000Y-112960000D02*
X141589000Y-110086000D01*
X141549000Y-117902000D02*
X141549000Y-115040000D01*
X141549000Y-112960000D02*
X141549000Y-110098000D01*
X141509000Y-117889000D02*
X141509000Y-115040000D01*
X141509000Y-112960000D02*
X141509000Y-110111000D01*
X141469000Y-117877000D02*
X141469000Y-115040000D01*
X141469000Y-112960000D02*
X141469000Y-110123000D01*
X141429000Y-117863000D02*
X141429000Y-115040000D01*
X141429000Y-112960000D02*
X141429000Y-110137000D01*
X141389000Y-117850000D02*
X141389000Y-115040000D01*
X141389000Y-112960000D02*
X141389000Y-110150000D01*
X141349000Y-117835000D02*
X141349000Y-115040000D01*
X141349000Y-112960000D02*
X141349000Y-110165000D01*
X141309000Y-117821000D02*
X141309000Y-115040000D01*
X141309000Y-112960000D02*
X141309000Y-110179000D01*
X141269000Y-117805000D02*
X141269000Y-115040000D01*
X141269000Y-112960000D02*
X141269000Y-110195000D01*
X141229000Y-117790000D02*
X141229000Y-115040000D01*
X141229000Y-112960000D02*
X141229000Y-110210000D01*
X141189000Y-117774000D02*
X141189000Y-115040000D01*
X141189000Y-112960000D02*
X141189000Y-110226000D01*
X141149000Y-117757000D02*
X141149000Y-115040000D01*
X141149000Y-112960000D02*
X141149000Y-110243000D01*
X141109000Y-117740000D02*
X141109000Y-115040000D01*
X141109000Y-112960000D02*
X141109000Y-110260000D01*
X141069000Y-117722000D02*
X141069000Y-115040000D01*
X141069000Y-112960000D02*
X141069000Y-110278000D01*
X141029000Y-117704000D02*
X141029000Y-115040000D01*
X141029000Y-112960000D02*
X141029000Y-110296000D01*
X140989000Y-117686000D02*
X140989000Y-115040000D01*
X140989000Y-112960000D02*
X140989000Y-110314000D01*
X140949000Y-117666000D02*
X140949000Y-115040000D01*
X140949000Y-112960000D02*
X140949000Y-110334000D01*
X140909000Y-117647000D02*
X140909000Y-115040000D01*
X140909000Y-112960000D02*
X140909000Y-110353000D01*
X140869000Y-117627000D02*
X140869000Y-115040000D01*
X140869000Y-112960000D02*
X140869000Y-110373000D01*
X140829000Y-117606000D02*
X140829000Y-115040000D01*
X140829000Y-112960000D02*
X140829000Y-110394000D01*
X140789000Y-117584000D02*
X140789000Y-115040000D01*
X140789000Y-112960000D02*
X140789000Y-110416000D01*
X140749000Y-117562000D02*
X140749000Y-115040000D01*
X140749000Y-112960000D02*
X140749000Y-110438000D01*
X140709000Y-117540000D02*
X140709000Y-115040000D01*
X140709000Y-112960000D02*
X140709000Y-110460000D01*
X140669000Y-117517000D02*
X140669000Y-115040000D01*
X140669000Y-112960000D02*
X140669000Y-110483000D01*
X140629000Y-117493000D02*
X140629000Y-115040000D01*
X140629000Y-112960000D02*
X140629000Y-110507000D01*
X140589000Y-117469000D02*
X140589000Y-115040000D01*
X140589000Y-112960000D02*
X140589000Y-110531000D01*
X140549000Y-117444000D02*
X140549000Y-115040000D01*
X140549000Y-112960000D02*
X140549000Y-110556000D01*
X140509000Y-117418000D02*
X140509000Y-115040000D01*
X140509000Y-112960000D02*
X140509000Y-110582000D01*
X140469000Y-117392000D02*
X140469000Y-115040000D01*
X140469000Y-112960000D02*
X140469000Y-110608000D01*
X140429000Y-117365000D02*
X140429000Y-110635000D01*
X140389000Y-117338000D02*
X140389000Y-110662000D01*
X140349000Y-117309000D02*
X140349000Y-110691000D01*
X140309000Y-117280000D02*
X140309000Y-110720000D01*
X140269000Y-117250000D02*
X140269000Y-110750000D01*
X140229000Y-117220000D02*
X140229000Y-110780000D01*
X140189000Y-117189000D02*
X140189000Y-110811000D01*
X140149000Y-117156000D02*
X140149000Y-110844000D01*
X140109000Y-117124000D02*
X140109000Y-110876000D01*
X140069000Y-117090000D02*
X140069000Y-110910000D01*
X140029000Y-117055000D02*
X140029000Y-110945000D01*
X139989000Y-117019000D02*
X139989000Y-110981000D01*
X139949000Y-116983000D02*
X139949000Y-111017000D01*
X139909000Y-116945000D02*
X139909000Y-111055000D01*
X139869000Y-116907000D02*
X139869000Y-111093000D01*
X139829000Y-116867000D02*
X139829000Y-111133000D01*
X139789000Y-116826000D02*
X139789000Y-111174000D01*
X139749000Y-116784000D02*
X139749000Y-111216000D01*
X139709000Y-116741000D02*
X139709000Y-111259000D01*
X139669000Y-116697000D02*
X139669000Y-111303000D01*
X139629000Y-116651000D02*
X139629000Y-111349000D01*
X139589000Y-116604000D02*
X139589000Y-111396000D01*
X139549000Y-116556000D02*
X139549000Y-111444000D01*
X139509000Y-116505000D02*
X139509000Y-111495000D01*
X139469000Y-116454000D02*
X139469000Y-111546000D01*
X139429000Y-116400000D02*
X139429000Y-111600000D01*
X139389000Y-116345000D02*
X139389000Y-111655000D01*
X139349000Y-116287000D02*
X139349000Y-111713000D01*
X139309000Y-116228000D02*
X139309000Y-111772000D01*
X139269000Y-116166000D02*
X139269000Y-111834000D01*
X139229000Y-116102000D02*
X139229000Y-111898000D01*
X139189000Y-116034000D02*
X139189000Y-111966000D01*
X139149000Y-115964000D02*
X139149000Y-112036000D01*
X139109000Y-115890000D02*
X139109000Y-112110000D01*
X139069000Y-115813000D02*
X139069000Y-112187000D01*
X139029000Y-115731000D02*
X139029000Y-112269000D01*
X138989000Y-115645000D02*
X138989000Y-112355000D01*
X138949000Y-115552000D02*
X138949000Y-112448000D01*
X138909000Y-115453000D02*
X138909000Y-112547000D01*
X138869000Y-115346000D02*
X138869000Y-112654000D01*
X138829000Y-115229000D02*
X138829000Y-112771000D01*
X138789000Y-115098000D02*
X138789000Y-112902000D01*
X138749000Y-114948000D02*
X138749000Y-113052000D01*
X138709000Y-114768000D02*
X138709000Y-113232000D01*
X138669000Y-114533000D02*
X138669000Y-113467000D01*
X147159698Y-116315000D02*
X146359698Y-116315000D01*
X146759698Y-116715000D02*
X146759698Y-115915000D01*
G04 #@! TO.C,J4*
X76330000Y-104050000D02*
X73670000Y-104050000D01*
X76330000Y-111730000D02*
X76330000Y-104050000D01*
X73670000Y-111730000D02*
X73670000Y-104050000D01*
X76330000Y-111730000D02*
X73670000Y-111730000D01*
X76330000Y-113000000D02*
X76330000Y-114330000D01*
X76330000Y-114330000D02*
X75000000Y-114330000D01*
G04 #@! TO.C,J5*
X71330000Y-111730000D02*
X68670000Y-111730000D01*
X71330000Y-111730000D02*
X71330000Y-98970000D01*
X71330000Y-98970000D02*
X68670000Y-98970000D01*
X68670000Y-111730000D02*
X68670000Y-98970000D01*
X68670000Y-114330000D02*
X68670000Y-113000000D01*
X70000000Y-114330000D02*
X68670000Y-114330000D01*
G04 #@! TO.C,J9*
X114730000Y-124670000D02*
X114730000Y-127330000D01*
X114730000Y-124670000D02*
X101970000Y-124670000D01*
X101970000Y-124670000D02*
X101970000Y-127330000D01*
X114730000Y-127330000D02*
X101970000Y-127330000D01*
X117330000Y-127330000D02*
X116000000Y-127330000D01*
X117330000Y-126000000D02*
X117330000Y-127330000D01*
D15*
G04 #@! TO.C,U1*
X118320000Y-106219200D02*
X119680000Y-106219200D01*
X119680000Y-103780800D02*
X118320000Y-103780800D01*
X116956200Y-104014800D02*
G75*
G02X116956200Y-103760800I0J127000D01*
G01*
X116956200Y-103760800D02*
G75*
G02X116956200Y-104014800I0J-127000D01*
G01*
G04 #@! TO.C,C1*
D16*
X93214285Y-100100000D02*
X93242857Y-100128571D01*
X93271428Y-100214285D01*
X93271428Y-100271428D01*
X93242857Y-100357142D01*
X93185714Y-100414285D01*
X93128571Y-100442857D01*
X93014285Y-100471428D01*
X92928571Y-100471428D01*
X92814285Y-100442857D01*
X92757142Y-100414285D01*
X92700000Y-100357142D01*
X92671428Y-100271428D01*
X92671428Y-100214285D01*
X92700000Y-100128571D01*
X92728571Y-100100000D01*
X93271428Y-99528571D02*
X93271428Y-99871428D01*
X93271428Y-99700000D02*
X92671428Y-99700000D01*
X92757142Y-99757142D01*
X92814285Y-99814285D01*
X92842857Y-99871428D01*
G04 #@! TO.C,C3*
X117900000Y-100214285D02*
X117871428Y-100242857D01*
X117785714Y-100271428D01*
X117728571Y-100271428D01*
X117642857Y-100242857D01*
X117585714Y-100185714D01*
X117557142Y-100128571D01*
X117528571Y-100014285D01*
X117528571Y-99928571D01*
X117557142Y-99814285D01*
X117585714Y-99757142D01*
X117642857Y-99700000D01*
X117728571Y-99671428D01*
X117785714Y-99671428D01*
X117871428Y-99700000D01*
X117900000Y-99728571D01*
X118100000Y-99671428D02*
X118471428Y-99671428D01*
X118271428Y-99900000D01*
X118357142Y-99900000D01*
X118414285Y-99928571D01*
X118442857Y-99957142D01*
X118471428Y-100014285D01*
X118471428Y-100157142D01*
X118442857Y-100214285D01*
X118414285Y-100242857D01*
X118357142Y-100271428D01*
X118185714Y-100271428D01*
X118128571Y-100242857D01*
X118100000Y-100214285D01*
G04 #@! TO.C,C4*
X88214285Y-122100000D02*
X88242857Y-122128571D01*
X88271428Y-122214285D01*
X88271428Y-122271428D01*
X88242857Y-122357142D01*
X88185714Y-122414285D01*
X88128571Y-122442857D01*
X88014285Y-122471428D01*
X87928571Y-122471428D01*
X87814285Y-122442857D01*
X87757142Y-122414285D01*
X87700000Y-122357142D01*
X87671428Y-122271428D01*
X87671428Y-122214285D01*
X87700000Y-122128571D01*
X87728571Y-122100000D01*
X87871428Y-121585714D02*
X88271428Y-121585714D01*
X87642857Y-121728571D02*
X88071428Y-121871428D01*
X88071428Y-121500000D01*
G04 #@! TO.C,C5*
X99900000Y-99214285D02*
X99871428Y-99242857D01*
X99785714Y-99271428D01*
X99728571Y-99271428D01*
X99642857Y-99242857D01*
X99585714Y-99185714D01*
X99557142Y-99128571D01*
X99528571Y-99014285D01*
X99528571Y-98928571D01*
X99557142Y-98814285D01*
X99585714Y-98757142D01*
X99642857Y-98700000D01*
X99728571Y-98671428D01*
X99785714Y-98671428D01*
X99871428Y-98700000D01*
X99900000Y-98728571D01*
X100442857Y-98671428D02*
X100157142Y-98671428D01*
X100128571Y-98957142D01*
X100157142Y-98928571D01*
X100214285Y-98900000D01*
X100357142Y-98900000D01*
X100414285Y-98928571D01*
X100442857Y-98957142D01*
X100471428Y-99014285D01*
X100471428Y-99157142D01*
X100442857Y-99214285D01*
X100414285Y-99242857D01*
X100357142Y-99271428D01*
X100214285Y-99271428D01*
X100157142Y-99242857D01*
X100128571Y-99214285D01*
G04 #@! TO.C,C6*
X93214285Y-122100000D02*
X93242857Y-122128571D01*
X93271428Y-122214285D01*
X93271428Y-122271428D01*
X93242857Y-122357142D01*
X93185714Y-122414285D01*
X93128571Y-122442857D01*
X93014285Y-122471428D01*
X92928571Y-122471428D01*
X92814285Y-122442857D01*
X92757142Y-122414285D01*
X92700000Y-122357142D01*
X92671428Y-122271428D01*
X92671428Y-122214285D01*
X92700000Y-122128571D01*
X92728571Y-122100000D01*
X92671428Y-121585714D02*
X92671428Y-121700000D01*
X92700000Y-121757142D01*
X92728571Y-121785714D01*
X92814285Y-121842857D01*
X92928571Y-121871428D01*
X93157142Y-121871428D01*
X93214285Y-121842857D01*
X93242857Y-121814285D01*
X93271428Y-121757142D01*
X93271428Y-121642857D01*
X93242857Y-121585714D01*
X93214285Y-121557142D01*
X93157142Y-121528571D01*
X93014285Y-121528571D01*
X92957142Y-121557142D01*
X92928571Y-121585714D01*
X92900000Y-121642857D01*
X92900000Y-121757142D01*
X92928571Y-121814285D01*
X92957142Y-121842857D01*
X93014285Y-121871428D01*
G04 #@! TO.C,C7*
X79900000Y-114214285D02*
X79871428Y-114242857D01*
X79785714Y-114271428D01*
X79728571Y-114271428D01*
X79642857Y-114242857D01*
X79585714Y-114185714D01*
X79557142Y-114128571D01*
X79528571Y-114014285D01*
X79528571Y-113928571D01*
X79557142Y-113814285D01*
X79585714Y-113757142D01*
X79642857Y-113700000D01*
X79728571Y-113671428D01*
X79785714Y-113671428D01*
X79871428Y-113700000D01*
X79900000Y-113728571D01*
X80100000Y-113671428D02*
X80500000Y-113671428D01*
X80242857Y-114271428D01*
G04 #@! TO.C,C8*
D11*
X159833333Y-101357142D02*
X159785714Y-101404761D01*
X159642857Y-101452380D01*
X159547619Y-101452380D01*
X159404761Y-101404761D01*
X159309523Y-101309523D01*
X159261904Y-101214285D01*
X159214285Y-101023809D01*
X159214285Y-100880952D01*
X159261904Y-100690476D01*
X159309523Y-100595238D01*
X159404761Y-100500000D01*
X159547619Y-100452380D01*
X159642857Y-100452380D01*
X159785714Y-100500000D01*
X159833333Y-100547619D01*
X160404761Y-100880952D02*
X160309523Y-100833333D01*
X160261904Y-100785714D01*
X160214285Y-100690476D01*
X160214285Y-100642857D01*
X160261904Y-100547619D01*
X160309523Y-100500000D01*
X160404761Y-100452380D01*
X160595238Y-100452380D01*
X160690476Y-100500000D01*
X160738095Y-100547619D01*
X160785714Y-100642857D01*
X160785714Y-100690476D01*
X160738095Y-100785714D01*
X160690476Y-100833333D01*
X160595238Y-100880952D01*
X160404761Y-100880952D01*
X160309523Y-100928571D01*
X160261904Y-100976190D01*
X160214285Y-101071428D01*
X160214285Y-101261904D01*
X160261904Y-101357142D01*
X160309523Y-101404761D01*
X160404761Y-101452380D01*
X160595238Y-101452380D01*
X160690476Y-101404761D01*
X160738095Y-101357142D01*
X160785714Y-101261904D01*
X160785714Y-101071428D01*
X160738095Y-100976190D01*
X160690476Y-100928571D01*
X160595238Y-100880952D01*
G04 #@! TO.C,C9*
D16*
X89214285Y-114100000D02*
X89242857Y-114128571D01*
X89271428Y-114214285D01*
X89271428Y-114271428D01*
X89242857Y-114357142D01*
X89185714Y-114414285D01*
X89128571Y-114442857D01*
X89014285Y-114471428D01*
X88928571Y-114471428D01*
X88814285Y-114442857D01*
X88757142Y-114414285D01*
X88700000Y-114357142D01*
X88671428Y-114271428D01*
X88671428Y-114214285D01*
X88700000Y-114128571D01*
X88728571Y-114100000D01*
X89271428Y-113814285D02*
X89271428Y-113700000D01*
X89242857Y-113642857D01*
X89214285Y-113614285D01*
X89128571Y-113557142D01*
X89014285Y-113528571D01*
X88785714Y-113528571D01*
X88728571Y-113557142D01*
X88700000Y-113585714D01*
X88671428Y-113642857D01*
X88671428Y-113757142D01*
X88700000Y-113814285D01*
X88728571Y-113842857D01*
X88785714Y-113871428D01*
X88928571Y-113871428D01*
X88985714Y-113842857D01*
X89014285Y-113814285D01*
X89042857Y-113757142D01*
X89042857Y-113642857D01*
X89014285Y-113585714D01*
X88985714Y-113557142D01*
X88928571Y-113528571D01*
G04 #@! TO.C,C10*
X140614285Y-122214285D02*
X140585714Y-122242857D01*
X140500000Y-122271428D01*
X140442857Y-122271428D01*
X140357142Y-122242857D01*
X140300000Y-122185714D01*
X140271428Y-122128571D01*
X140242857Y-122014285D01*
X140242857Y-121928571D01*
X140271428Y-121814285D01*
X140300000Y-121757142D01*
X140357142Y-121700000D01*
X140442857Y-121671428D01*
X140500000Y-121671428D01*
X140585714Y-121700000D01*
X140614285Y-121728571D01*
X141185714Y-122271428D02*
X140842857Y-122271428D01*
X141014285Y-122271428D02*
X141014285Y-121671428D01*
X140957142Y-121757142D01*
X140900000Y-121814285D01*
X140842857Y-121842857D01*
X141557142Y-121671428D02*
X141614285Y-121671428D01*
X141671428Y-121700000D01*
X141700000Y-121728571D01*
X141728571Y-121785714D01*
X141757142Y-121900000D01*
X141757142Y-122042857D01*
X141728571Y-122157142D01*
X141700000Y-122214285D01*
X141671428Y-122242857D01*
X141614285Y-122271428D01*
X141557142Y-122271428D01*
X141500000Y-122242857D01*
X141471428Y-122214285D01*
X141442857Y-122157142D01*
X141414285Y-122042857D01*
X141414285Y-121900000D01*
X141442857Y-121785714D01*
X141471428Y-121728571D01*
X141500000Y-121700000D01*
X141557142Y-121671428D01*
G04 #@! TO.C,C11*
X140614285Y-126214285D02*
X140585714Y-126242857D01*
X140500000Y-126271428D01*
X140442857Y-126271428D01*
X140357142Y-126242857D01*
X140300000Y-126185714D01*
X140271428Y-126128571D01*
X140242857Y-126014285D01*
X140242857Y-125928571D01*
X140271428Y-125814285D01*
X140300000Y-125757142D01*
X140357142Y-125700000D01*
X140442857Y-125671428D01*
X140500000Y-125671428D01*
X140585714Y-125700000D01*
X140614285Y-125728571D01*
X141185714Y-126271428D02*
X140842857Y-126271428D01*
X141014285Y-126271428D02*
X141014285Y-125671428D01*
X140957142Y-125757142D01*
X140900000Y-125814285D01*
X140842857Y-125842857D01*
X141757142Y-126271428D02*
X141414285Y-126271428D01*
X141585714Y-126271428D02*
X141585714Y-125671428D01*
X141528571Y-125757142D01*
X141471428Y-125814285D01*
X141414285Y-125842857D01*
G04 #@! TO.C,C12*
X74614285Y-101214285D02*
X74585714Y-101242857D01*
X74500000Y-101271428D01*
X74442857Y-101271428D01*
X74357142Y-101242857D01*
X74300000Y-101185714D01*
X74271428Y-101128571D01*
X74242857Y-101014285D01*
X74242857Y-100928571D01*
X74271428Y-100814285D01*
X74300000Y-100757142D01*
X74357142Y-100700000D01*
X74442857Y-100671428D01*
X74500000Y-100671428D01*
X74585714Y-100700000D01*
X74614285Y-100728571D01*
X75185714Y-101271428D02*
X74842857Y-101271428D01*
X75014285Y-101271428D02*
X75014285Y-100671428D01*
X74957142Y-100757142D01*
X74900000Y-100814285D01*
X74842857Y-100842857D01*
X75414285Y-100728571D02*
X75442857Y-100700000D01*
X75500000Y-100671428D01*
X75642857Y-100671428D01*
X75700000Y-100700000D01*
X75728571Y-100728571D01*
X75757142Y-100785714D01*
X75757142Y-100842857D01*
X75728571Y-100928571D01*
X75385714Y-101271428D01*
X75757142Y-101271428D01*
G04 #@! TO.C,C13*
X119214285Y-108385714D02*
X119242857Y-108414285D01*
X119271428Y-108500000D01*
X119271428Y-108557142D01*
X119242857Y-108642857D01*
X119185714Y-108700000D01*
X119128571Y-108728571D01*
X119014285Y-108757142D01*
X118928571Y-108757142D01*
X118814285Y-108728571D01*
X118757142Y-108700000D01*
X118700000Y-108642857D01*
X118671428Y-108557142D01*
X118671428Y-108500000D01*
X118700000Y-108414285D01*
X118728571Y-108385714D01*
X119271428Y-107814285D02*
X119271428Y-108157142D01*
X119271428Y-107985714D02*
X118671428Y-107985714D01*
X118757142Y-108042857D01*
X118814285Y-108100000D01*
X118842857Y-108157142D01*
X118671428Y-107614285D02*
X118671428Y-107242857D01*
X118900000Y-107442857D01*
X118900000Y-107357142D01*
X118928571Y-107300000D01*
X118957142Y-107271428D01*
X119014285Y-107242857D01*
X119157142Y-107242857D01*
X119214285Y-107271428D01*
X119242857Y-107300000D01*
X119271428Y-107357142D01*
X119271428Y-107528571D01*
X119242857Y-107585714D01*
X119214285Y-107614285D01*
G04 #@! TO.C,D1*
D11*
X130236904Y-117802380D02*
X130236904Y-116802380D01*
X130475000Y-116802380D01*
X130617857Y-116850000D01*
X130713095Y-116945238D01*
X130760714Y-117040476D01*
X130808333Y-117230952D01*
X130808333Y-117373809D01*
X130760714Y-117564285D01*
X130713095Y-117659523D01*
X130617857Y-117754761D01*
X130475000Y-117802380D01*
X130236904Y-117802380D01*
X131760714Y-117802380D02*
X131189285Y-117802380D01*
X131475000Y-117802380D02*
X131475000Y-116802380D01*
X131379761Y-116945238D01*
X131284523Y-117040476D01*
X131189285Y-117088095D01*
G04 #@! TO.C,D2*
X80452380Y-108738095D02*
X79452380Y-108738095D01*
X79452380Y-108500000D01*
X79500000Y-108357142D01*
X79595238Y-108261904D01*
X79690476Y-108214285D01*
X79880952Y-108166666D01*
X80023809Y-108166666D01*
X80214285Y-108214285D01*
X80309523Y-108261904D01*
X80404761Y-108357142D01*
X80452380Y-108500000D01*
X80452380Y-108738095D01*
X79547619Y-107785714D02*
X79500000Y-107738095D01*
X79452380Y-107642857D01*
X79452380Y-107404761D01*
X79500000Y-107309523D01*
X79547619Y-107261904D01*
X79642857Y-107214285D01*
X79738095Y-107214285D01*
X79880952Y-107261904D01*
X80452380Y-107833333D01*
X80452380Y-107214285D01*
G04 #@! TO.C,D3*
X97261904Y-110952380D02*
X97261904Y-109952380D01*
X97500000Y-109952380D01*
X97642857Y-110000000D01*
X97738095Y-110095238D01*
X97785714Y-110190476D01*
X97833333Y-110380952D01*
X97833333Y-110523809D01*
X97785714Y-110714285D01*
X97738095Y-110809523D01*
X97642857Y-110904761D01*
X97500000Y-110952380D01*
X97261904Y-110952380D01*
X98166666Y-109952380D02*
X98785714Y-109952380D01*
X98452380Y-110333333D01*
X98595238Y-110333333D01*
X98690476Y-110380952D01*
X98738095Y-110428571D01*
X98785714Y-110523809D01*
X98785714Y-110761904D01*
X98738095Y-110857142D01*
X98690476Y-110904761D01*
X98595238Y-110952380D01*
X98309523Y-110952380D01*
X98214285Y-110904761D01*
X98166666Y-110857142D01*
G04 #@! TO.C,D4*
X100261904Y-110952380D02*
X100261904Y-109952380D01*
X100500000Y-109952380D01*
X100642857Y-110000000D01*
X100738095Y-110095238D01*
X100785714Y-110190476D01*
X100833333Y-110380952D01*
X100833333Y-110523809D01*
X100785714Y-110714285D01*
X100738095Y-110809523D01*
X100642857Y-110904761D01*
X100500000Y-110952380D01*
X100261904Y-110952380D01*
X101690476Y-110285714D02*
X101690476Y-110952380D01*
X101452380Y-109904761D02*
X101214285Y-110619047D01*
X101833333Y-110619047D01*
G04 #@! TO.C,D5*
X103261904Y-110952380D02*
X103261904Y-109952380D01*
X103500000Y-109952380D01*
X103642857Y-110000000D01*
X103738095Y-110095238D01*
X103785714Y-110190476D01*
X103833333Y-110380952D01*
X103833333Y-110523809D01*
X103785714Y-110714285D01*
X103738095Y-110809523D01*
X103642857Y-110904761D01*
X103500000Y-110952380D01*
X103261904Y-110952380D01*
X104738095Y-109952380D02*
X104261904Y-109952380D01*
X104214285Y-110428571D01*
X104261904Y-110380952D01*
X104357142Y-110333333D01*
X104595238Y-110333333D01*
X104690476Y-110380952D01*
X104738095Y-110428571D01*
X104785714Y-110523809D01*
X104785714Y-110761904D01*
X104738095Y-110857142D01*
X104690476Y-110904761D01*
X104595238Y-110952380D01*
X104357142Y-110952380D01*
X104261904Y-110904761D01*
X104214285Y-110857142D01*
G04 #@! TO.C,Q1*
X85904761Y-90097619D02*
X85809523Y-90050000D01*
X85714285Y-89954761D01*
X85571428Y-89811904D01*
X85476190Y-89764285D01*
X85380952Y-89764285D01*
X85428571Y-90002380D02*
X85333333Y-89954761D01*
X85238095Y-89859523D01*
X85190476Y-89669047D01*
X85190476Y-89335714D01*
X85238095Y-89145238D01*
X85333333Y-89050000D01*
X85428571Y-89002380D01*
X85619047Y-89002380D01*
X85714285Y-89050000D01*
X85809523Y-89145238D01*
X85857142Y-89335714D01*
X85857142Y-89669047D01*
X85809523Y-89859523D01*
X85714285Y-89954761D01*
X85619047Y-90002380D01*
X85428571Y-90002380D01*
X86809523Y-90002380D02*
X86238095Y-90002380D01*
X86523809Y-90002380D02*
X86523809Y-89002380D01*
X86428571Y-89145238D01*
X86333333Y-89240476D01*
X86238095Y-89288095D01*
G04 #@! TO.C,Q2*
X108904761Y-90097619D02*
X108809523Y-90050000D01*
X108714285Y-89954761D01*
X108571428Y-89811904D01*
X108476190Y-89764285D01*
X108380952Y-89764285D01*
X108428571Y-90002380D02*
X108333333Y-89954761D01*
X108238095Y-89859523D01*
X108190476Y-89669047D01*
X108190476Y-89335714D01*
X108238095Y-89145238D01*
X108333333Y-89050000D01*
X108428571Y-89002380D01*
X108619047Y-89002380D01*
X108714285Y-89050000D01*
X108809523Y-89145238D01*
X108857142Y-89335714D01*
X108857142Y-89669047D01*
X108809523Y-89859523D01*
X108714285Y-89954761D01*
X108619047Y-90002380D01*
X108428571Y-90002380D01*
X109238095Y-89097619D02*
X109285714Y-89050000D01*
X109380952Y-89002380D01*
X109619047Y-89002380D01*
X109714285Y-89050000D01*
X109761904Y-89097619D01*
X109809523Y-89192857D01*
X109809523Y-89288095D01*
X109761904Y-89430952D01*
X109190476Y-90002380D01*
X109809523Y-90002380D01*
G04 #@! TO.C,Q3*
X131904761Y-90097619D02*
X131809523Y-90050000D01*
X131714285Y-89954761D01*
X131571428Y-89811904D01*
X131476190Y-89764285D01*
X131380952Y-89764285D01*
X131428571Y-90002380D02*
X131333333Y-89954761D01*
X131238095Y-89859523D01*
X131190476Y-89669047D01*
X131190476Y-89335714D01*
X131238095Y-89145238D01*
X131333333Y-89050000D01*
X131428571Y-89002380D01*
X131619047Y-89002380D01*
X131714285Y-89050000D01*
X131809523Y-89145238D01*
X131857142Y-89335714D01*
X131857142Y-89669047D01*
X131809523Y-89859523D01*
X131714285Y-89954761D01*
X131619047Y-90002380D01*
X131428571Y-90002380D01*
X132190476Y-89002380D02*
X132809523Y-89002380D01*
X132476190Y-89383333D01*
X132619047Y-89383333D01*
X132714285Y-89430952D01*
X132761904Y-89478571D01*
X132809523Y-89573809D01*
X132809523Y-89811904D01*
X132761904Y-89907142D01*
X132714285Y-89954761D01*
X132619047Y-90002380D01*
X132333333Y-90002380D01*
X132238095Y-89954761D01*
X132190476Y-89907142D01*
G04 #@! TO.C,Q4*
X154904761Y-90097619D02*
X154809523Y-90050000D01*
X154714285Y-89954761D01*
X154571428Y-89811904D01*
X154476190Y-89764285D01*
X154380952Y-89764285D01*
X154428571Y-90002380D02*
X154333333Y-89954761D01*
X154238095Y-89859523D01*
X154190476Y-89669047D01*
X154190476Y-89335714D01*
X154238095Y-89145238D01*
X154333333Y-89050000D01*
X154428571Y-89002380D01*
X154619047Y-89002380D01*
X154714285Y-89050000D01*
X154809523Y-89145238D01*
X154857142Y-89335714D01*
X154857142Y-89669047D01*
X154809523Y-89859523D01*
X154714285Y-89954761D01*
X154619047Y-90002380D01*
X154428571Y-90002380D01*
X155714285Y-89335714D02*
X155714285Y-90002380D01*
X155476190Y-88954761D02*
X155238095Y-89669047D01*
X155857142Y-89669047D01*
G04 #@! TO.C,Q5*
X154904761Y-50997619D02*
X154809523Y-50950000D01*
X154714285Y-50854761D01*
X154571428Y-50711904D01*
X154476190Y-50664285D01*
X154380952Y-50664285D01*
X154428571Y-50902380D02*
X154333333Y-50854761D01*
X154238095Y-50759523D01*
X154190476Y-50569047D01*
X154190476Y-50235714D01*
X154238095Y-50045238D01*
X154333333Y-49950000D01*
X154428571Y-49902380D01*
X154619047Y-49902380D01*
X154714285Y-49950000D01*
X154809523Y-50045238D01*
X154857142Y-50235714D01*
X154857142Y-50569047D01*
X154809523Y-50759523D01*
X154714285Y-50854761D01*
X154619047Y-50902380D01*
X154428571Y-50902380D01*
X155761904Y-49902380D02*
X155285714Y-49902380D01*
X155238095Y-50378571D01*
X155285714Y-50330952D01*
X155380952Y-50283333D01*
X155619047Y-50283333D01*
X155714285Y-50330952D01*
X155761904Y-50378571D01*
X155809523Y-50473809D01*
X155809523Y-50711904D01*
X155761904Y-50807142D01*
X155714285Y-50854761D01*
X155619047Y-50902380D01*
X155380952Y-50902380D01*
X155285714Y-50854761D01*
X155238095Y-50807142D01*
G04 #@! TO.C,Q6*
X131904761Y-50997619D02*
X131809523Y-50950000D01*
X131714285Y-50854761D01*
X131571428Y-50711904D01*
X131476190Y-50664285D01*
X131380952Y-50664285D01*
X131428571Y-50902380D02*
X131333333Y-50854761D01*
X131238095Y-50759523D01*
X131190476Y-50569047D01*
X131190476Y-50235714D01*
X131238095Y-50045238D01*
X131333333Y-49950000D01*
X131428571Y-49902380D01*
X131619047Y-49902380D01*
X131714285Y-49950000D01*
X131809523Y-50045238D01*
X131857142Y-50235714D01*
X131857142Y-50569047D01*
X131809523Y-50759523D01*
X131714285Y-50854761D01*
X131619047Y-50902380D01*
X131428571Y-50902380D01*
X132714285Y-49902380D02*
X132523809Y-49902380D01*
X132428571Y-49950000D01*
X132380952Y-49997619D01*
X132285714Y-50140476D01*
X132238095Y-50330952D01*
X132238095Y-50711904D01*
X132285714Y-50807142D01*
X132333333Y-50854761D01*
X132428571Y-50902380D01*
X132619047Y-50902380D01*
X132714285Y-50854761D01*
X132761904Y-50807142D01*
X132809523Y-50711904D01*
X132809523Y-50473809D01*
X132761904Y-50378571D01*
X132714285Y-50330952D01*
X132619047Y-50283333D01*
X132428571Y-50283333D01*
X132333333Y-50330952D01*
X132285714Y-50378571D01*
X132238095Y-50473809D01*
G04 #@! TO.C,Q7*
X108904761Y-50997619D02*
X108809523Y-50950000D01*
X108714285Y-50854761D01*
X108571428Y-50711904D01*
X108476190Y-50664285D01*
X108380952Y-50664285D01*
X108428571Y-50902380D02*
X108333333Y-50854761D01*
X108238095Y-50759523D01*
X108190476Y-50569047D01*
X108190476Y-50235714D01*
X108238095Y-50045238D01*
X108333333Y-49950000D01*
X108428571Y-49902380D01*
X108619047Y-49902380D01*
X108714285Y-49950000D01*
X108809523Y-50045238D01*
X108857142Y-50235714D01*
X108857142Y-50569047D01*
X108809523Y-50759523D01*
X108714285Y-50854761D01*
X108619047Y-50902380D01*
X108428571Y-50902380D01*
X109190476Y-49902380D02*
X109857142Y-49902380D01*
X109428571Y-50902380D01*
G04 #@! TO.C,Q8*
X85904761Y-50997619D02*
X85809523Y-50950000D01*
X85714285Y-50854761D01*
X85571428Y-50711904D01*
X85476190Y-50664285D01*
X85380952Y-50664285D01*
X85428571Y-50902380D02*
X85333333Y-50854761D01*
X85238095Y-50759523D01*
X85190476Y-50569047D01*
X85190476Y-50235714D01*
X85238095Y-50045238D01*
X85333333Y-49950000D01*
X85428571Y-49902380D01*
X85619047Y-49902380D01*
X85714285Y-49950000D01*
X85809523Y-50045238D01*
X85857142Y-50235714D01*
X85857142Y-50569047D01*
X85809523Y-50759523D01*
X85714285Y-50854761D01*
X85619047Y-50902380D01*
X85428571Y-50902380D01*
X86428571Y-50330952D02*
X86333333Y-50283333D01*
X86285714Y-50235714D01*
X86238095Y-50140476D01*
X86238095Y-50092857D01*
X86285714Y-49997619D01*
X86333333Y-49950000D01*
X86428571Y-49902380D01*
X86619047Y-49902380D01*
X86714285Y-49950000D01*
X86761904Y-49997619D01*
X86809523Y-50092857D01*
X86809523Y-50140476D01*
X86761904Y-50235714D01*
X86714285Y-50283333D01*
X86619047Y-50330952D01*
X86428571Y-50330952D01*
X86333333Y-50378571D01*
X86285714Y-50426190D01*
X86238095Y-50521428D01*
X86238095Y-50711904D01*
X86285714Y-50807142D01*
X86333333Y-50854761D01*
X86428571Y-50902380D01*
X86619047Y-50902380D01*
X86714285Y-50854761D01*
X86761904Y-50807142D01*
X86809523Y-50711904D01*
X86809523Y-50521428D01*
X86761904Y-50426190D01*
X86714285Y-50378571D01*
X86619047Y-50330952D01*
G04 #@! TO.C,R2*
X132453333Y-99532380D02*
X132120000Y-99056190D01*
X131881904Y-99532380D02*
X131881904Y-98532380D01*
X132262857Y-98532380D01*
X132358095Y-98580000D01*
X132405714Y-98627619D01*
X132453333Y-98722857D01*
X132453333Y-98865714D01*
X132405714Y-98960952D01*
X132358095Y-99008571D01*
X132262857Y-99056190D01*
X131881904Y-99056190D01*
X132834285Y-98627619D02*
X132881904Y-98580000D01*
X132977142Y-98532380D01*
X133215238Y-98532380D01*
X133310476Y-98580000D01*
X133358095Y-98627619D01*
X133405714Y-98722857D01*
X133405714Y-98818095D01*
X133358095Y-98960952D01*
X132786666Y-99532380D01*
X133405714Y-99532380D01*
G04 #@! TO.C,R3*
X102833333Y-99452380D02*
X102500000Y-98976190D01*
X102261904Y-99452380D02*
X102261904Y-98452380D01*
X102642857Y-98452380D01*
X102738095Y-98500000D01*
X102785714Y-98547619D01*
X102833333Y-98642857D01*
X102833333Y-98785714D01*
X102785714Y-98880952D01*
X102738095Y-98928571D01*
X102642857Y-98976190D01*
X102261904Y-98976190D01*
X103166666Y-98452380D02*
X103785714Y-98452380D01*
X103452380Y-98833333D01*
X103595238Y-98833333D01*
X103690476Y-98880952D01*
X103738095Y-98928571D01*
X103785714Y-99023809D01*
X103785714Y-99261904D01*
X103738095Y-99357142D01*
X103690476Y-99404761D01*
X103595238Y-99452380D01*
X103309523Y-99452380D01*
X103214285Y-99404761D01*
X103166666Y-99357142D01*
G04 #@! TO.C,R4*
X120833333Y-100452380D02*
X120500000Y-99976190D01*
X120261904Y-100452380D02*
X120261904Y-99452380D01*
X120642857Y-99452380D01*
X120738095Y-99500000D01*
X120785714Y-99547619D01*
X120833333Y-99642857D01*
X120833333Y-99785714D01*
X120785714Y-99880952D01*
X120738095Y-99928571D01*
X120642857Y-99976190D01*
X120261904Y-99976190D01*
X121690476Y-99785714D02*
X121690476Y-100452380D01*
X121452380Y-99404761D02*
X121214285Y-100119047D01*
X121833333Y-100119047D01*
G04 #@! TO.C,R7*
X136964880Y-119166666D02*
X136488690Y-119500000D01*
X136964880Y-119738095D02*
X135964880Y-119738095D01*
X135964880Y-119357142D01*
X136012500Y-119261904D01*
X136060119Y-119214285D01*
X136155357Y-119166666D01*
X136298214Y-119166666D01*
X136393452Y-119214285D01*
X136441071Y-119261904D01*
X136488690Y-119357142D01*
X136488690Y-119738095D01*
X135964880Y-118833333D02*
X135964880Y-118166666D01*
X136964880Y-118595238D01*
G04 #@! TO.C,R8*
X82833333Y-108452380D02*
X82500000Y-107976190D01*
X82261904Y-108452380D02*
X82261904Y-107452380D01*
X82642857Y-107452380D01*
X82738095Y-107500000D01*
X82785714Y-107547619D01*
X82833333Y-107642857D01*
X82833333Y-107785714D01*
X82785714Y-107880952D01*
X82738095Y-107928571D01*
X82642857Y-107976190D01*
X82261904Y-107976190D01*
X83404761Y-107880952D02*
X83309523Y-107833333D01*
X83261904Y-107785714D01*
X83214285Y-107690476D01*
X83214285Y-107642857D01*
X83261904Y-107547619D01*
X83309523Y-107500000D01*
X83404761Y-107452380D01*
X83595238Y-107452380D01*
X83690476Y-107500000D01*
X83738095Y-107547619D01*
X83785714Y-107642857D01*
X83785714Y-107690476D01*
X83738095Y-107785714D01*
X83690476Y-107833333D01*
X83595238Y-107880952D01*
X83404761Y-107880952D01*
X83309523Y-107928571D01*
X83261904Y-107976190D01*
X83214285Y-108071428D01*
X83214285Y-108261904D01*
X83261904Y-108357142D01*
X83309523Y-108404761D01*
X83404761Y-108452380D01*
X83595238Y-108452380D01*
X83690476Y-108404761D01*
X83738095Y-108357142D01*
X83785714Y-108261904D01*
X83785714Y-108071428D01*
X83738095Y-107976190D01*
X83690476Y-107928571D01*
X83595238Y-107880952D01*
G04 #@! TO.C,R9*
X97833333Y-108952380D02*
X97500000Y-108476190D01*
X97261904Y-108952380D02*
X97261904Y-107952380D01*
X97642857Y-107952380D01*
X97738095Y-108000000D01*
X97785714Y-108047619D01*
X97833333Y-108142857D01*
X97833333Y-108285714D01*
X97785714Y-108380952D01*
X97738095Y-108428571D01*
X97642857Y-108476190D01*
X97261904Y-108476190D01*
X98309523Y-108952380D02*
X98500000Y-108952380D01*
X98595238Y-108904761D01*
X98642857Y-108857142D01*
X98738095Y-108714285D01*
X98785714Y-108523809D01*
X98785714Y-108142857D01*
X98738095Y-108047619D01*
X98690476Y-108000000D01*
X98595238Y-107952380D01*
X98404761Y-107952380D01*
X98309523Y-108000000D01*
X98261904Y-108047619D01*
X98214285Y-108142857D01*
X98214285Y-108380952D01*
X98261904Y-108476190D01*
X98309523Y-108523809D01*
X98404761Y-108571428D01*
X98595238Y-108571428D01*
X98690476Y-108523809D01*
X98738095Y-108476190D01*
X98785714Y-108380952D01*
G04 #@! TO.C,R10*
X100357142Y-108952380D02*
X100023809Y-108476190D01*
X99785714Y-108952380D02*
X99785714Y-107952380D01*
X100166666Y-107952380D01*
X100261904Y-108000000D01*
X100309523Y-108047619D01*
X100357142Y-108142857D01*
X100357142Y-108285714D01*
X100309523Y-108380952D01*
X100261904Y-108428571D01*
X100166666Y-108476190D01*
X99785714Y-108476190D01*
X101309523Y-108952380D02*
X100738095Y-108952380D01*
X101023809Y-108952380D02*
X101023809Y-107952380D01*
X100928571Y-108095238D01*
X100833333Y-108190476D01*
X100738095Y-108238095D01*
X101928571Y-107952380D02*
X102023809Y-107952380D01*
X102119047Y-108000000D01*
X102166666Y-108047619D01*
X102214285Y-108142857D01*
X102261904Y-108333333D01*
X102261904Y-108571428D01*
X102214285Y-108761904D01*
X102166666Y-108857142D01*
X102119047Y-108904761D01*
X102023809Y-108952380D01*
X101928571Y-108952380D01*
X101833333Y-108904761D01*
X101785714Y-108857142D01*
X101738095Y-108761904D01*
X101690476Y-108571428D01*
X101690476Y-108333333D01*
X101738095Y-108142857D01*
X101785714Y-108047619D01*
X101833333Y-108000000D01*
X101928571Y-107952380D01*
G04 #@! TO.C,R11*
X103357142Y-108952380D02*
X103023809Y-108476190D01*
X102785714Y-108952380D02*
X102785714Y-107952380D01*
X103166666Y-107952380D01*
X103261904Y-108000000D01*
X103309523Y-108047619D01*
X103357142Y-108142857D01*
X103357142Y-108285714D01*
X103309523Y-108380952D01*
X103261904Y-108428571D01*
X103166666Y-108476190D01*
X102785714Y-108476190D01*
X104309523Y-108952380D02*
X103738095Y-108952380D01*
X104023809Y-108952380D02*
X104023809Y-107952380D01*
X103928571Y-108095238D01*
X103833333Y-108190476D01*
X103738095Y-108238095D01*
X105261904Y-108952380D02*
X104690476Y-108952380D01*
X104976190Y-108952380D02*
X104976190Y-107952380D01*
X104880952Y-108095238D01*
X104785714Y-108190476D01*
X104690476Y-108238095D01*
G04 #@! TO.C,U2*
X90238095Y-106452380D02*
X90238095Y-107261904D01*
X90285714Y-107357142D01*
X90333333Y-107404761D01*
X90428571Y-107452380D01*
X90619047Y-107452380D01*
X90714285Y-107404761D01*
X90761904Y-107357142D01*
X90809523Y-107261904D01*
X90809523Y-106452380D01*
X91238095Y-106547619D02*
X91285714Y-106500000D01*
X91380952Y-106452380D01*
X91619047Y-106452380D01*
X91714285Y-106500000D01*
X91761904Y-106547619D01*
X91809523Y-106642857D01*
X91809523Y-106738095D01*
X91761904Y-106880952D01*
X91190476Y-107452380D01*
X91809523Y-107452380D01*
G04 #@! TO.C,U3*
X136238095Y-123452380D02*
X136238095Y-124261904D01*
X136285714Y-124357142D01*
X136333333Y-124404761D01*
X136428571Y-124452380D01*
X136619047Y-124452380D01*
X136714285Y-124404761D01*
X136761904Y-124357142D01*
X136809523Y-124261904D01*
X136809523Y-123452380D01*
X137190476Y-123452380D02*
X137809523Y-123452380D01*
X137476190Y-123833333D01*
X137619047Y-123833333D01*
X137714285Y-123880952D01*
X137761904Y-123928571D01*
X137809523Y-124023809D01*
X137809523Y-124261904D01*
X137761904Y-124357142D01*
X137714285Y-124404761D01*
X137619047Y-124452380D01*
X137333333Y-124452380D01*
X137238095Y-124404761D01*
X137190476Y-124357142D01*
G04 #@! TO.C,Y1*
X89963809Y-117976190D02*
X89963809Y-118452380D01*
X89630476Y-117452380D02*
X89963809Y-117976190D01*
X90297142Y-117452380D01*
X91154285Y-118452380D02*
X90582857Y-118452380D01*
X90868571Y-118452380D02*
X90868571Y-117452380D01*
X90773333Y-117595238D01*
X90678095Y-117690476D01*
X90582857Y-117738095D01*
G04 #@! TO.C,C14*
X143357142Y-112357142D02*
X143309523Y-112404761D01*
X143166666Y-112452380D01*
X143071428Y-112452380D01*
X142928571Y-112404761D01*
X142833333Y-112309523D01*
X142785714Y-112214285D01*
X142738095Y-112023809D01*
X142738095Y-111880952D01*
X142785714Y-111690476D01*
X142833333Y-111595238D01*
X142928571Y-111500000D01*
X143071428Y-111452380D01*
X143166666Y-111452380D01*
X143309523Y-111500000D01*
X143357142Y-111547619D01*
X144309523Y-112452380D02*
X143738095Y-112452380D01*
X144023809Y-112452380D02*
X144023809Y-111452380D01*
X143928571Y-111595238D01*
X143833333Y-111690476D01*
X143738095Y-111738095D01*
X145166666Y-111785714D02*
X145166666Y-112452380D01*
X144928571Y-111404761D02*
X144690476Y-112119047D01*
X145309523Y-112119047D01*
G04 #@! TO.C,U1*
D17*
X118544380Y-102593123D02*
X118544380Y-103111219D01*
X118574857Y-103172171D01*
X118605333Y-103202647D01*
X118666285Y-103233123D01*
X118788190Y-103233123D01*
X118849142Y-103202647D01*
X118879619Y-103172171D01*
X118910095Y-103111219D01*
X118910095Y-102593123D01*
X119550095Y-103233123D02*
X119184380Y-103233123D01*
X119367238Y-103233123D02*
X119367238Y-102593123D01*
X119306285Y-102684552D01*
X119245333Y-102745504D01*
X119184380Y-102775980D01*
G04 #@! TD*
M02*
