G04 #@! TF.GenerationSoftware,KiCad,Pcbnew,(5.0.1)-3*
G04 #@! TF.CreationDate,2021-05-27T11:26:18+02:00*
G04 #@! TF.ProjectId,mega328 400w load,6D6567613332382034303077206C6F61,rev?*
G04 #@! TF.SameCoordinates,Original*
G04 #@! TF.FileFunction,Paste,Top*
G04 #@! TF.FilePolarity,Positive*
%FSLAX46Y46*%
G04 Gerber Fmt 4.6, Leading zero omitted, Abs format (unit mm)*
G04 Created by KiCad (PCBNEW (5.0.1)-3) date 27/05/2021 11:26:18*
%MOMM*%
%LPD*%
G01*
G04 APERTURE LIST*
%ADD10C,0.050800*%
%ADD11C,1.150000*%
%ADD12R,1.200000X0.900000*%
%ADD13C,1.425000*%
%ADD14R,0.550000X1.600000*%
%ADD15R,1.600000X0.550000*%
%ADD16R,2.200000X1.200000*%
%ADD17R,3.050000X2.750000*%
%ADD18R,1.190000X0.400000*%
G04 APERTURE END LIST*
D10*
G04 #@! TO.C,C1*
G36*
X94374505Y-99301204D02*
X94398773Y-99304804D01*
X94422572Y-99310765D01*
X94445671Y-99319030D01*
X94467850Y-99329520D01*
X94488893Y-99342132D01*
X94508599Y-99356747D01*
X94526777Y-99373223D01*
X94543253Y-99391401D01*
X94557868Y-99411107D01*
X94570480Y-99432150D01*
X94580970Y-99454329D01*
X94589235Y-99477428D01*
X94595196Y-99501227D01*
X94598796Y-99525495D01*
X94600000Y-99549999D01*
X94600000Y-100450001D01*
X94598796Y-100474505D01*
X94595196Y-100498773D01*
X94589235Y-100522572D01*
X94580970Y-100545671D01*
X94570480Y-100567850D01*
X94557868Y-100588893D01*
X94543253Y-100608599D01*
X94526777Y-100626777D01*
X94508599Y-100643253D01*
X94488893Y-100657868D01*
X94467850Y-100670480D01*
X94445671Y-100680970D01*
X94422572Y-100689235D01*
X94398773Y-100695196D01*
X94374505Y-100698796D01*
X94350001Y-100700000D01*
X93699999Y-100700000D01*
X93675495Y-100698796D01*
X93651227Y-100695196D01*
X93627428Y-100689235D01*
X93604329Y-100680970D01*
X93582150Y-100670480D01*
X93561107Y-100657868D01*
X93541401Y-100643253D01*
X93523223Y-100626777D01*
X93506747Y-100608599D01*
X93492132Y-100588893D01*
X93479520Y-100567850D01*
X93469030Y-100545671D01*
X93460765Y-100522572D01*
X93454804Y-100498773D01*
X93451204Y-100474505D01*
X93450000Y-100450001D01*
X93450000Y-99549999D01*
X93451204Y-99525495D01*
X93454804Y-99501227D01*
X93460765Y-99477428D01*
X93469030Y-99454329D01*
X93479520Y-99432150D01*
X93492132Y-99411107D01*
X93506747Y-99391401D01*
X93523223Y-99373223D01*
X93541401Y-99356747D01*
X93561107Y-99342132D01*
X93582150Y-99329520D01*
X93604329Y-99319030D01*
X93627428Y-99310765D01*
X93651227Y-99304804D01*
X93675495Y-99301204D01*
X93699999Y-99300000D01*
X94350001Y-99300000D01*
X94374505Y-99301204D01*
X94374505Y-99301204D01*
G37*
D11*
X94025000Y-100000000D03*
D10*
G36*
X92324505Y-99301204D02*
X92348773Y-99304804D01*
X92372572Y-99310765D01*
X92395671Y-99319030D01*
X92417850Y-99329520D01*
X92438893Y-99342132D01*
X92458599Y-99356747D01*
X92476777Y-99373223D01*
X92493253Y-99391401D01*
X92507868Y-99411107D01*
X92520480Y-99432150D01*
X92530970Y-99454329D01*
X92539235Y-99477428D01*
X92545196Y-99501227D01*
X92548796Y-99525495D01*
X92550000Y-99549999D01*
X92550000Y-100450001D01*
X92548796Y-100474505D01*
X92545196Y-100498773D01*
X92539235Y-100522572D01*
X92530970Y-100545671D01*
X92520480Y-100567850D01*
X92507868Y-100588893D01*
X92493253Y-100608599D01*
X92476777Y-100626777D01*
X92458599Y-100643253D01*
X92438893Y-100657868D01*
X92417850Y-100670480D01*
X92395671Y-100680970D01*
X92372572Y-100689235D01*
X92348773Y-100695196D01*
X92324505Y-100698796D01*
X92300001Y-100700000D01*
X91649999Y-100700000D01*
X91625495Y-100698796D01*
X91601227Y-100695196D01*
X91577428Y-100689235D01*
X91554329Y-100680970D01*
X91532150Y-100670480D01*
X91511107Y-100657868D01*
X91491401Y-100643253D01*
X91473223Y-100626777D01*
X91456747Y-100608599D01*
X91442132Y-100588893D01*
X91429520Y-100567850D01*
X91419030Y-100545671D01*
X91410765Y-100522572D01*
X91404804Y-100498773D01*
X91401204Y-100474505D01*
X91400000Y-100450001D01*
X91400000Y-99549999D01*
X91401204Y-99525495D01*
X91404804Y-99501227D01*
X91410765Y-99477428D01*
X91419030Y-99454329D01*
X91429520Y-99432150D01*
X91442132Y-99411107D01*
X91456747Y-99391401D01*
X91473223Y-99373223D01*
X91491401Y-99356747D01*
X91511107Y-99342132D01*
X91532150Y-99329520D01*
X91554329Y-99319030D01*
X91577428Y-99310765D01*
X91601227Y-99304804D01*
X91625495Y-99301204D01*
X91649999Y-99300000D01*
X92300001Y-99300000D01*
X92324505Y-99301204D01*
X92324505Y-99301204D01*
G37*
D11*
X91975000Y-100000000D03*
G04 #@! TD*
D10*
G04 #@! TO.C,C3*
G36*
X118474505Y-98401204D02*
X118498773Y-98404804D01*
X118522572Y-98410765D01*
X118545671Y-98419030D01*
X118567850Y-98429520D01*
X118588893Y-98442132D01*
X118608599Y-98456747D01*
X118626777Y-98473223D01*
X118643253Y-98491401D01*
X118657868Y-98511107D01*
X118670480Y-98532150D01*
X118680970Y-98554329D01*
X118689235Y-98577428D01*
X118695196Y-98601227D01*
X118698796Y-98625495D01*
X118700000Y-98649999D01*
X118700000Y-99300001D01*
X118698796Y-99324505D01*
X118695196Y-99348773D01*
X118689235Y-99372572D01*
X118680970Y-99395671D01*
X118670480Y-99417850D01*
X118657868Y-99438893D01*
X118643253Y-99458599D01*
X118626777Y-99476777D01*
X118608599Y-99493253D01*
X118588893Y-99507868D01*
X118567850Y-99520480D01*
X118545671Y-99530970D01*
X118522572Y-99539235D01*
X118498773Y-99545196D01*
X118474505Y-99548796D01*
X118450001Y-99550000D01*
X117549999Y-99550000D01*
X117525495Y-99548796D01*
X117501227Y-99545196D01*
X117477428Y-99539235D01*
X117454329Y-99530970D01*
X117432150Y-99520480D01*
X117411107Y-99507868D01*
X117391401Y-99493253D01*
X117373223Y-99476777D01*
X117356747Y-99458599D01*
X117342132Y-99438893D01*
X117329520Y-99417850D01*
X117319030Y-99395671D01*
X117310765Y-99372572D01*
X117304804Y-99348773D01*
X117301204Y-99324505D01*
X117300000Y-99300001D01*
X117300000Y-98649999D01*
X117301204Y-98625495D01*
X117304804Y-98601227D01*
X117310765Y-98577428D01*
X117319030Y-98554329D01*
X117329520Y-98532150D01*
X117342132Y-98511107D01*
X117356747Y-98491401D01*
X117373223Y-98473223D01*
X117391401Y-98456747D01*
X117411107Y-98442132D01*
X117432150Y-98429520D01*
X117454329Y-98419030D01*
X117477428Y-98410765D01*
X117501227Y-98404804D01*
X117525495Y-98401204D01*
X117549999Y-98400000D01*
X118450001Y-98400000D01*
X118474505Y-98401204D01*
X118474505Y-98401204D01*
G37*
D11*
X118000000Y-98975000D03*
D10*
G36*
X118474505Y-100451204D02*
X118498773Y-100454804D01*
X118522572Y-100460765D01*
X118545671Y-100469030D01*
X118567850Y-100479520D01*
X118588893Y-100492132D01*
X118608599Y-100506747D01*
X118626777Y-100523223D01*
X118643253Y-100541401D01*
X118657868Y-100561107D01*
X118670480Y-100582150D01*
X118680970Y-100604329D01*
X118689235Y-100627428D01*
X118695196Y-100651227D01*
X118698796Y-100675495D01*
X118700000Y-100699999D01*
X118700000Y-101350001D01*
X118698796Y-101374505D01*
X118695196Y-101398773D01*
X118689235Y-101422572D01*
X118680970Y-101445671D01*
X118670480Y-101467850D01*
X118657868Y-101488893D01*
X118643253Y-101508599D01*
X118626777Y-101526777D01*
X118608599Y-101543253D01*
X118588893Y-101557868D01*
X118567850Y-101570480D01*
X118545671Y-101580970D01*
X118522572Y-101589235D01*
X118498773Y-101595196D01*
X118474505Y-101598796D01*
X118450001Y-101600000D01*
X117549999Y-101600000D01*
X117525495Y-101598796D01*
X117501227Y-101595196D01*
X117477428Y-101589235D01*
X117454329Y-101580970D01*
X117432150Y-101570480D01*
X117411107Y-101557868D01*
X117391401Y-101543253D01*
X117373223Y-101526777D01*
X117356747Y-101508599D01*
X117342132Y-101488893D01*
X117329520Y-101467850D01*
X117319030Y-101445671D01*
X117310765Y-101422572D01*
X117304804Y-101398773D01*
X117301204Y-101374505D01*
X117300000Y-101350001D01*
X117300000Y-100699999D01*
X117301204Y-100675495D01*
X117304804Y-100651227D01*
X117310765Y-100627428D01*
X117319030Y-100604329D01*
X117329520Y-100582150D01*
X117342132Y-100561107D01*
X117356747Y-100541401D01*
X117373223Y-100523223D01*
X117391401Y-100506747D01*
X117411107Y-100492132D01*
X117432150Y-100479520D01*
X117454329Y-100469030D01*
X117477428Y-100460765D01*
X117501227Y-100454804D01*
X117525495Y-100451204D01*
X117549999Y-100450000D01*
X118450001Y-100450000D01*
X118474505Y-100451204D01*
X118474505Y-100451204D01*
G37*
D11*
X118000000Y-101025000D03*
G04 #@! TD*
D10*
G04 #@! TO.C,C4*
G36*
X87324505Y-121301204D02*
X87348773Y-121304804D01*
X87372572Y-121310765D01*
X87395671Y-121319030D01*
X87417850Y-121329520D01*
X87438893Y-121342132D01*
X87458599Y-121356747D01*
X87476777Y-121373223D01*
X87493253Y-121391401D01*
X87507868Y-121411107D01*
X87520480Y-121432150D01*
X87530970Y-121454329D01*
X87539235Y-121477428D01*
X87545196Y-121501227D01*
X87548796Y-121525495D01*
X87550000Y-121549999D01*
X87550000Y-122450001D01*
X87548796Y-122474505D01*
X87545196Y-122498773D01*
X87539235Y-122522572D01*
X87530970Y-122545671D01*
X87520480Y-122567850D01*
X87507868Y-122588893D01*
X87493253Y-122608599D01*
X87476777Y-122626777D01*
X87458599Y-122643253D01*
X87438893Y-122657868D01*
X87417850Y-122670480D01*
X87395671Y-122680970D01*
X87372572Y-122689235D01*
X87348773Y-122695196D01*
X87324505Y-122698796D01*
X87300001Y-122700000D01*
X86649999Y-122700000D01*
X86625495Y-122698796D01*
X86601227Y-122695196D01*
X86577428Y-122689235D01*
X86554329Y-122680970D01*
X86532150Y-122670480D01*
X86511107Y-122657868D01*
X86491401Y-122643253D01*
X86473223Y-122626777D01*
X86456747Y-122608599D01*
X86442132Y-122588893D01*
X86429520Y-122567850D01*
X86419030Y-122545671D01*
X86410765Y-122522572D01*
X86404804Y-122498773D01*
X86401204Y-122474505D01*
X86400000Y-122450001D01*
X86400000Y-121549999D01*
X86401204Y-121525495D01*
X86404804Y-121501227D01*
X86410765Y-121477428D01*
X86419030Y-121454329D01*
X86429520Y-121432150D01*
X86442132Y-121411107D01*
X86456747Y-121391401D01*
X86473223Y-121373223D01*
X86491401Y-121356747D01*
X86511107Y-121342132D01*
X86532150Y-121329520D01*
X86554329Y-121319030D01*
X86577428Y-121310765D01*
X86601227Y-121304804D01*
X86625495Y-121301204D01*
X86649999Y-121300000D01*
X87300001Y-121300000D01*
X87324505Y-121301204D01*
X87324505Y-121301204D01*
G37*
D11*
X86975000Y-122000000D03*
D10*
G36*
X89374505Y-121301204D02*
X89398773Y-121304804D01*
X89422572Y-121310765D01*
X89445671Y-121319030D01*
X89467850Y-121329520D01*
X89488893Y-121342132D01*
X89508599Y-121356747D01*
X89526777Y-121373223D01*
X89543253Y-121391401D01*
X89557868Y-121411107D01*
X89570480Y-121432150D01*
X89580970Y-121454329D01*
X89589235Y-121477428D01*
X89595196Y-121501227D01*
X89598796Y-121525495D01*
X89600000Y-121549999D01*
X89600000Y-122450001D01*
X89598796Y-122474505D01*
X89595196Y-122498773D01*
X89589235Y-122522572D01*
X89580970Y-122545671D01*
X89570480Y-122567850D01*
X89557868Y-122588893D01*
X89543253Y-122608599D01*
X89526777Y-122626777D01*
X89508599Y-122643253D01*
X89488893Y-122657868D01*
X89467850Y-122670480D01*
X89445671Y-122680970D01*
X89422572Y-122689235D01*
X89398773Y-122695196D01*
X89374505Y-122698796D01*
X89350001Y-122700000D01*
X88699999Y-122700000D01*
X88675495Y-122698796D01*
X88651227Y-122695196D01*
X88627428Y-122689235D01*
X88604329Y-122680970D01*
X88582150Y-122670480D01*
X88561107Y-122657868D01*
X88541401Y-122643253D01*
X88523223Y-122626777D01*
X88506747Y-122608599D01*
X88492132Y-122588893D01*
X88479520Y-122567850D01*
X88469030Y-122545671D01*
X88460765Y-122522572D01*
X88454804Y-122498773D01*
X88451204Y-122474505D01*
X88450000Y-122450001D01*
X88450000Y-121549999D01*
X88451204Y-121525495D01*
X88454804Y-121501227D01*
X88460765Y-121477428D01*
X88469030Y-121454329D01*
X88479520Y-121432150D01*
X88492132Y-121411107D01*
X88506747Y-121391401D01*
X88523223Y-121373223D01*
X88541401Y-121356747D01*
X88561107Y-121342132D01*
X88582150Y-121329520D01*
X88604329Y-121319030D01*
X88627428Y-121310765D01*
X88651227Y-121304804D01*
X88675495Y-121301204D01*
X88699999Y-121300000D01*
X89350001Y-121300000D01*
X89374505Y-121301204D01*
X89374505Y-121301204D01*
G37*
D11*
X89025000Y-122000000D03*
G04 #@! TD*
D10*
G04 #@! TO.C,C5*
G36*
X100474505Y-99451204D02*
X100498773Y-99454804D01*
X100522572Y-99460765D01*
X100545671Y-99469030D01*
X100567850Y-99479520D01*
X100588893Y-99492132D01*
X100608599Y-99506747D01*
X100626777Y-99523223D01*
X100643253Y-99541401D01*
X100657868Y-99561107D01*
X100670480Y-99582150D01*
X100680970Y-99604329D01*
X100689235Y-99627428D01*
X100695196Y-99651227D01*
X100698796Y-99675495D01*
X100700000Y-99699999D01*
X100700000Y-100350001D01*
X100698796Y-100374505D01*
X100695196Y-100398773D01*
X100689235Y-100422572D01*
X100680970Y-100445671D01*
X100670480Y-100467850D01*
X100657868Y-100488893D01*
X100643253Y-100508599D01*
X100626777Y-100526777D01*
X100608599Y-100543253D01*
X100588893Y-100557868D01*
X100567850Y-100570480D01*
X100545671Y-100580970D01*
X100522572Y-100589235D01*
X100498773Y-100595196D01*
X100474505Y-100598796D01*
X100450001Y-100600000D01*
X99549999Y-100600000D01*
X99525495Y-100598796D01*
X99501227Y-100595196D01*
X99477428Y-100589235D01*
X99454329Y-100580970D01*
X99432150Y-100570480D01*
X99411107Y-100557868D01*
X99391401Y-100543253D01*
X99373223Y-100526777D01*
X99356747Y-100508599D01*
X99342132Y-100488893D01*
X99329520Y-100467850D01*
X99319030Y-100445671D01*
X99310765Y-100422572D01*
X99304804Y-100398773D01*
X99301204Y-100374505D01*
X99300000Y-100350001D01*
X99300000Y-99699999D01*
X99301204Y-99675495D01*
X99304804Y-99651227D01*
X99310765Y-99627428D01*
X99319030Y-99604329D01*
X99329520Y-99582150D01*
X99342132Y-99561107D01*
X99356747Y-99541401D01*
X99373223Y-99523223D01*
X99391401Y-99506747D01*
X99411107Y-99492132D01*
X99432150Y-99479520D01*
X99454329Y-99469030D01*
X99477428Y-99460765D01*
X99501227Y-99454804D01*
X99525495Y-99451204D01*
X99549999Y-99450000D01*
X100450001Y-99450000D01*
X100474505Y-99451204D01*
X100474505Y-99451204D01*
G37*
D11*
X100000000Y-100025000D03*
D10*
G36*
X100474505Y-97401204D02*
X100498773Y-97404804D01*
X100522572Y-97410765D01*
X100545671Y-97419030D01*
X100567850Y-97429520D01*
X100588893Y-97442132D01*
X100608599Y-97456747D01*
X100626777Y-97473223D01*
X100643253Y-97491401D01*
X100657868Y-97511107D01*
X100670480Y-97532150D01*
X100680970Y-97554329D01*
X100689235Y-97577428D01*
X100695196Y-97601227D01*
X100698796Y-97625495D01*
X100700000Y-97649999D01*
X100700000Y-98300001D01*
X100698796Y-98324505D01*
X100695196Y-98348773D01*
X100689235Y-98372572D01*
X100680970Y-98395671D01*
X100670480Y-98417850D01*
X100657868Y-98438893D01*
X100643253Y-98458599D01*
X100626777Y-98476777D01*
X100608599Y-98493253D01*
X100588893Y-98507868D01*
X100567850Y-98520480D01*
X100545671Y-98530970D01*
X100522572Y-98539235D01*
X100498773Y-98545196D01*
X100474505Y-98548796D01*
X100450001Y-98550000D01*
X99549999Y-98550000D01*
X99525495Y-98548796D01*
X99501227Y-98545196D01*
X99477428Y-98539235D01*
X99454329Y-98530970D01*
X99432150Y-98520480D01*
X99411107Y-98507868D01*
X99391401Y-98493253D01*
X99373223Y-98476777D01*
X99356747Y-98458599D01*
X99342132Y-98438893D01*
X99329520Y-98417850D01*
X99319030Y-98395671D01*
X99310765Y-98372572D01*
X99304804Y-98348773D01*
X99301204Y-98324505D01*
X99300000Y-98300001D01*
X99300000Y-97649999D01*
X99301204Y-97625495D01*
X99304804Y-97601227D01*
X99310765Y-97577428D01*
X99319030Y-97554329D01*
X99329520Y-97532150D01*
X99342132Y-97511107D01*
X99356747Y-97491401D01*
X99373223Y-97473223D01*
X99391401Y-97456747D01*
X99411107Y-97442132D01*
X99432150Y-97429520D01*
X99454329Y-97419030D01*
X99477428Y-97410765D01*
X99501227Y-97404804D01*
X99525495Y-97401204D01*
X99549999Y-97400000D01*
X100450001Y-97400000D01*
X100474505Y-97401204D01*
X100474505Y-97401204D01*
G37*
D11*
X100000000Y-97975000D03*
G04 #@! TD*
D10*
G04 #@! TO.C,C6*
G36*
X92324505Y-121301204D02*
X92348773Y-121304804D01*
X92372572Y-121310765D01*
X92395671Y-121319030D01*
X92417850Y-121329520D01*
X92438893Y-121342132D01*
X92458599Y-121356747D01*
X92476777Y-121373223D01*
X92493253Y-121391401D01*
X92507868Y-121411107D01*
X92520480Y-121432150D01*
X92530970Y-121454329D01*
X92539235Y-121477428D01*
X92545196Y-121501227D01*
X92548796Y-121525495D01*
X92550000Y-121549999D01*
X92550000Y-122450001D01*
X92548796Y-122474505D01*
X92545196Y-122498773D01*
X92539235Y-122522572D01*
X92530970Y-122545671D01*
X92520480Y-122567850D01*
X92507868Y-122588893D01*
X92493253Y-122608599D01*
X92476777Y-122626777D01*
X92458599Y-122643253D01*
X92438893Y-122657868D01*
X92417850Y-122670480D01*
X92395671Y-122680970D01*
X92372572Y-122689235D01*
X92348773Y-122695196D01*
X92324505Y-122698796D01*
X92300001Y-122700000D01*
X91649999Y-122700000D01*
X91625495Y-122698796D01*
X91601227Y-122695196D01*
X91577428Y-122689235D01*
X91554329Y-122680970D01*
X91532150Y-122670480D01*
X91511107Y-122657868D01*
X91491401Y-122643253D01*
X91473223Y-122626777D01*
X91456747Y-122608599D01*
X91442132Y-122588893D01*
X91429520Y-122567850D01*
X91419030Y-122545671D01*
X91410765Y-122522572D01*
X91404804Y-122498773D01*
X91401204Y-122474505D01*
X91400000Y-122450001D01*
X91400000Y-121549999D01*
X91401204Y-121525495D01*
X91404804Y-121501227D01*
X91410765Y-121477428D01*
X91419030Y-121454329D01*
X91429520Y-121432150D01*
X91442132Y-121411107D01*
X91456747Y-121391401D01*
X91473223Y-121373223D01*
X91491401Y-121356747D01*
X91511107Y-121342132D01*
X91532150Y-121329520D01*
X91554329Y-121319030D01*
X91577428Y-121310765D01*
X91601227Y-121304804D01*
X91625495Y-121301204D01*
X91649999Y-121300000D01*
X92300001Y-121300000D01*
X92324505Y-121301204D01*
X92324505Y-121301204D01*
G37*
D11*
X91975000Y-122000000D03*
D10*
G36*
X94374505Y-121301204D02*
X94398773Y-121304804D01*
X94422572Y-121310765D01*
X94445671Y-121319030D01*
X94467850Y-121329520D01*
X94488893Y-121342132D01*
X94508599Y-121356747D01*
X94526777Y-121373223D01*
X94543253Y-121391401D01*
X94557868Y-121411107D01*
X94570480Y-121432150D01*
X94580970Y-121454329D01*
X94589235Y-121477428D01*
X94595196Y-121501227D01*
X94598796Y-121525495D01*
X94600000Y-121549999D01*
X94600000Y-122450001D01*
X94598796Y-122474505D01*
X94595196Y-122498773D01*
X94589235Y-122522572D01*
X94580970Y-122545671D01*
X94570480Y-122567850D01*
X94557868Y-122588893D01*
X94543253Y-122608599D01*
X94526777Y-122626777D01*
X94508599Y-122643253D01*
X94488893Y-122657868D01*
X94467850Y-122670480D01*
X94445671Y-122680970D01*
X94422572Y-122689235D01*
X94398773Y-122695196D01*
X94374505Y-122698796D01*
X94350001Y-122700000D01*
X93699999Y-122700000D01*
X93675495Y-122698796D01*
X93651227Y-122695196D01*
X93627428Y-122689235D01*
X93604329Y-122680970D01*
X93582150Y-122670480D01*
X93561107Y-122657868D01*
X93541401Y-122643253D01*
X93523223Y-122626777D01*
X93506747Y-122608599D01*
X93492132Y-122588893D01*
X93479520Y-122567850D01*
X93469030Y-122545671D01*
X93460765Y-122522572D01*
X93454804Y-122498773D01*
X93451204Y-122474505D01*
X93450000Y-122450001D01*
X93450000Y-121549999D01*
X93451204Y-121525495D01*
X93454804Y-121501227D01*
X93460765Y-121477428D01*
X93469030Y-121454329D01*
X93479520Y-121432150D01*
X93492132Y-121411107D01*
X93506747Y-121391401D01*
X93523223Y-121373223D01*
X93541401Y-121356747D01*
X93561107Y-121342132D01*
X93582150Y-121329520D01*
X93604329Y-121319030D01*
X93627428Y-121310765D01*
X93651227Y-121304804D01*
X93675495Y-121301204D01*
X93699999Y-121300000D01*
X94350001Y-121300000D01*
X94374505Y-121301204D01*
X94374505Y-121301204D01*
G37*
D11*
X94025000Y-122000000D03*
G04 #@! TD*
D10*
G04 #@! TO.C,C7*
G36*
X80474505Y-112401204D02*
X80498773Y-112404804D01*
X80522572Y-112410765D01*
X80545671Y-112419030D01*
X80567850Y-112429520D01*
X80588893Y-112442132D01*
X80608599Y-112456747D01*
X80626777Y-112473223D01*
X80643253Y-112491401D01*
X80657868Y-112511107D01*
X80670480Y-112532150D01*
X80680970Y-112554329D01*
X80689235Y-112577428D01*
X80695196Y-112601227D01*
X80698796Y-112625495D01*
X80700000Y-112649999D01*
X80700000Y-113300001D01*
X80698796Y-113324505D01*
X80695196Y-113348773D01*
X80689235Y-113372572D01*
X80680970Y-113395671D01*
X80670480Y-113417850D01*
X80657868Y-113438893D01*
X80643253Y-113458599D01*
X80626777Y-113476777D01*
X80608599Y-113493253D01*
X80588893Y-113507868D01*
X80567850Y-113520480D01*
X80545671Y-113530970D01*
X80522572Y-113539235D01*
X80498773Y-113545196D01*
X80474505Y-113548796D01*
X80450001Y-113550000D01*
X79549999Y-113550000D01*
X79525495Y-113548796D01*
X79501227Y-113545196D01*
X79477428Y-113539235D01*
X79454329Y-113530970D01*
X79432150Y-113520480D01*
X79411107Y-113507868D01*
X79391401Y-113493253D01*
X79373223Y-113476777D01*
X79356747Y-113458599D01*
X79342132Y-113438893D01*
X79329520Y-113417850D01*
X79319030Y-113395671D01*
X79310765Y-113372572D01*
X79304804Y-113348773D01*
X79301204Y-113324505D01*
X79300000Y-113300001D01*
X79300000Y-112649999D01*
X79301204Y-112625495D01*
X79304804Y-112601227D01*
X79310765Y-112577428D01*
X79319030Y-112554329D01*
X79329520Y-112532150D01*
X79342132Y-112511107D01*
X79356747Y-112491401D01*
X79373223Y-112473223D01*
X79391401Y-112456747D01*
X79411107Y-112442132D01*
X79432150Y-112429520D01*
X79454329Y-112419030D01*
X79477428Y-112410765D01*
X79501227Y-112404804D01*
X79525495Y-112401204D01*
X79549999Y-112400000D01*
X80450001Y-112400000D01*
X80474505Y-112401204D01*
X80474505Y-112401204D01*
G37*
D11*
X80000000Y-112975000D03*
D10*
G36*
X80474505Y-114451204D02*
X80498773Y-114454804D01*
X80522572Y-114460765D01*
X80545671Y-114469030D01*
X80567850Y-114479520D01*
X80588893Y-114492132D01*
X80608599Y-114506747D01*
X80626777Y-114523223D01*
X80643253Y-114541401D01*
X80657868Y-114561107D01*
X80670480Y-114582150D01*
X80680970Y-114604329D01*
X80689235Y-114627428D01*
X80695196Y-114651227D01*
X80698796Y-114675495D01*
X80700000Y-114699999D01*
X80700000Y-115350001D01*
X80698796Y-115374505D01*
X80695196Y-115398773D01*
X80689235Y-115422572D01*
X80680970Y-115445671D01*
X80670480Y-115467850D01*
X80657868Y-115488893D01*
X80643253Y-115508599D01*
X80626777Y-115526777D01*
X80608599Y-115543253D01*
X80588893Y-115557868D01*
X80567850Y-115570480D01*
X80545671Y-115580970D01*
X80522572Y-115589235D01*
X80498773Y-115595196D01*
X80474505Y-115598796D01*
X80450001Y-115600000D01*
X79549999Y-115600000D01*
X79525495Y-115598796D01*
X79501227Y-115595196D01*
X79477428Y-115589235D01*
X79454329Y-115580970D01*
X79432150Y-115570480D01*
X79411107Y-115557868D01*
X79391401Y-115543253D01*
X79373223Y-115526777D01*
X79356747Y-115508599D01*
X79342132Y-115488893D01*
X79329520Y-115467850D01*
X79319030Y-115445671D01*
X79310765Y-115422572D01*
X79304804Y-115398773D01*
X79301204Y-115374505D01*
X79300000Y-115350001D01*
X79300000Y-114699999D01*
X79301204Y-114675495D01*
X79304804Y-114651227D01*
X79310765Y-114627428D01*
X79319030Y-114604329D01*
X79329520Y-114582150D01*
X79342132Y-114561107D01*
X79356747Y-114541401D01*
X79373223Y-114523223D01*
X79391401Y-114506747D01*
X79411107Y-114492132D01*
X79432150Y-114479520D01*
X79454329Y-114469030D01*
X79477428Y-114460765D01*
X79501227Y-114454804D01*
X79525495Y-114451204D01*
X79549999Y-114450000D01*
X80450001Y-114450000D01*
X80474505Y-114451204D01*
X80474505Y-114451204D01*
G37*
D11*
X80000000Y-115025000D03*
G04 #@! TD*
D10*
G04 #@! TO.C,C9*
G36*
X90374505Y-113301204D02*
X90398773Y-113304804D01*
X90422572Y-113310765D01*
X90445671Y-113319030D01*
X90467850Y-113329520D01*
X90488893Y-113342132D01*
X90508599Y-113356747D01*
X90526777Y-113373223D01*
X90543253Y-113391401D01*
X90557868Y-113411107D01*
X90570480Y-113432150D01*
X90580970Y-113454329D01*
X90589235Y-113477428D01*
X90595196Y-113501227D01*
X90598796Y-113525495D01*
X90600000Y-113549999D01*
X90600000Y-114450001D01*
X90598796Y-114474505D01*
X90595196Y-114498773D01*
X90589235Y-114522572D01*
X90580970Y-114545671D01*
X90570480Y-114567850D01*
X90557868Y-114588893D01*
X90543253Y-114608599D01*
X90526777Y-114626777D01*
X90508599Y-114643253D01*
X90488893Y-114657868D01*
X90467850Y-114670480D01*
X90445671Y-114680970D01*
X90422572Y-114689235D01*
X90398773Y-114695196D01*
X90374505Y-114698796D01*
X90350001Y-114700000D01*
X89699999Y-114700000D01*
X89675495Y-114698796D01*
X89651227Y-114695196D01*
X89627428Y-114689235D01*
X89604329Y-114680970D01*
X89582150Y-114670480D01*
X89561107Y-114657868D01*
X89541401Y-114643253D01*
X89523223Y-114626777D01*
X89506747Y-114608599D01*
X89492132Y-114588893D01*
X89479520Y-114567850D01*
X89469030Y-114545671D01*
X89460765Y-114522572D01*
X89454804Y-114498773D01*
X89451204Y-114474505D01*
X89450000Y-114450001D01*
X89450000Y-113549999D01*
X89451204Y-113525495D01*
X89454804Y-113501227D01*
X89460765Y-113477428D01*
X89469030Y-113454329D01*
X89479520Y-113432150D01*
X89492132Y-113411107D01*
X89506747Y-113391401D01*
X89523223Y-113373223D01*
X89541401Y-113356747D01*
X89561107Y-113342132D01*
X89582150Y-113329520D01*
X89604329Y-113319030D01*
X89627428Y-113310765D01*
X89651227Y-113304804D01*
X89675495Y-113301204D01*
X89699999Y-113300000D01*
X90350001Y-113300000D01*
X90374505Y-113301204D01*
X90374505Y-113301204D01*
G37*
D11*
X90025000Y-114000000D03*
D10*
G36*
X88324505Y-113301204D02*
X88348773Y-113304804D01*
X88372572Y-113310765D01*
X88395671Y-113319030D01*
X88417850Y-113329520D01*
X88438893Y-113342132D01*
X88458599Y-113356747D01*
X88476777Y-113373223D01*
X88493253Y-113391401D01*
X88507868Y-113411107D01*
X88520480Y-113432150D01*
X88530970Y-113454329D01*
X88539235Y-113477428D01*
X88545196Y-113501227D01*
X88548796Y-113525495D01*
X88550000Y-113549999D01*
X88550000Y-114450001D01*
X88548796Y-114474505D01*
X88545196Y-114498773D01*
X88539235Y-114522572D01*
X88530970Y-114545671D01*
X88520480Y-114567850D01*
X88507868Y-114588893D01*
X88493253Y-114608599D01*
X88476777Y-114626777D01*
X88458599Y-114643253D01*
X88438893Y-114657868D01*
X88417850Y-114670480D01*
X88395671Y-114680970D01*
X88372572Y-114689235D01*
X88348773Y-114695196D01*
X88324505Y-114698796D01*
X88300001Y-114700000D01*
X87649999Y-114700000D01*
X87625495Y-114698796D01*
X87601227Y-114695196D01*
X87577428Y-114689235D01*
X87554329Y-114680970D01*
X87532150Y-114670480D01*
X87511107Y-114657868D01*
X87491401Y-114643253D01*
X87473223Y-114626777D01*
X87456747Y-114608599D01*
X87442132Y-114588893D01*
X87429520Y-114567850D01*
X87419030Y-114545671D01*
X87410765Y-114522572D01*
X87404804Y-114498773D01*
X87401204Y-114474505D01*
X87400000Y-114450001D01*
X87400000Y-113549999D01*
X87401204Y-113525495D01*
X87404804Y-113501227D01*
X87410765Y-113477428D01*
X87419030Y-113454329D01*
X87429520Y-113432150D01*
X87442132Y-113411107D01*
X87456747Y-113391401D01*
X87473223Y-113373223D01*
X87491401Y-113356747D01*
X87511107Y-113342132D01*
X87532150Y-113329520D01*
X87554329Y-113319030D01*
X87577428Y-113310765D01*
X87601227Y-113304804D01*
X87625495Y-113301204D01*
X87649999Y-113300000D01*
X88300001Y-113300000D01*
X88324505Y-113301204D01*
X88324505Y-113301204D01*
G37*
D11*
X87975000Y-114000000D03*
G04 #@! TD*
D10*
G04 #@! TO.C,C10*
G36*
X141474505Y-122451204D02*
X141498773Y-122454804D01*
X141522572Y-122460765D01*
X141545671Y-122469030D01*
X141567850Y-122479520D01*
X141588893Y-122492132D01*
X141608599Y-122506747D01*
X141626777Y-122523223D01*
X141643253Y-122541401D01*
X141657868Y-122561107D01*
X141670480Y-122582150D01*
X141680970Y-122604329D01*
X141689235Y-122627428D01*
X141695196Y-122651227D01*
X141698796Y-122675495D01*
X141700000Y-122699999D01*
X141700000Y-123350001D01*
X141698796Y-123374505D01*
X141695196Y-123398773D01*
X141689235Y-123422572D01*
X141680970Y-123445671D01*
X141670480Y-123467850D01*
X141657868Y-123488893D01*
X141643253Y-123508599D01*
X141626777Y-123526777D01*
X141608599Y-123543253D01*
X141588893Y-123557868D01*
X141567850Y-123570480D01*
X141545671Y-123580970D01*
X141522572Y-123589235D01*
X141498773Y-123595196D01*
X141474505Y-123598796D01*
X141450001Y-123600000D01*
X140549999Y-123600000D01*
X140525495Y-123598796D01*
X140501227Y-123595196D01*
X140477428Y-123589235D01*
X140454329Y-123580970D01*
X140432150Y-123570480D01*
X140411107Y-123557868D01*
X140391401Y-123543253D01*
X140373223Y-123526777D01*
X140356747Y-123508599D01*
X140342132Y-123488893D01*
X140329520Y-123467850D01*
X140319030Y-123445671D01*
X140310765Y-123422572D01*
X140304804Y-123398773D01*
X140301204Y-123374505D01*
X140300000Y-123350001D01*
X140300000Y-122699999D01*
X140301204Y-122675495D01*
X140304804Y-122651227D01*
X140310765Y-122627428D01*
X140319030Y-122604329D01*
X140329520Y-122582150D01*
X140342132Y-122561107D01*
X140356747Y-122541401D01*
X140373223Y-122523223D01*
X140391401Y-122506747D01*
X140411107Y-122492132D01*
X140432150Y-122479520D01*
X140454329Y-122469030D01*
X140477428Y-122460765D01*
X140501227Y-122454804D01*
X140525495Y-122451204D01*
X140549999Y-122450000D01*
X141450001Y-122450000D01*
X141474505Y-122451204D01*
X141474505Y-122451204D01*
G37*
D11*
X141000000Y-123025000D03*
D10*
G36*
X141474505Y-120401204D02*
X141498773Y-120404804D01*
X141522572Y-120410765D01*
X141545671Y-120419030D01*
X141567850Y-120429520D01*
X141588893Y-120442132D01*
X141608599Y-120456747D01*
X141626777Y-120473223D01*
X141643253Y-120491401D01*
X141657868Y-120511107D01*
X141670480Y-120532150D01*
X141680970Y-120554329D01*
X141689235Y-120577428D01*
X141695196Y-120601227D01*
X141698796Y-120625495D01*
X141700000Y-120649999D01*
X141700000Y-121300001D01*
X141698796Y-121324505D01*
X141695196Y-121348773D01*
X141689235Y-121372572D01*
X141680970Y-121395671D01*
X141670480Y-121417850D01*
X141657868Y-121438893D01*
X141643253Y-121458599D01*
X141626777Y-121476777D01*
X141608599Y-121493253D01*
X141588893Y-121507868D01*
X141567850Y-121520480D01*
X141545671Y-121530970D01*
X141522572Y-121539235D01*
X141498773Y-121545196D01*
X141474505Y-121548796D01*
X141450001Y-121550000D01*
X140549999Y-121550000D01*
X140525495Y-121548796D01*
X140501227Y-121545196D01*
X140477428Y-121539235D01*
X140454329Y-121530970D01*
X140432150Y-121520480D01*
X140411107Y-121507868D01*
X140391401Y-121493253D01*
X140373223Y-121476777D01*
X140356747Y-121458599D01*
X140342132Y-121438893D01*
X140329520Y-121417850D01*
X140319030Y-121395671D01*
X140310765Y-121372572D01*
X140304804Y-121348773D01*
X140301204Y-121324505D01*
X140300000Y-121300001D01*
X140300000Y-120649999D01*
X140301204Y-120625495D01*
X140304804Y-120601227D01*
X140310765Y-120577428D01*
X140319030Y-120554329D01*
X140329520Y-120532150D01*
X140342132Y-120511107D01*
X140356747Y-120491401D01*
X140373223Y-120473223D01*
X140391401Y-120456747D01*
X140411107Y-120442132D01*
X140432150Y-120429520D01*
X140454329Y-120419030D01*
X140477428Y-120410765D01*
X140501227Y-120404804D01*
X140525495Y-120401204D01*
X140549999Y-120400000D01*
X141450001Y-120400000D01*
X141474505Y-120401204D01*
X141474505Y-120401204D01*
G37*
D11*
X141000000Y-120975000D03*
G04 #@! TD*
D10*
G04 #@! TO.C,C11*
G36*
X141474505Y-124401204D02*
X141498773Y-124404804D01*
X141522572Y-124410765D01*
X141545671Y-124419030D01*
X141567850Y-124429520D01*
X141588893Y-124442132D01*
X141608599Y-124456747D01*
X141626777Y-124473223D01*
X141643253Y-124491401D01*
X141657868Y-124511107D01*
X141670480Y-124532150D01*
X141680970Y-124554329D01*
X141689235Y-124577428D01*
X141695196Y-124601227D01*
X141698796Y-124625495D01*
X141700000Y-124649999D01*
X141700000Y-125300001D01*
X141698796Y-125324505D01*
X141695196Y-125348773D01*
X141689235Y-125372572D01*
X141680970Y-125395671D01*
X141670480Y-125417850D01*
X141657868Y-125438893D01*
X141643253Y-125458599D01*
X141626777Y-125476777D01*
X141608599Y-125493253D01*
X141588893Y-125507868D01*
X141567850Y-125520480D01*
X141545671Y-125530970D01*
X141522572Y-125539235D01*
X141498773Y-125545196D01*
X141474505Y-125548796D01*
X141450001Y-125550000D01*
X140549999Y-125550000D01*
X140525495Y-125548796D01*
X140501227Y-125545196D01*
X140477428Y-125539235D01*
X140454329Y-125530970D01*
X140432150Y-125520480D01*
X140411107Y-125507868D01*
X140391401Y-125493253D01*
X140373223Y-125476777D01*
X140356747Y-125458599D01*
X140342132Y-125438893D01*
X140329520Y-125417850D01*
X140319030Y-125395671D01*
X140310765Y-125372572D01*
X140304804Y-125348773D01*
X140301204Y-125324505D01*
X140300000Y-125300001D01*
X140300000Y-124649999D01*
X140301204Y-124625495D01*
X140304804Y-124601227D01*
X140310765Y-124577428D01*
X140319030Y-124554329D01*
X140329520Y-124532150D01*
X140342132Y-124511107D01*
X140356747Y-124491401D01*
X140373223Y-124473223D01*
X140391401Y-124456747D01*
X140411107Y-124442132D01*
X140432150Y-124429520D01*
X140454329Y-124419030D01*
X140477428Y-124410765D01*
X140501227Y-124404804D01*
X140525495Y-124401204D01*
X140549999Y-124400000D01*
X141450001Y-124400000D01*
X141474505Y-124401204D01*
X141474505Y-124401204D01*
G37*
D11*
X141000000Y-124975000D03*
D10*
G36*
X141474505Y-126451204D02*
X141498773Y-126454804D01*
X141522572Y-126460765D01*
X141545671Y-126469030D01*
X141567850Y-126479520D01*
X141588893Y-126492132D01*
X141608599Y-126506747D01*
X141626777Y-126523223D01*
X141643253Y-126541401D01*
X141657868Y-126561107D01*
X141670480Y-126582150D01*
X141680970Y-126604329D01*
X141689235Y-126627428D01*
X141695196Y-126651227D01*
X141698796Y-126675495D01*
X141700000Y-126699999D01*
X141700000Y-127350001D01*
X141698796Y-127374505D01*
X141695196Y-127398773D01*
X141689235Y-127422572D01*
X141680970Y-127445671D01*
X141670480Y-127467850D01*
X141657868Y-127488893D01*
X141643253Y-127508599D01*
X141626777Y-127526777D01*
X141608599Y-127543253D01*
X141588893Y-127557868D01*
X141567850Y-127570480D01*
X141545671Y-127580970D01*
X141522572Y-127589235D01*
X141498773Y-127595196D01*
X141474505Y-127598796D01*
X141450001Y-127600000D01*
X140549999Y-127600000D01*
X140525495Y-127598796D01*
X140501227Y-127595196D01*
X140477428Y-127589235D01*
X140454329Y-127580970D01*
X140432150Y-127570480D01*
X140411107Y-127557868D01*
X140391401Y-127543253D01*
X140373223Y-127526777D01*
X140356747Y-127508599D01*
X140342132Y-127488893D01*
X140329520Y-127467850D01*
X140319030Y-127445671D01*
X140310765Y-127422572D01*
X140304804Y-127398773D01*
X140301204Y-127374505D01*
X140300000Y-127350001D01*
X140300000Y-126699999D01*
X140301204Y-126675495D01*
X140304804Y-126651227D01*
X140310765Y-126627428D01*
X140319030Y-126604329D01*
X140329520Y-126582150D01*
X140342132Y-126561107D01*
X140356747Y-126541401D01*
X140373223Y-126523223D01*
X140391401Y-126506747D01*
X140411107Y-126492132D01*
X140432150Y-126479520D01*
X140454329Y-126469030D01*
X140477428Y-126460765D01*
X140501227Y-126454804D01*
X140525495Y-126451204D01*
X140549999Y-126450000D01*
X141450001Y-126450000D01*
X141474505Y-126451204D01*
X141474505Y-126451204D01*
G37*
D11*
X141000000Y-127025000D03*
G04 #@! TD*
D10*
G04 #@! TO.C,C12*
G36*
X75474505Y-99401204D02*
X75498773Y-99404804D01*
X75522572Y-99410765D01*
X75545671Y-99419030D01*
X75567850Y-99429520D01*
X75588893Y-99442132D01*
X75608599Y-99456747D01*
X75626777Y-99473223D01*
X75643253Y-99491401D01*
X75657868Y-99511107D01*
X75670480Y-99532150D01*
X75680970Y-99554329D01*
X75689235Y-99577428D01*
X75695196Y-99601227D01*
X75698796Y-99625495D01*
X75700000Y-99649999D01*
X75700000Y-100300001D01*
X75698796Y-100324505D01*
X75695196Y-100348773D01*
X75689235Y-100372572D01*
X75680970Y-100395671D01*
X75670480Y-100417850D01*
X75657868Y-100438893D01*
X75643253Y-100458599D01*
X75626777Y-100476777D01*
X75608599Y-100493253D01*
X75588893Y-100507868D01*
X75567850Y-100520480D01*
X75545671Y-100530970D01*
X75522572Y-100539235D01*
X75498773Y-100545196D01*
X75474505Y-100548796D01*
X75450001Y-100550000D01*
X74549999Y-100550000D01*
X74525495Y-100548796D01*
X74501227Y-100545196D01*
X74477428Y-100539235D01*
X74454329Y-100530970D01*
X74432150Y-100520480D01*
X74411107Y-100507868D01*
X74391401Y-100493253D01*
X74373223Y-100476777D01*
X74356747Y-100458599D01*
X74342132Y-100438893D01*
X74329520Y-100417850D01*
X74319030Y-100395671D01*
X74310765Y-100372572D01*
X74304804Y-100348773D01*
X74301204Y-100324505D01*
X74300000Y-100300001D01*
X74300000Y-99649999D01*
X74301204Y-99625495D01*
X74304804Y-99601227D01*
X74310765Y-99577428D01*
X74319030Y-99554329D01*
X74329520Y-99532150D01*
X74342132Y-99511107D01*
X74356747Y-99491401D01*
X74373223Y-99473223D01*
X74391401Y-99456747D01*
X74411107Y-99442132D01*
X74432150Y-99429520D01*
X74454329Y-99419030D01*
X74477428Y-99410765D01*
X74501227Y-99404804D01*
X74525495Y-99401204D01*
X74549999Y-99400000D01*
X75450001Y-99400000D01*
X75474505Y-99401204D01*
X75474505Y-99401204D01*
G37*
D11*
X75000000Y-99975000D03*
D10*
G36*
X75474505Y-101451204D02*
X75498773Y-101454804D01*
X75522572Y-101460765D01*
X75545671Y-101469030D01*
X75567850Y-101479520D01*
X75588893Y-101492132D01*
X75608599Y-101506747D01*
X75626777Y-101523223D01*
X75643253Y-101541401D01*
X75657868Y-101561107D01*
X75670480Y-101582150D01*
X75680970Y-101604329D01*
X75689235Y-101627428D01*
X75695196Y-101651227D01*
X75698796Y-101675495D01*
X75700000Y-101699999D01*
X75700000Y-102350001D01*
X75698796Y-102374505D01*
X75695196Y-102398773D01*
X75689235Y-102422572D01*
X75680970Y-102445671D01*
X75670480Y-102467850D01*
X75657868Y-102488893D01*
X75643253Y-102508599D01*
X75626777Y-102526777D01*
X75608599Y-102543253D01*
X75588893Y-102557868D01*
X75567850Y-102570480D01*
X75545671Y-102580970D01*
X75522572Y-102589235D01*
X75498773Y-102595196D01*
X75474505Y-102598796D01*
X75450001Y-102600000D01*
X74549999Y-102600000D01*
X74525495Y-102598796D01*
X74501227Y-102595196D01*
X74477428Y-102589235D01*
X74454329Y-102580970D01*
X74432150Y-102570480D01*
X74411107Y-102557868D01*
X74391401Y-102543253D01*
X74373223Y-102526777D01*
X74356747Y-102508599D01*
X74342132Y-102488893D01*
X74329520Y-102467850D01*
X74319030Y-102445671D01*
X74310765Y-102422572D01*
X74304804Y-102398773D01*
X74301204Y-102374505D01*
X74300000Y-102350001D01*
X74300000Y-101699999D01*
X74301204Y-101675495D01*
X74304804Y-101651227D01*
X74310765Y-101627428D01*
X74319030Y-101604329D01*
X74329520Y-101582150D01*
X74342132Y-101561107D01*
X74356747Y-101541401D01*
X74373223Y-101523223D01*
X74391401Y-101506747D01*
X74411107Y-101492132D01*
X74432150Y-101479520D01*
X74454329Y-101469030D01*
X74477428Y-101460765D01*
X74501227Y-101454804D01*
X74525495Y-101451204D01*
X74549999Y-101450000D01*
X75450001Y-101450000D01*
X75474505Y-101451204D01*
X75474505Y-101451204D01*
G37*
D11*
X75000000Y-102025000D03*
G04 #@! TD*
D10*
G04 #@! TO.C,C13*
G36*
X118324505Y-107301204D02*
X118348773Y-107304804D01*
X118372572Y-107310765D01*
X118395671Y-107319030D01*
X118417850Y-107329520D01*
X118438893Y-107342132D01*
X118458599Y-107356747D01*
X118476777Y-107373223D01*
X118493253Y-107391401D01*
X118507868Y-107411107D01*
X118520480Y-107432150D01*
X118530970Y-107454329D01*
X118539235Y-107477428D01*
X118545196Y-107501227D01*
X118548796Y-107525495D01*
X118550000Y-107549999D01*
X118550000Y-108450001D01*
X118548796Y-108474505D01*
X118545196Y-108498773D01*
X118539235Y-108522572D01*
X118530970Y-108545671D01*
X118520480Y-108567850D01*
X118507868Y-108588893D01*
X118493253Y-108608599D01*
X118476777Y-108626777D01*
X118458599Y-108643253D01*
X118438893Y-108657868D01*
X118417850Y-108670480D01*
X118395671Y-108680970D01*
X118372572Y-108689235D01*
X118348773Y-108695196D01*
X118324505Y-108698796D01*
X118300001Y-108700000D01*
X117649999Y-108700000D01*
X117625495Y-108698796D01*
X117601227Y-108695196D01*
X117577428Y-108689235D01*
X117554329Y-108680970D01*
X117532150Y-108670480D01*
X117511107Y-108657868D01*
X117491401Y-108643253D01*
X117473223Y-108626777D01*
X117456747Y-108608599D01*
X117442132Y-108588893D01*
X117429520Y-108567850D01*
X117419030Y-108545671D01*
X117410765Y-108522572D01*
X117404804Y-108498773D01*
X117401204Y-108474505D01*
X117400000Y-108450001D01*
X117400000Y-107549999D01*
X117401204Y-107525495D01*
X117404804Y-107501227D01*
X117410765Y-107477428D01*
X117419030Y-107454329D01*
X117429520Y-107432150D01*
X117442132Y-107411107D01*
X117456747Y-107391401D01*
X117473223Y-107373223D01*
X117491401Y-107356747D01*
X117511107Y-107342132D01*
X117532150Y-107329520D01*
X117554329Y-107319030D01*
X117577428Y-107310765D01*
X117601227Y-107304804D01*
X117625495Y-107301204D01*
X117649999Y-107300000D01*
X118300001Y-107300000D01*
X118324505Y-107301204D01*
X118324505Y-107301204D01*
G37*
D11*
X117975000Y-108000000D03*
D10*
G36*
X120374505Y-107301204D02*
X120398773Y-107304804D01*
X120422572Y-107310765D01*
X120445671Y-107319030D01*
X120467850Y-107329520D01*
X120488893Y-107342132D01*
X120508599Y-107356747D01*
X120526777Y-107373223D01*
X120543253Y-107391401D01*
X120557868Y-107411107D01*
X120570480Y-107432150D01*
X120580970Y-107454329D01*
X120589235Y-107477428D01*
X120595196Y-107501227D01*
X120598796Y-107525495D01*
X120600000Y-107549999D01*
X120600000Y-108450001D01*
X120598796Y-108474505D01*
X120595196Y-108498773D01*
X120589235Y-108522572D01*
X120580970Y-108545671D01*
X120570480Y-108567850D01*
X120557868Y-108588893D01*
X120543253Y-108608599D01*
X120526777Y-108626777D01*
X120508599Y-108643253D01*
X120488893Y-108657868D01*
X120467850Y-108670480D01*
X120445671Y-108680970D01*
X120422572Y-108689235D01*
X120398773Y-108695196D01*
X120374505Y-108698796D01*
X120350001Y-108700000D01*
X119699999Y-108700000D01*
X119675495Y-108698796D01*
X119651227Y-108695196D01*
X119627428Y-108689235D01*
X119604329Y-108680970D01*
X119582150Y-108670480D01*
X119561107Y-108657868D01*
X119541401Y-108643253D01*
X119523223Y-108626777D01*
X119506747Y-108608599D01*
X119492132Y-108588893D01*
X119479520Y-108567850D01*
X119469030Y-108545671D01*
X119460765Y-108522572D01*
X119454804Y-108498773D01*
X119451204Y-108474505D01*
X119450000Y-108450001D01*
X119450000Y-107549999D01*
X119451204Y-107525495D01*
X119454804Y-107501227D01*
X119460765Y-107477428D01*
X119469030Y-107454329D01*
X119479520Y-107432150D01*
X119492132Y-107411107D01*
X119506747Y-107391401D01*
X119523223Y-107373223D01*
X119541401Y-107356747D01*
X119561107Y-107342132D01*
X119582150Y-107329520D01*
X119604329Y-107319030D01*
X119627428Y-107310765D01*
X119651227Y-107304804D01*
X119675495Y-107301204D01*
X119699999Y-107300000D01*
X120350001Y-107300000D01*
X120374505Y-107301204D01*
X120374505Y-107301204D01*
G37*
D11*
X120025000Y-108000000D03*
G04 #@! TD*
D10*
G04 #@! TO.C,D1*
G36*
X132349505Y-118301204D02*
X132373773Y-118304804D01*
X132397572Y-118310765D01*
X132420671Y-118319030D01*
X132442850Y-118329520D01*
X132463893Y-118342132D01*
X132483599Y-118356747D01*
X132501777Y-118373223D01*
X132518253Y-118391401D01*
X132532868Y-118411107D01*
X132545480Y-118432150D01*
X132555970Y-118454329D01*
X132564235Y-118477428D01*
X132570196Y-118501227D01*
X132573796Y-118525495D01*
X132575000Y-118549999D01*
X132575000Y-119450001D01*
X132573796Y-119474505D01*
X132570196Y-119498773D01*
X132564235Y-119522572D01*
X132555970Y-119545671D01*
X132545480Y-119567850D01*
X132532868Y-119588893D01*
X132518253Y-119608599D01*
X132501777Y-119626777D01*
X132483599Y-119643253D01*
X132463893Y-119657868D01*
X132442850Y-119670480D01*
X132420671Y-119680970D01*
X132397572Y-119689235D01*
X132373773Y-119695196D01*
X132349505Y-119698796D01*
X132325001Y-119700000D01*
X131674999Y-119700000D01*
X131650495Y-119698796D01*
X131626227Y-119695196D01*
X131602428Y-119689235D01*
X131579329Y-119680970D01*
X131557150Y-119670480D01*
X131536107Y-119657868D01*
X131516401Y-119643253D01*
X131498223Y-119626777D01*
X131481747Y-119608599D01*
X131467132Y-119588893D01*
X131454520Y-119567850D01*
X131444030Y-119545671D01*
X131435765Y-119522572D01*
X131429804Y-119498773D01*
X131426204Y-119474505D01*
X131425000Y-119450001D01*
X131425000Y-118549999D01*
X131426204Y-118525495D01*
X131429804Y-118501227D01*
X131435765Y-118477428D01*
X131444030Y-118454329D01*
X131454520Y-118432150D01*
X131467132Y-118411107D01*
X131481747Y-118391401D01*
X131498223Y-118373223D01*
X131516401Y-118356747D01*
X131536107Y-118342132D01*
X131557150Y-118329520D01*
X131579329Y-118319030D01*
X131602428Y-118310765D01*
X131626227Y-118304804D01*
X131650495Y-118301204D01*
X131674999Y-118300000D01*
X132325001Y-118300000D01*
X132349505Y-118301204D01*
X132349505Y-118301204D01*
G37*
D11*
X132000000Y-119000000D03*
D10*
G36*
X130299505Y-118301204D02*
X130323773Y-118304804D01*
X130347572Y-118310765D01*
X130370671Y-118319030D01*
X130392850Y-118329520D01*
X130413893Y-118342132D01*
X130433599Y-118356747D01*
X130451777Y-118373223D01*
X130468253Y-118391401D01*
X130482868Y-118411107D01*
X130495480Y-118432150D01*
X130505970Y-118454329D01*
X130514235Y-118477428D01*
X130520196Y-118501227D01*
X130523796Y-118525495D01*
X130525000Y-118549999D01*
X130525000Y-119450001D01*
X130523796Y-119474505D01*
X130520196Y-119498773D01*
X130514235Y-119522572D01*
X130505970Y-119545671D01*
X130495480Y-119567850D01*
X130482868Y-119588893D01*
X130468253Y-119608599D01*
X130451777Y-119626777D01*
X130433599Y-119643253D01*
X130413893Y-119657868D01*
X130392850Y-119670480D01*
X130370671Y-119680970D01*
X130347572Y-119689235D01*
X130323773Y-119695196D01*
X130299505Y-119698796D01*
X130275001Y-119700000D01*
X129624999Y-119700000D01*
X129600495Y-119698796D01*
X129576227Y-119695196D01*
X129552428Y-119689235D01*
X129529329Y-119680970D01*
X129507150Y-119670480D01*
X129486107Y-119657868D01*
X129466401Y-119643253D01*
X129448223Y-119626777D01*
X129431747Y-119608599D01*
X129417132Y-119588893D01*
X129404520Y-119567850D01*
X129394030Y-119545671D01*
X129385765Y-119522572D01*
X129379804Y-119498773D01*
X129376204Y-119474505D01*
X129375000Y-119450001D01*
X129375000Y-118549999D01*
X129376204Y-118525495D01*
X129379804Y-118501227D01*
X129385765Y-118477428D01*
X129394030Y-118454329D01*
X129404520Y-118432150D01*
X129417132Y-118411107D01*
X129431747Y-118391401D01*
X129448223Y-118373223D01*
X129466401Y-118356747D01*
X129486107Y-118342132D01*
X129507150Y-118329520D01*
X129529329Y-118319030D01*
X129552428Y-118310765D01*
X129576227Y-118304804D01*
X129600495Y-118301204D01*
X129624999Y-118300000D01*
X130275001Y-118300000D01*
X130299505Y-118301204D01*
X130299505Y-118301204D01*
G37*
D11*
X129950000Y-119000000D03*
G04 #@! TD*
D12*
G04 #@! TO.C,D2*
X80000000Y-106350000D03*
X80000000Y-109650000D03*
G04 #@! TD*
D10*
G04 #@! TO.C,D3*
G36*
X98474505Y-119451204D02*
X98498773Y-119454804D01*
X98522572Y-119460765D01*
X98545671Y-119469030D01*
X98567850Y-119479520D01*
X98588893Y-119492132D01*
X98608599Y-119506747D01*
X98626777Y-119523223D01*
X98643253Y-119541401D01*
X98657868Y-119561107D01*
X98670480Y-119582150D01*
X98680970Y-119604329D01*
X98689235Y-119627428D01*
X98695196Y-119651227D01*
X98698796Y-119675495D01*
X98700000Y-119699999D01*
X98700000Y-120350001D01*
X98698796Y-120374505D01*
X98695196Y-120398773D01*
X98689235Y-120422572D01*
X98680970Y-120445671D01*
X98670480Y-120467850D01*
X98657868Y-120488893D01*
X98643253Y-120508599D01*
X98626777Y-120526777D01*
X98608599Y-120543253D01*
X98588893Y-120557868D01*
X98567850Y-120570480D01*
X98545671Y-120580970D01*
X98522572Y-120589235D01*
X98498773Y-120595196D01*
X98474505Y-120598796D01*
X98450001Y-120600000D01*
X97549999Y-120600000D01*
X97525495Y-120598796D01*
X97501227Y-120595196D01*
X97477428Y-120589235D01*
X97454329Y-120580970D01*
X97432150Y-120570480D01*
X97411107Y-120557868D01*
X97391401Y-120543253D01*
X97373223Y-120526777D01*
X97356747Y-120508599D01*
X97342132Y-120488893D01*
X97329520Y-120467850D01*
X97319030Y-120445671D01*
X97310765Y-120422572D01*
X97304804Y-120398773D01*
X97301204Y-120374505D01*
X97300000Y-120350001D01*
X97300000Y-119699999D01*
X97301204Y-119675495D01*
X97304804Y-119651227D01*
X97310765Y-119627428D01*
X97319030Y-119604329D01*
X97329520Y-119582150D01*
X97342132Y-119561107D01*
X97356747Y-119541401D01*
X97373223Y-119523223D01*
X97391401Y-119506747D01*
X97411107Y-119492132D01*
X97432150Y-119479520D01*
X97454329Y-119469030D01*
X97477428Y-119460765D01*
X97501227Y-119454804D01*
X97525495Y-119451204D01*
X97549999Y-119450000D01*
X98450001Y-119450000D01*
X98474505Y-119451204D01*
X98474505Y-119451204D01*
G37*
D11*
X98000000Y-120025000D03*
D10*
G36*
X98474505Y-117401204D02*
X98498773Y-117404804D01*
X98522572Y-117410765D01*
X98545671Y-117419030D01*
X98567850Y-117429520D01*
X98588893Y-117442132D01*
X98608599Y-117456747D01*
X98626777Y-117473223D01*
X98643253Y-117491401D01*
X98657868Y-117511107D01*
X98670480Y-117532150D01*
X98680970Y-117554329D01*
X98689235Y-117577428D01*
X98695196Y-117601227D01*
X98698796Y-117625495D01*
X98700000Y-117649999D01*
X98700000Y-118300001D01*
X98698796Y-118324505D01*
X98695196Y-118348773D01*
X98689235Y-118372572D01*
X98680970Y-118395671D01*
X98670480Y-118417850D01*
X98657868Y-118438893D01*
X98643253Y-118458599D01*
X98626777Y-118476777D01*
X98608599Y-118493253D01*
X98588893Y-118507868D01*
X98567850Y-118520480D01*
X98545671Y-118530970D01*
X98522572Y-118539235D01*
X98498773Y-118545196D01*
X98474505Y-118548796D01*
X98450001Y-118550000D01*
X97549999Y-118550000D01*
X97525495Y-118548796D01*
X97501227Y-118545196D01*
X97477428Y-118539235D01*
X97454329Y-118530970D01*
X97432150Y-118520480D01*
X97411107Y-118507868D01*
X97391401Y-118493253D01*
X97373223Y-118476777D01*
X97356747Y-118458599D01*
X97342132Y-118438893D01*
X97329520Y-118417850D01*
X97319030Y-118395671D01*
X97310765Y-118372572D01*
X97304804Y-118348773D01*
X97301204Y-118324505D01*
X97300000Y-118300001D01*
X97300000Y-117649999D01*
X97301204Y-117625495D01*
X97304804Y-117601227D01*
X97310765Y-117577428D01*
X97319030Y-117554329D01*
X97329520Y-117532150D01*
X97342132Y-117511107D01*
X97356747Y-117491401D01*
X97373223Y-117473223D01*
X97391401Y-117456747D01*
X97411107Y-117442132D01*
X97432150Y-117429520D01*
X97454329Y-117419030D01*
X97477428Y-117410765D01*
X97501227Y-117404804D01*
X97525495Y-117401204D01*
X97549999Y-117400000D01*
X98450001Y-117400000D01*
X98474505Y-117401204D01*
X98474505Y-117401204D01*
G37*
D11*
X98000000Y-117975000D03*
G04 #@! TD*
D10*
G04 #@! TO.C,D4*
G36*
X101474505Y-117401204D02*
X101498773Y-117404804D01*
X101522572Y-117410765D01*
X101545671Y-117419030D01*
X101567850Y-117429520D01*
X101588893Y-117442132D01*
X101608599Y-117456747D01*
X101626777Y-117473223D01*
X101643253Y-117491401D01*
X101657868Y-117511107D01*
X101670480Y-117532150D01*
X101680970Y-117554329D01*
X101689235Y-117577428D01*
X101695196Y-117601227D01*
X101698796Y-117625495D01*
X101700000Y-117649999D01*
X101700000Y-118300001D01*
X101698796Y-118324505D01*
X101695196Y-118348773D01*
X101689235Y-118372572D01*
X101680970Y-118395671D01*
X101670480Y-118417850D01*
X101657868Y-118438893D01*
X101643253Y-118458599D01*
X101626777Y-118476777D01*
X101608599Y-118493253D01*
X101588893Y-118507868D01*
X101567850Y-118520480D01*
X101545671Y-118530970D01*
X101522572Y-118539235D01*
X101498773Y-118545196D01*
X101474505Y-118548796D01*
X101450001Y-118550000D01*
X100549999Y-118550000D01*
X100525495Y-118548796D01*
X100501227Y-118545196D01*
X100477428Y-118539235D01*
X100454329Y-118530970D01*
X100432150Y-118520480D01*
X100411107Y-118507868D01*
X100391401Y-118493253D01*
X100373223Y-118476777D01*
X100356747Y-118458599D01*
X100342132Y-118438893D01*
X100329520Y-118417850D01*
X100319030Y-118395671D01*
X100310765Y-118372572D01*
X100304804Y-118348773D01*
X100301204Y-118324505D01*
X100300000Y-118300001D01*
X100300000Y-117649999D01*
X100301204Y-117625495D01*
X100304804Y-117601227D01*
X100310765Y-117577428D01*
X100319030Y-117554329D01*
X100329520Y-117532150D01*
X100342132Y-117511107D01*
X100356747Y-117491401D01*
X100373223Y-117473223D01*
X100391401Y-117456747D01*
X100411107Y-117442132D01*
X100432150Y-117429520D01*
X100454329Y-117419030D01*
X100477428Y-117410765D01*
X100501227Y-117404804D01*
X100525495Y-117401204D01*
X100549999Y-117400000D01*
X101450001Y-117400000D01*
X101474505Y-117401204D01*
X101474505Y-117401204D01*
G37*
D11*
X101000000Y-117975000D03*
D10*
G36*
X101474505Y-119451204D02*
X101498773Y-119454804D01*
X101522572Y-119460765D01*
X101545671Y-119469030D01*
X101567850Y-119479520D01*
X101588893Y-119492132D01*
X101608599Y-119506747D01*
X101626777Y-119523223D01*
X101643253Y-119541401D01*
X101657868Y-119561107D01*
X101670480Y-119582150D01*
X101680970Y-119604329D01*
X101689235Y-119627428D01*
X101695196Y-119651227D01*
X101698796Y-119675495D01*
X101700000Y-119699999D01*
X101700000Y-120350001D01*
X101698796Y-120374505D01*
X101695196Y-120398773D01*
X101689235Y-120422572D01*
X101680970Y-120445671D01*
X101670480Y-120467850D01*
X101657868Y-120488893D01*
X101643253Y-120508599D01*
X101626777Y-120526777D01*
X101608599Y-120543253D01*
X101588893Y-120557868D01*
X101567850Y-120570480D01*
X101545671Y-120580970D01*
X101522572Y-120589235D01*
X101498773Y-120595196D01*
X101474505Y-120598796D01*
X101450001Y-120600000D01*
X100549999Y-120600000D01*
X100525495Y-120598796D01*
X100501227Y-120595196D01*
X100477428Y-120589235D01*
X100454329Y-120580970D01*
X100432150Y-120570480D01*
X100411107Y-120557868D01*
X100391401Y-120543253D01*
X100373223Y-120526777D01*
X100356747Y-120508599D01*
X100342132Y-120488893D01*
X100329520Y-120467850D01*
X100319030Y-120445671D01*
X100310765Y-120422572D01*
X100304804Y-120398773D01*
X100301204Y-120374505D01*
X100300000Y-120350001D01*
X100300000Y-119699999D01*
X100301204Y-119675495D01*
X100304804Y-119651227D01*
X100310765Y-119627428D01*
X100319030Y-119604329D01*
X100329520Y-119582150D01*
X100342132Y-119561107D01*
X100356747Y-119541401D01*
X100373223Y-119523223D01*
X100391401Y-119506747D01*
X100411107Y-119492132D01*
X100432150Y-119479520D01*
X100454329Y-119469030D01*
X100477428Y-119460765D01*
X100501227Y-119454804D01*
X100525495Y-119451204D01*
X100549999Y-119450000D01*
X101450001Y-119450000D01*
X101474505Y-119451204D01*
X101474505Y-119451204D01*
G37*
D11*
X101000000Y-120025000D03*
G04 #@! TD*
D10*
G04 #@! TO.C,D5*
G36*
X104474505Y-119451204D02*
X104498773Y-119454804D01*
X104522572Y-119460765D01*
X104545671Y-119469030D01*
X104567850Y-119479520D01*
X104588893Y-119492132D01*
X104608599Y-119506747D01*
X104626777Y-119523223D01*
X104643253Y-119541401D01*
X104657868Y-119561107D01*
X104670480Y-119582150D01*
X104680970Y-119604329D01*
X104689235Y-119627428D01*
X104695196Y-119651227D01*
X104698796Y-119675495D01*
X104700000Y-119699999D01*
X104700000Y-120350001D01*
X104698796Y-120374505D01*
X104695196Y-120398773D01*
X104689235Y-120422572D01*
X104680970Y-120445671D01*
X104670480Y-120467850D01*
X104657868Y-120488893D01*
X104643253Y-120508599D01*
X104626777Y-120526777D01*
X104608599Y-120543253D01*
X104588893Y-120557868D01*
X104567850Y-120570480D01*
X104545671Y-120580970D01*
X104522572Y-120589235D01*
X104498773Y-120595196D01*
X104474505Y-120598796D01*
X104450001Y-120600000D01*
X103549999Y-120600000D01*
X103525495Y-120598796D01*
X103501227Y-120595196D01*
X103477428Y-120589235D01*
X103454329Y-120580970D01*
X103432150Y-120570480D01*
X103411107Y-120557868D01*
X103391401Y-120543253D01*
X103373223Y-120526777D01*
X103356747Y-120508599D01*
X103342132Y-120488893D01*
X103329520Y-120467850D01*
X103319030Y-120445671D01*
X103310765Y-120422572D01*
X103304804Y-120398773D01*
X103301204Y-120374505D01*
X103300000Y-120350001D01*
X103300000Y-119699999D01*
X103301204Y-119675495D01*
X103304804Y-119651227D01*
X103310765Y-119627428D01*
X103319030Y-119604329D01*
X103329520Y-119582150D01*
X103342132Y-119561107D01*
X103356747Y-119541401D01*
X103373223Y-119523223D01*
X103391401Y-119506747D01*
X103411107Y-119492132D01*
X103432150Y-119479520D01*
X103454329Y-119469030D01*
X103477428Y-119460765D01*
X103501227Y-119454804D01*
X103525495Y-119451204D01*
X103549999Y-119450000D01*
X104450001Y-119450000D01*
X104474505Y-119451204D01*
X104474505Y-119451204D01*
G37*
D11*
X104000000Y-120025000D03*
D10*
G36*
X104474505Y-117401204D02*
X104498773Y-117404804D01*
X104522572Y-117410765D01*
X104545671Y-117419030D01*
X104567850Y-117429520D01*
X104588893Y-117442132D01*
X104608599Y-117456747D01*
X104626777Y-117473223D01*
X104643253Y-117491401D01*
X104657868Y-117511107D01*
X104670480Y-117532150D01*
X104680970Y-117554329D01*
X104689235Y-117577428D01*
X104695196Y-117601227D01*
X104698796Y-117625495D01*
X104700000Y-117649999D01*
X104700000Y-118300001D01*
X104698796Y-118324505D01*
X104695196Y-118348773D01*
X104689235Y-118372572D01*
X104680970Y-118395671D01*
X104670480Y-118417850D01*
X104657868Y-118438893D01*
X104643253Y-118458599D01*
X104626777Y-118476777D01*
X104608599Y-118493253D01*
X104588893Y-118507868D01*
X104567850Y-118520480D01*
X104545671Y-118530970D01*
X104522572Y-118539235D01*
X104498773Y-118545196D01*
X104474505Y-118548796D01*
X104450001Y-118550000D01*
X103549999Y-118550000D01*
X103525495Y-118548796D01*
X103501227Y-118545196D01*
X103477428Y-118539235D01*
X103454329Y-118530970D01*
X103432150Y-118520480D01*
X103411107Y-118507868D01*
X103391401Y-118493253D01*
X103373223Y-118476777D01*
X103356747Y-118458599D01*
X103342132Y-118438893D01*
X103329520Y-118417850D01*
X103319030Y-118395671D01*
X103310765Y-118372572D01*
X103304804Y-118348773D01*
X103301204Y-118324505D01*
X103300000Y-118300001D01*
X103300000Y-117649999D01*
X103301204Y-117625495D01*
X103304804Y-117601227D01*
X103310765Y-117577428D01*
X103319030Y-117554329D01*
X103329520Y-117532150D01*
X103342132Y-117511107D01*
X103356747Y-117491401D01*
X103373223Y-117473223D01*
X103391401Y-117456747D01*
X103411107Y-117442132D01*
X103432150Y-117429520D01*
X103454329Y-117419030D01*
X103477428Y-117410765D01*
X103501227Y-117404804D01*
X103525495Y-117401204D01*
X103549999Y-117400000D01*
X104450001Y-117400000D01*
X104474505Y-117401204D01*
X104474505Y-117401204D01*
G37*
D11*
X104000000Y-117975000D03*
G04 #@! TD*
D10*
G04 #@! TO.C,R3*
G36*
X103649504Y-99776204D02*
X103673773Y-99779804D01*
X103697571Y-99785765D01*
X103720671Y-99794030D01*
X103742849Y-99804520D01*
X103763893Y-99817133D01*
X103783598Y-99831747D01*
X103801777Y-99848223D01*
X103818253Y-99866402D01*
X103832867Y-99886107D01*
X103845480Y-99907151D01*
X103855970Y-99929329D01*
X103864235Y-99952429D01*
X103870196Y-99976227D01*
X103873796Y-100000496D01*
X103875000Y-100025000D01*
X103875000Y-100950000D01*
X103873796Y-100974504D01*
X103870196Y-100998773D01*
X103864235Y-101022571D01*
X103855970Y-101045671D01*
X103845480Y-101067849D01*
X103832867Y-101088893D01*
X103818253Y-101108598D01*
X103801777Y-101126777D01*
X103783598Y-101143253D01*
X103763893Y-101157867D01*
X103742849Y-101170480D01*
X103720671Y-101180970D01*
X103697571Y-101189235D01*
X103673773Y-101195196D01*
X103649504Y-101198796D01*
X103625000Y-101200000D01*
X102375000Y-101200000D01*
X102350496Y-101198796D01*
X102326227Y-101195196D01*
X102302429Y-101189235D01*
X102279329Y-101180970D01*
X102257151Y-101170480D01*
X102236107Y-101157867D01*
X102216402Y-101143253D01*
X102198223Y-101126777D01*
X102181747Y-101108598D01*
X102167133Y-101088893D01*
X102154520Y-101067849D01*
X102144030Y-101045671D01*
X102135765Y-101022571D01*
X102129804Y-100998773D01*
X102126204Y-100974504D01*
X102125000Y-100950000D01*
X102125000Y-100025000D01*
X102126204Y-100000496D01*
X102129804Y-99976227D01*
X102135765Y-99952429D01*
X102144030Y-99929329D01*
X102154520Y-99907151D01*
X102167133Y-99886107D01*
X102181747Y-99866402D01*
X102198223Y-99848223D01*
X102216402Y-99831747D01*
X102236107Y-99817133D01*
X102257151Y-99804520D01*
X102279329Y-99794030D01*
X102302429Y-99785765D01*
X102326227Y-99779804D01*
X102350496Y-99776204D01*
X102375000Y-99775000D01*
X103625000Y-99775000D01*
X103649504Y-99776204D01*
X103649504Y-99776204D01*
G37*
D13*
X103000000Y-100487500D03*
D10*
G36*
X103649504Y-96801204D02*
X103673773Y-96804804D01*
X103697571Y-96810765D01*
X103720671Y-96819030D01*
X103742849Y-96829520D01*
X103763893Y-96842133D01*
X103783598Y-96856747D01*
X103801777Y-96873223D01*
X103818253Y-96891402D01*
X103832867Y-96911107D01*
X103845480Y-96932151D01*
X103855970Y-96954329D01*
X103864235Y-96977429D01*
X103870196Y-97001227D01*
X103873796Y-97025496D01*
X103875000Y-97050000D01*
X103875000Y-97975000D01*
X103873796Y-97999504D01*
X103870196Y-98023773D01*
X103864235Y-98047571D01*
X103855970Y-98070671D01*
X103845480Y-98092849D01*
X103832867Y-98113893D01*
X103818253Y-98133598D01*
X103801777Y-98151777D01*
X103783598Y-98168253D01*
X103763893Y-98182867D01*
X103742849Y-98195480D01*
X103720671Y-98205970D01*
X103697571Y-98214235D01*
X103673773Y-98220196D01*
X103649504Y-98223796D01*
X103625000Y-98225000D01*
X102375000Y-98225000D01*
X102350496Y-98223796D01*
X102326227Y-98220196D01*
X102302429Y-98214235D01*
X102279329Y-98205970D01*
X102257151Y-98195480D01*
X102236107Y-98182867D01*
X102216402Y-98168253D01*
X102198223Y-98151777D01*
X102181747Y-98133598D01*
X102167133Y-98113893D01*
X102154520Y-98092849D01*
X102144030Y-98070671D01*
X102135765Y-98047571D01*
X102129804Y-98023773D01*
X102126204Y-97999504D01*
X102125000Y-97975000D01*
X102125000Y-97050000D01*
X102126204Y-97025496D01*
X102129804Y-97001227D01*
X102135765Y-96977429D01*
X102144030Y-96954329D01*
X102154520Y-96932151D01*
X102167133Y-96911107D01*
X102181747Y-96891402D01*
X102198223Y-96873223D01*
X102216402Y-96856747D01*
X102236107Y-96842133D01*
X102257151Y-96829520D01*
X102279329Y-96819030D01*
X102302429Y-96810765D01*
X102326227Y-96804804D01*
X102350496Y-96801204D01*
X102375000Y-96800000D01*
X103625000Y-96800000D01*
X103649504Y-96801204D01*
X103649504Y-96801204D01*
G37*
D13*
X103000000Y-97512500D03*
G04 #@! TD*
D10*
G04 #@! TO.C,R4*
G36*
X121649504Y-100776204D02*
X121673773Y-100779804D01*
X121697571Y-100785765D01*
X121720671Y-100794030D01*
X121742849Y-100804520D01*
X121763893Y-100817133D01*
X121783598Y-100831747D01*
X121801777Y-100848223D01*
X121818253Y-100866402D01*
X121832867Y-100886107D01*
X121845480Y-100907151D01*
X121855970Y-100929329D01*
X121864235Y-100952429D01*
X121870196Y-100976227D01*
X121873796Y-101000496D01*
X121875000Y-101025000D01*
X121875000Y-101950000D01*
X121873796Y-101974504D01*
X121870196Y-101998773D01*
X121864235Y-102022571D01*
X121855970Y-102045671D01*
X121845480Y-102067849D01*
X121832867Y-102088893D01*
X121818253Y-102108598D01*
X121801777Y-102126777D01*
X121783598Y-102143253D01*
X121763893Y-102157867D01*
X121742849Y-102170480D01*
X121720671Y-102180970D01*
X121697571Y-102189235D01*
X121673773Y-102195196D01*
X121649504Y-102198796D01*
X121625000Y-102200000D01*
X120375000Y-102200000D01*
X120350496Y-102198796D01*
X120326227Y-102195196D01*
X120302429Y-102189235D01*
X120279329Y-102180970D01*
X120257151Y-102170480D01*
X120236107Y-102157867D01*
X120216402Y-102143253D01*
X120198223Y-102126777D01*
X120181747Y-102108598D01*
X120167133Y-102088893D01*
X120154520Y-102067849D01*
X120144030Y-102045671D01*
X120135765Y-102022571D01*
X120129804Y-101998773D01*
X120126204Y-101974504D01*
X120125000Y-101950000D01*
X120125000Y-101025000D01*
X120126204Y-101000496D01*
X120129804Y-100976227D01*
X120135765Y-100952429D01*
X120144030Y-100929329D01*
X120154520Y-100907151D01*
X120167133Y-100886107D01*
X120181747Y-100866402D01*
X120198223Y-100848223D01*
X120216402Y-100831747D01*
X120236107Y-100817133D01*
X120257151Y-100804520D01*
X120279329Y-100794030D01*
X120302429Y-100785765D01*
X120326227Y-100779804D01*
X120350496Y-100776204D01*
X120375000Y-100775000D01*
X121625000Y-100775000D01*
X121649504Y-100776204D01*
X121649504Y-100776204D01*
G37*
D13*
X121000000Y-101487500D03*
D10*
G36*
X121649504Y-97801204D02*
X121673773Y-97804804D01*
X121697571Y-97810765D01*
X121720671Y-97819030D01*
X121742849Y-97829520D01*
X121763893Y-97842133D01*
X121783598Y-97856747D01*
X121801777Y-97873223D01*
X121818253Y-97891402D01*
X121832867Y-97911107D01*
X121845480Y-97932151D01*
X121855970Y-97954329D01*
X121864235Y-97977429D01*
X121870196Y-98001227D01*
X121873796Y-98025496D01*
X121875000Y-98050000D01*
X121875000Y-98975000D01*
X121873796Y-98999504D01*
X121870196Y-99023773D01*
X121864235Y-99047571D01*
X121855970Y-99070671D01*
X121845480Y-99092849D01*
X121832867Y-99113893D01*
X121818253Y-99133598D01*
X121801777Y-99151777D01*
X121783598Y-99168253D01*
X121763893Y-99182867D01*
X121742849Y-99195480D01*
X121720671Y-99205970D01*
X121697571Y-99214235D01*
X121673773Y-99220196D01*
X121649504Y-99223796D01*
X121625000Y-99225000D01*
X120375000Y-99225000D01*
X120350496Y-99223796D01*
X120326227Y-99220196D01*
X120302429Y-99214235D01*
X120279329Y-99205970D01*
X120257151Y-99195480D01*
X120236107Y-99182867D01*
X120216402Y-99168253D01*
X120198223Y-99151777D01*
X120181747Y-99133598D01*
X120167133Y-99113893D01*
X120154520Y-99092849D01*
X120144030Y-99070671D01*
X120135765Y-99047571D01*
X120129804Y-99023773D01*
X120126204Y-98999504D01*
X120125000Y-98975000D01*
X120125000Y-98050000D01*
X120126204Y-98025496D01*
X120129804Y-98001227D01*
X120135765Y-97977429D01*
X120144030Y-97954329D01*
X120154520Y-97932151D01*
X120167133Y-97911107D01*
X120181747Y-97891402D01*
X120198223Y-97873223D01*
X120216402Y-97856747D01*
X120236107Y-97842133D01*
X120257151Y-97829520D01*
X120279329Y-97819030D01*
X120302429Y-97810765D01*
X120326227Y-97804804D01*
X120350496Y-97801204D01*
X120375000Y-97800000D01*
X121625000Y-97800000D01*
X121649504Y-97801204D01*
X121649504Y-97801204D01*
G37*
D13*
X121000000Y-98512500D03*
G04 #@! TD*
D10*
G04 #@! TO.C,R7*
G36*
X135512004Y-118126204D02*
X135536273Y-118129804D01*
X135560071Y-118135765D01*
X135583171Y-118144030D01*
X135605349Y-118154520D01*
X135626393Y-118167133D01*
X135646098Y-118181747D01*
X135664277Y-118198223D01*
X135680753Y-118216402D01*
X135695367Y-118236107D01*
X135707980Y-118257151D01*
X135718470Y-118279329D01*
X135726735Y-118302429D01*
X135732696Y-118326227D01*
X135736296Y-118350496D01*
X135737500Y-118375000D01*
X135737500Y-119625000D01*
X135736296Y-119649504D01*
X135732696Y-119673773D01*
X135726735Y-119697571D01*
X135718470Y-119720671D01*
X135707980Y-119742849D01*
X135695367Y-119763893D01*
X135680753Y-119783598D01*
X135664277Y-119801777D01*
X135646098Y-119818253D01*
X135626393Y-119832867D01*
X135605349Y-119845480D01*
X135583171Y-119855970D01*
X135560071Y-119864235D01*
X135536273Y-119870196D01*
X135512004Y-119873796D01*
X135487500Y-119875000D01*
X134562500Y-119875000D01*
X134537996Y-119873796D01*
X134513727Y-119870196D01*
X134489929Y-119864235D01*
X134466829Y-119855970D01*
X134444651Y-119845480D01*
X134423607Y-119832867D01*
X134403902Y-119818253D01*
X134385723Y-119801777D01*
X134369247Y-119783598D01*
X134354633Y-119763893D01*
X134342020Y-119742849D01*
X134331530Y-119720671D01*
X134323265Y-119697571D01*
X134317304Y-119673773D01*
X134313704Y-119649504D01*
X134312500Y-119625000D01*
X134312500Y-118375000D01*
X134313704Y-118350496D01*
X134317304Y-118326227D01*
X134323265Y-118302429D01*
X134331530Y-118279329D01*
X134342020Y-118257151D01*
X134354633Y-118236107D01*
X134369247Y-118216402D01*
X134385723Y-118198223D01*
X134403902Y-118181747D01*
X134423607Y-118167133D01*
X134444651Y-118154520D01*
X134466829Y-118144030D01*
X134489929Y-118135765D01*
X134513727Y-118129804D01*
X134537996Y-118126204D01*
X134562500Y-118125000D01*
X135487500Y-118125000D01*
X135512004Y-118126204D01*
X135512004Y-118126204D01*
G37*
D13*
X135025000Y-119000000D03*
D10*
G36*
X138487004Y-118126204D02*
X138511273Y-118129804D01*
X138535071Y-118135765D01*
X138558171Y-118144030D01*
X138580349Y-118154520D01*
X138601393Y-118167133D01*
X138621098Y-118181747D01*
X138639277Y-118198223D01*
X138655753Y-118216402D01*
X138670367Y-118236107D01*
X138682980Y-118257151D01*
X138693470Y-118279329D01*
X138701735Y-118302429D01*
X138707696Y-118326227D01*
X138711296Y-118350496D01*
X138712500Y-118375000D01*
X138712500Y-119625000D01*
X138711296Y-119649504D01*
X138707696Y-119673773D01*
X138701735Y-119697571D01*
X138693470Y-119720671D01*
X138682980Y-119742849D01*
X138670367Y-119763893D01*
X138655753Y-119783598D01*
X138639277Y-119801777D01*
X138621098Y-119818253D01*
X138601393Y-119832867D01*
X138580349Y-119845480D01*
X138558171Y-119855970D01*
X138535071Y-119864235D01*
X138511273Y-119870196D01*
X138487004Y-119873796D01*
X138462500Y-119875000D01*
X137537500Y-119875000D01*
X137512996Y-119873796D01*
X137488727Y-119870196D01*
X137464929Y-119864235D01*
X137441829Y-119855970D01*
X137419651Y-119845480D01*
X137398607Y-119832867D01*
X137378902Y-119818253D01*
X137360723Y-119801777D01*
X137344247Y-119783598D01*
X137329633Y-119763893D01*
X137317020Y-119742849D01*
X137306530Y-119720671D01*
X137298265Y-119697571D01*
X137292304Y-119673773D01*
X137288704Y-119649504D01*
X137287500Y-119625000D01*
X137287500Y-118375000D01*
X137288704Y-118350496D01*
X137292304Y-118326227D01*
X137298265Y-118302429D01*
X137306530Y-118279329D01*
X137317020Y-118257151D01*
X137329633Y-118236107D01*
X137344247Y-118216402D01*
X137360723Y-118198223D01*
X137378902Y-118181747D01*
X137398607Y-118167133D01*
X137419651Y-118154520D01*
X137441829Y-118144030D01*
X137464929Y-118135765D01*
X137488727Y-118129804D01*
X137512996Y-118126204D01*
X137537500Y-118125000D01*
X138462500Y-118125000D01*
X138487004Y-118126204D01*
X138487004Y-118126204D01*
G37*
D13*
X138000000Y-119000000D03*
G04 #@! TD*
D10*
G04 #@! TO.C,R8*
G36*
X83649504Y-105801204D02*
X83673773Y-105804804D01*
X83697571Y-105810765D01*
X83720671Y-105819030D01*
X83742849Y-105829520D01*
X83763893Y-105842133D01*
X83783598Y-105856747D01*
X83801777Y-105873223D01*
X83818253Y-105891402D01*
X83832867Y-105911107D01*
X83845480Y-105932151D01*
X83855970Y-105954329D01*
X83864235Y-105977429D01*
X83870196Y-106001227D01*
X83873796Y-106025496D01*
X83875000Y-106050000D01*
X83875000Y-106975000D01*
X83873796Y-106999504D01*
X83870196Y-107023773D01*
X83864235Y-107047571D01*
X83855970Y-107070671D01*
X83845480Y-107092849D01*
X83832867Y-107113893D01*
X83818253Y-107133598D01*
X83801777Y-107151777D01*
X83783598Y-107168253D01*
X83763893Y-107182867D01*
X83742849Y-107195480D01*
X83720671Y-107205970D01*
X83697571Y-107214235D01*
X83673773Y-107220196D01*
X83649504Y-107223796D01*
X83625000Y-107225000D01*
X82375000Y-107225000D01*
X82350496Y-107223796D01*
X82326227Y-107220196D01*
X82302429Y-107214235D01*
X82279329Y-107205970D01*
X82257151Y-107195480D01*
X82236107Y-107182867D01*
X82216402Y-107168253D01*
X82198223Y-107151777D01*
X82181747Y-107133598D01*
X82167133Y-107113893D01*
X82154520Y-107092849D01*
X82144030Y-107070671D01*
X82135765Y-107047571D01*
X82129804Y-107023773D01*
X82126204Y-106999504D01*
X82125000Y-106975000D01*
X82125000Y-106050000D01*
X82126204Y-106025496D01*
X82129804Y-106001227D01*
X82135765Y-105977429D01*
X82144030Y-105954329D01*
X82154520Y-105932151D01*
X82167133Y-105911107D01*
X82181747Y-105891402D01*
X82198223Y-105873223D01*
X82216402Y-105856747D01*
X82236107Y-105842133D01*
X82257151Y-105829520D01*
X82279329Y-105819030D01*
X82302429Y-105810765D01*
X82326227Y-105804804D01*
X82350496Y-105801204D01*
X82375000Y-105800000D01*
X83625000Y-105800000D01*
X83649504Y-105801204D01*
X83649504Y-105801204D01*
G37*
D13*
X83000000Y-106512500D03*
D10*
G36*
X83649504Y-108776204D02*
X83673773Y-108779804D01*
X83697571Y-108785765D01*
X83720671Y-108794030D01*
X83742849Y-108804520D01*
X83763893Y-108817133D01*
X83783598Y-108831747D01*
X83801777Y-108848223D01*
X83818253Y-108866402D01*
X83832867Y-108886107D01*
X83845480Y-108907151D01*
X83855970Y-108929329D01*
X83864235Y-108952429D01*
X83870196Y-108976227D01*
X83873796Y-109000496D01*
X83875000Y-109025000D01*
X83875000Y-109950000D01*
X83873796Y-109974504D01*
X83870196Y-109998773D01*
X83864235Y-110022571D01*
X83855970Y-110045671D01*
X83845480Y-110067849D01*
X83832867Y-110088893D01*
X83818253Y-110108598D01*
X83801777Y-110126777D01*
X83783598Y-110143253D01*
X83763893Y-110157867D01*
X83742849Y-110170480D01*
X83720671Y-110180970D01*
X83697571Y-110189235D01*
X83673773Y-110195196D01*
X83649504Y-110198796D01*
X83625000Y-110200000D01*
X82375000Y-110200000D01*
X82350496Y-110198796D01*
X82326227Y-110195196D01*
X82302429Y-110189235D01*
X82279329Y-110180970D01*
X82257151Y-110170480D01*
X82236107Y-110157867D01*
X82216402Y-110143253D01*
X82198223Y-110126777D01*
X82181747Y-110108598D01*
X82167133Y-110088893D01*
X82154520Y-110067849D01*
X82144030Y-110045671D01*
X82135765Y-110022571D01*
X82129804Y-109998773D01*
X82126204Y-109974504D01*
X82125000Y-109950000D01*
X82125000Y-109025000D01*
X82126204Y-109000496D01*
X82129804Y-108976227D01*
X82135765Y-108952429D01*
X82144030Y-108929329D01*
X82154520Y-108907151D01*
X82167133Y-108886107D01*
X82181747Y-108866402D01*
X82198223Y-108848223D01*
X82216402Y-108831747D01*
X82236107Y-108817133D01*
X82257151Y-108804520D01*
X82279329Y-108794030D01*
X82302429Y-108785765D01*
X82326227Y-108779804D01*
X82350496Y-108776204D01*
X82375000Y-108775000D01*
X83625000Y-108775000D01*
X83649504Y-108776204D01*
X83649504Y-108776204D01*
G37*
D13*
X83000000Y-109487500D03*
G04 #@! TD*
D10*
G04 #@! TO.C,R9*
G36*
X98649504Y-111801204D02*
X98673773Y-111804804D01*
X98697571Y-111810765D01*
X98720671Y-111819030D01*
X98742849Y-111829520D01*
X98763893Y-111842133D01*
X98783598Y-111856747D01*
X98801777Y-111873223D01*
X98818253Y-111891402D01*
X98832867Y-111911107D01*
X98845480Y-111932151D01*
X98855970Y-111954329D01*
X98864235Y-111977429D01*
X98870196Y-112001227D01*
X98873796Y-112025496D01*
X98875000Y-112050000D01*
X98875000Y-112975000D01*
X98873796Y-112999504D01*
X98870196Y-113023773D01*
X98864235Y-113047571D01*
X98855970Y-113070671D01*
X98845480Y-113092849D01*
X98832867Y-113113893D01*
X98818253Y-113133598D01*
X98801777Y-113151777D01*
X98783598Y-113168253D01*
X98763893Y-113182867D01*
X98742849Y-113195480D01*
X98720671Y-113205970D01*
X98697571Y-113214235D01*
X98673773Y-113220196D01*
X98649504Y-113223796D01*
X98625000Y-113225000D01*
X97375000Y-113225000D01*
X97350496Y-113223796D01*
X97326227Y-113220196D01*
X97302429Y-113214235D01*
X97279329Y-113205970D01*
X97257151Y-113195480D01*
X97236107Y-113182867D01*
X97216402Y-113168253D01*
X97198223Y-113151777D01*
X97181747Y-113133598D01*
X97167133Y-113113893D01*
X97154520Y-113092849D01*
X97144030Y-113070671D01*
X97135765Y-113047571D01*
X97129804Y-113023773D01*
X97126204Y-112999504D01*
X97125000Y-112975000D01*
X97125000Y-112050000D01*
X97126204Y-112025496D01*
X97129804Y-112001227D01*
X97135765Y-111977429D01*
X97144030Y-111954329D01*
X97154520Y-111932151D01*
X97167133Y-111911107D01*
X97181747Y-111891402D01*
X97198223Y-111873223D01*
X97216402Y-111856747D01*
X97236107Y-111842133D01*
X97257151Y-111829520D01*
X97279329Y-111819030D01*
X97302429Y-111810765D01*
X97326227Y-111804804D01*
X97350496Y-111801204D01*
X97375000Y-111800000D01*
X98625000Y-111800000D01*
X98649504Y-111801204D01*
X98649504Y-111801204D01*
G37*
D13*
X98000000Y-112512500D03*
D10*
G36*
X98649504Y-114776204D02*
X98673773Y-114779804D01*
X98697571Y-114785765D01*
X98720671Y-114794030D01*
X98742849Y-114804520D01*
X98763893Y-114817133D01*
X98783598Y-114831747D01*
X98801777Y-114848223D01*
X98818253Y-114866402D01*
X98832867Y-114886107D01*
X98845480Y-114907151D01*
X98855970Y-114929329D01*
X98864235Y-114952429D01*
X98870196Y-114976227D01*
X98873796Y-115000496D01*
X98875000Y-115025000D01*
X98875000Y-115950000D01*
X98873796Y-115974504D01*
X98870196Y-115998773D01*
X98864235Y-116022571D01*
X98855970Y-116045671D01*
X98845480Y-116067849D01*
X98832867Y-116088893D01*
X98818253Y-116108598D01*
X98801777Y-116126777D01*
X98783598Y-116143253D01*
X98763893Y-116157867D01*
X98742849Y-116170480D01*
X98720671Y-116180970D01*
X98697571Y-116189235D01*
X98673773Y-116195196D01*
X98649504Y-116198796D01*
X98625000Y-116200000D01*
X97375000Y-116200000D01*
X97350496Y-116198796D01*
X97326227Y-116195196D01*
X97302429Y-116189235D01*
X97279329Y-116180970D01*
X97257151Y-116170480D01*
X97236107Y-116157867D01*
X97216402Y-116143253D01*
X97198223Y-116126777D01*
X97181747Y-116108598D01*
X97167133Y-116088893D01*
X97154520Y-116067849D01*
X97144030Y-116045671D01*
X97135765Y-116022571D01*
X97129804Y-115998773D01*
X97126204Y-115974504D01*
X97125000Y-115950000D01*
X97125000Y-115025000D01*
X97126204Y-115000496D01*
X97129804Y-114976227D01*
X97135765Y-114952429D01*
X97144030Y-114929329D01*
X97154520Y-114907151D01*
X97167133Y-114886107D01*
X97181747Y-114866402D01*
X97198223Y-114848223D01*
X97216402Y-114831747D01*
X97236107Y-114817133D01*
X97257151Y-114804520D01*
X97279329Y-114794030D01*
X97302429Y-114785765D01*
X97326227Y-114779804D01*
X97350496Y-114776204D01*
X97375000Y-114775000D01*
X98625000Y-114775000D01*
X98649504Y-114776204D01*
X98649504Y-114776204D01*
G37*
D13*
X98000000Y-115487500D03*
G04 #@! TD*
D10*
G04 #@! TO.C,R10*
G36*
X101649504Y-114776204D02*
X101673773Y-114779804D01*
X101697571Y-114785765D01*
X101720671Y-114794030D01*
X101742849Y-114804520D01*
X101763893Y-114817133D01*
X101783598Y-114831747D01*
X101801777Y-114848223D01*
X101818253Y-114866402D01*
X101832867Y-114886107D01*
X101845480Y-114907151D01*
X101855970Y-114929329D01*
X101864235Y-114952429D01*
X101870196Y-114976227D01*
X101873796Y-115000496D01*
X101875000Y-115025000D01*
X101875000Y-115950000D01*
X101873796Y-115974504D01*
X101870196Y-115998773D01*
X101864235Y-116022571D01*
X101855970Y-116045671D01*
X101845480Y-116067849D01*
X101832867Y-116088893D01*
X101818253Y-116108598D01*
X101801777Y-116126777D01*
X101783598Y-116143253D01*
X101763893Y-116157867D01*
X101742849Y-116170480D01*
X101720671Y-116180970D01*
X101697571Y-116189235D01*
X101673773Y-116195196D01*
X101649504Y-116198796D01*
X101625000Y-116200000D01*
X100375000Y-116200000D01*
X100350496Y-116198796D01*
X100326227Y-116195196D01*
X100302429Y-116189235D01*
X100279329Y-116180970D01*
X100257151Y-116170480D01*
X100236107Y-116157867D01*
X100216402Y-116143253D01*
X100198223Y-116126777D01*
X100181747Y-116108598D01*
X100167133Y-116088893D01*
X100154520Y-116067849D01*
X100144030Y-116045671D01*
X100135765Y-116022571D01*
X100129804Y-115998773D01*
X100126204Y-115974504D01*
X100125000Y-115950000D01*
X100125000Y-115025000D01*
X100126204Y-115000496D01*
X100129804Y-114976227D01*
X100135765Y-114952429D01*
X100144030Y-114929329D01*
X100154520Y-114907151D01*
X100167133Y-114886107D01*
X100181747Y-114866402D01*
X100198223Y-114848223D01*
X100216402Y-114831747D01*
X100236107Y-114817133D01*
X100257151Y-114804520D01*
X100279329Y-114794030D01*
X100302429Y-114785765D01*
X100326227Y-114779804D01*
X100350496Y-114776204D01*
X100375000Y-114775000D01*
X101625000Y-114775000D01*
X101649504Y-114776204D01*
X101649504Y-114776204D01*
G37*
D13*
X101000000Y-115487500D03*
D10*
G36*
X101649504Y-111801204D02*
X101673773Y-111804804D01*
X101697571Y-111810765D01*
X101720671Y-111819030D01*
X101742849Y-111829520D01*
X101763893Y-111842133D01*
X101783598Y-111856747D01*
X101801777Y-111873223D01*
X101818253Y-111891402D01*
X101832867Y-111911107D01*
X101845480Y-111932151D01*
X101855970Y-111954329D01*
X101864235Y-111977429D01*
X101870196Y-112001227D01*
X101873796Y-112025496D01*
X101875000Y-112050000D01*
X101875000Y-112975000D01*
X101873796Y-112999504D01*
X101870196Y-113023773D01*
X101864235Y-113047571D01*
X101855970Y-113070671D01*
X101845480Y-113092849D01*
X101832867Y-113113893D01*
X101818253Y-113133598D01*
X101801777Y-113151777D01*
X101783598Y-113168253D01*
X101763893Y-113182867D01*
X101742849Y-113195480D01*
X101720671Y-113205970D01*
X101697571Y-113214235D01*
X101673773Y-113220196D01*
X101649504Y-113223796D01*
X101625000Y-113225000D01*
X100375000Y-113225000D01*
X100350496Y-113223796D01*
X100326227Y-113220196D01*
X100302429Y-113214235D01*
X100279329Y-113205970D01*
X100257151Y-113195480D01*
X100236107Y-113182867D01*
X100216402Y-113168253D01*
X100198223Y-113151777D01*
X100181747Y-113133598D01*
X100167133Y-113113893D01*
X100154520Y-113092849D01*
X100144030Y-113070671D01*
X100135765Y-113047571D01*
X100129804Y-113023773D01*
X100126204Y-112999504D01*
X100125000Y-112975000D01*
X100125000Y-112050000D01*
X100126204Y-112025496D01*
X100129804Y-112001227D01*
X100135765Y-111977429D01*
X100144030Y-111954329D01*
X100154520Y-111932151D01*
X100167133Y-111911107D01*
X100181747Y-111891402D01*
X100198223Y-111873223D01*
X100216402Y-111856747D01*
X100236107Y-111842133D01*
X100257151Y-111829520D01*
X100279329Y-111819030D01*
X100302429Y-111810765D01*
X100326227Y-111804804D01*
X100350496Y-111801204D01*
X100375000Y-111800000D01*
X101625000Y-111800000D01*
X101649504Y-111801204D01*
X101649504Y-111801204D01*
G37*
D13*
X101000000Y-112512500D03*
G04 #@! TD*
D10*
G04 #@! TO.C,R11*
G36*
X104649504Y-114776204D02*
X104673773Y-114779804D01*
X104697571Y-114785765D01*
X104720671Y-114794030D01*
X104742849Y-114804520D01*
X104763893Y-114817133D01*
X104783598Y-114831747D01*
X104801777Y-114848223D01*
X104818253Y-114866402D01*
X104832867Y-114886107D01*
X104845480Y-114907151D01*
X104855970Y-114929329D01*
X104864235Y-114952429D01*
X104870196Y-114976227D01*
X104873796Y-115000496D01*
X104875000Y-115025000D01*
X104875000Y-115950000D01*
X104873796Y-115974504D01*
X104870196Y-115998773D01*
X104864235Y-116022571D01*
X104855970Y-116045671D01*
X104845480Y-116067849D01*
X104832867Y-116088893D01*
X104818253Y-116108598D01*
X104801777Y-116126777D01*
X104783598Y-116143253D01*
X104763893Y-116157867D01*
X104742849Y-116170480D01*
X104720671Y-116180970D01*
X104697571Y-116189235D01*
X104673773Y-116195196D01*
X104649504Y-116198796D01*
X104625000Y-116200000D01*
X103375000Y-116200000D01*
X103350496Y-116198796D01*
X103326227Y-116195196D01*
X103302429Y-116189235D01*
X103279329Y-116180970D01*
X103257151Y-116170480D01*
X103236107Y-116157867D01*
X103216402Y-116143253D01*
X103198223Y-116126777D01*
X103181747Y-116108598D01*
X103167133Y-116088893D01*
X103154520Y-116067849D01*
X103144030Y-116045671D01*
X103135765Y-116022571D01*
X103129804Y-115998773D01*
X103126204Y-115974504D01*
X103125000Y-115950000D01*
X103125000Y-115025000D01*
X103126204Y-115000496D01*
X103129804Y-114976227D01*
X103135765Y-114952429D01*
X103144030Y-114929329D01*
X103154520Y-114907151D01*
X103167133Y-114886107D01*
X103181747Y-114866402D01*
X103198223Y-114848223D01*
X103216402Y-114831747D01*
X103236107Y-114817133D01*
X103257151Y-114804520D01*
X103279329Y-114794030D01*
X103302429Y-114785765D01*
X103326227Y-114779804D01*
X103350496Y-114776204D01*
X103375000Y-114775000D01*
X104625000Y-114775000D01*
X104649504Y-114776204D01*
X104649504Y-114776204D01*
G37*
D13*
X104000000Y-115487500D03*
D10*
G36*
X104649504Y-111801204D02*
X104673773Y-111804804D01*
X104697571Y-111810765D01*
X104720671Y-111819030D01*
X104742849Y-111829520D01*
X104763893Y-111842133D01*
X104783598Y-111856747D01*
X104801777Y-111873223D01*
X104818253Y-111891402D01*
X104832867Y-111911107D01*
X104845480Y-111932151D01*
X104855970Y-111954329D01*
X104864235Y-111977429D01*
X104870196Y-112001227D01*
X104873796Y-112025496D01*
X104875000Y-112050000D01*
X104875000Y-112975000D01*
X104873796Y-112999504D01*
X104870196Y-113023773D01*
X104864235Y-113047571D01*
X104855970Y-113070671D01*
X104845480Y-113092849D01*
X104832867Y-113113893D01*
X104818253Y-113133598D01*
X104801777Y-113151777D01*
X104783598Y-113168253D01*
X104763893Y-113182867D01*
X104742849Y-113195480D01*
X104720671Y-113205970D01*
X104697571Y-113214235D01*
X104673773Y-113220196D01*
X104649504Y-113223796D01*
X104625000Y-113225000D01*
X103375000Y-113225000D01*
X103350496Y-113223796D01*
X103326227Y-113220196D01*
X103302429Y-113214235D01*
X103279329Y-113205970D01*
X103257151Y-113195480D01*
X103236107Y-113182867D01*
X103216402Y-113168253D01*
X103198223Y-113151777D01*
X103181747Y-113133598D01*
X103167133Y-113113893D01*
X103154520Y-113092849D01*
X103144030Y-113070671D01*
X103135765Y-113047571D01*
X103129804Y-113023773D01*
X103126204Y-112999504D01*
X103125000Y-112975000D01*
X103125000Y-112050000D01*
X103126204Y-112025496D01*
X103129804Y-112001227D01*
X103135765Y-111977429D01*
X103144030Y-111954329D01*
X103154520Y-111932151D01*
X103167133Y-111911107D01*
X103181747Y-111891402D01*
X103198223Y-111873223D01*
X103216402Y-111856747D01*
X103236107Y-111842133D01*
X103257151Y-111829520D01*
X103279329Y-111819030D01*
X103302429Y-111810765D01*
X103326227Y-111804804D01*
X103350496Y-111801204D01*
X103375000Y-111800000D01*
X104625000Y-111800000D01*
X104649504Y-111801204D01*
X104649504Y-111801204D01*
G37*
D13*
X104000000Y-112512500D03*
G04 #@! TD*
D14*
G04 #@! TO.C,U2*
X88200000Y-111250000D03*
X89000000Y-111250000D03*
X89800000Y-111250000D03*
X90600000Y-111250000D03*
X91400000Y-111250000D03*
X92200000Y-111250000D03*
X93000000Y-111250000D03*
X93800000Y-111250000D03*
D15*
X95250000Y-109800000D03*
X95250000Y-109000000D03*
X95250000Y-108200000D03*
X95250000Y-107400000D03*
X95250000Y-106600000D03*
X95250000Y-105800000D03*
X95250000Y-105000000D03*
X95250000Y-104200000D03*
D14*
X93800000Y-102750000D03*
X93000000Y-102750000D03*
X92200000Y-102750000D03*
X91400000Y-102750000D03*
X90600000Y-102750000D03*
X89800000Y-102750000D03*
X89000000Y-102750000D03*
X88200000Y-102750000D03*
D15*
X86750000Y-104200000D03*
X86750000Y-105000000D03*
X86750000Y-105800000D03*
X86750000Y-106600000D03*
X86750000Y-107400000D03*
X86750000Y-108200000D03*
X86750000Y-109000000D03*
X86750000Y-109800000D03*
G04 #@! TD*
D16*
G04 #@! TO.C,U3*
X138200000Y-126280000D03*
X138200000Y-121720000D03*
D17*
X130225000Y-122475000D03*
X133575000Y-125525000D03*
X130225000Y-125525000D03*
X133575000Y-122475000D03*
G04 #@! TD*
D18*
G04 #@! TO.C,U1*
X118040000Y-104350000D03*
X118040000Y-105000000D03*
X119960000Y-104350000D03*
X118040000Y-105650000D03*
X119960000Y-105650000D03*
G04 #@! TD*
M02*
