G04 #@! TF.GenerationSoftware,KiCad,Pcbnew,(5.0.1)-3*
G04 #@! TF.CreationDate,2021-05-27T11:26:18+02:00*
G04 #@! TF.ProjectId,mega328 400w load,6D6567613332382034303077206C6F61,rev?*
G04 #@! TF.SameCoordinates,Original*
G04 #@! TF.FileFunction,Copper,L2,Bot,Signal*
G04 #@! TF.FilePolarity,Positive*
%FSLAX46Y46*%
G04 Gerber Fmt 4.6, Leading zero omitted, Abs format (unit mm)*
G04 Created by KiCad (PCBNEW (5.0.1)-3) date 27/05/2021 11:26:18*
%MOMM*%
%LPD*%
G01*
G04 APERTURE LIST*
G04 #@! TA.AperFunction,ComponentPad*
%ADD10R,2.400000X2.400000*%
G04 #@! TD*
G04 #@! TA.AperFunction,ComponentPad*
%ADD11C,2.400000*%
G04 #@! TD*
G04 #@! TA.AperFunction,ComponentPad*
%ADD12O,2.500000X4.500000*%
G04 #@! TD*
G04 #@! TA.AperFunction,ComponentPad*
%ADD13R,2.500000X4.500000*%
G04 #@! TD*
G04 #@! TA.AperFunction,ComponentPad*
%ADD14O,2.400000X2.400000*%
G04 #@! TD*
G04 #@! TA.AperFunction,ComponentPad*
%ADD15C,1.500000*%
G04 #@! TD*
G04 #@! TA.AperFunction,ComponentPad*
%ADD16C,6.000000*%
G04 #@! TD*
G04 #@! TA.AperFunction,Conductor*
%ADD17C,0.050800*%
G04 #@! TD*
G04 #@! TA.AperFunction,ComponentPad*
%ADD18C,1.740000*%
G04 #@! TD*
G04 #@! TA.AperFunction,ComponentPad*
%ADD19O,2.200000X1.740000*%
G04 #@! TD*
G04 #@! TA.AperFunction,ComponentPad*
%ADD20R,3.500000X3.500000*%
G04 #@! TD*
G04 #@! TA.AperFunction,ComponentPad*
%ADD21C,3.000000*%
G04 #@! TD*
G04 #@! TA.AperFunction,ComponentPad*
%ADD22C,3.500000*%
G04 #@! TD*
G04 #@! TA.AperFunction,ComponentPad*
%ADD23C,1.100000*%
G04 #@! TD*
G04 #@! TA.AperFunction,ComponentPad*
%ADD24C,16.800000*%
G04 #@! TD*
G04 #@! TA.AperFunction,ComponentPad*
%ADD25C,0.900000*%
G04 #@! TD*
G04 #@! TA.AperFunction,ComponentPad*
%ADD26C,8.000000*%
G04 #@! TD*
G04 #@! TA.AperFunction,ComponentPad*
%ADD27R,1.600000X1.600000*%
G04 #@! TD*
G04 #@! TA.AperFunction,ComponentPad*
%ADD28C,1.600000*%
G04 #@! TD*
G04 #@! TA.AperFunction,ComponentPad*
%ADD29R,1.700000X1.700000*%
G04 #@! TD*
G04 #@! TA.AperFunction,ComponentPad*
%ADD30O,1.700000X1.700000*%
G04 #@! TD*
G04 #@! TA.AperFunction,ViaPad*
%ADD31C,0.700000*%
G04 #@! TD*
G04 #@! TA.AperFunction,ViaPad*
%ADD32C,0.800000*%
G04 #@! TD*
G04 #@! TA.AperFunction,Conductor*
%ADD33C,0.250000*%
G04 #@! TD*
G04 #@! TA.AperFunction,Conductor*
%ADD34C,0.500000*%
G04 #@! TD*
G04 #@! TA.AperFunction,Conductor*
%ADD35C,3.000000*%
G04 #@! TD*
G04 #@! TA.AperFunction,Conductor*
%ADD36C,1.000000*%
G04 #@! TD*
G04 APERTURE END LIST*
D10*
G04 #@! TO.P,C8,1*
G04 #@! TO.N,+VDC*
X155000000Y-102000000D03*
D11*
G04 #@! TO.P,C8,2*
G04 #@! TO.N,GND*
X155000000Y-109500000D03*
G04 #@! TD*
D12*
G04 #@! TO.P,Q1,3*
G04 #@! TO.N,Net-(J2-Pad1)*
X91450000Y-93000000D03*
G04 #@! TO.P,Q1,2*
G04 #@! TO.N,+VDC*
X86000000Y-93000000D03*
D13*
G04 #@! TO.P,Q1,1*
G04 #@! TO.N,Net-(C5-Pad1)*
X80550000Y-93000000D03*
G04 #@! TD*
G04 #@! TO.P,Q2,1*
G04 #@! TO.N,Net-(C5-Pad1)*
X103550000Y-93000000D03*
D12*
G04 #@! TO.P,Q2,2*
G04 #@! TO.N,+VDC*
X109000000Y-93000000D03*
G04 #@! TO.P,Q2,3*
G04 #@! TO.N,Net-(J2-Pad1)*
X114450000Y-93000000D03*
G04 #@! TD*
G04 #@! TO.P,Q3,3*
G04 #@! TO.N,Net-(J2-Pad1)*
X137450000Y-93000000D03*
G04 #@! TO.P,Q3,2*
G04 #@! TO.N,+VDC*
X132000000Y-93000000D03*
D13*
G04 #@! TO.P,Q3,1*
G04 #@! TO.N,Net-(C5-Pad1)*
X126550000Y-93000000D03*
G04 #@! TD*
G04 #@! TO.P,Q4,1*
G04 #@! TO.N,Net-(C5-Pad1)*
X149550000Y-93000000D03*
D12*
G04 #@! TO.P,Q4,2*
G04 #@! TO.N,+VDC*
X155000000Y-93000000D03*
G04 #@! TO.P,Q4,3*
G04 #@! TO.N,Net-(J2-Pad1)*
X160450000Y-93000000D03*
G04 #@! TD*
G04 #@! TO.P,Q5,3*
G04 #@! TO.N,Net-(J2-Pad1)*
X149550000Y-47000000D03*
G04 #@! TO.P,Q5,2*
G04 #@! TO.N,+VDC*
X155000000Y-47000000D03*
D13*
G04 #@! TO.P,Q5,1*
G04 #@! TO.N,Net-(C5-Pad1)*
X160450000Y-47000000D03*
G04 #@! TD*
G04 #@! TO.P,Q6,1*
G04 #@! TO.N,Net-(C5-Pad1)*
X137450000Y-47000000D03*
D12*
G04 #@! TO.P,Q6,2*
G04 #@! TO.N,+VDC*
X132000000Y-47000000D03*
G04 #@! TO.P,Q6,3*
G04 #@! TO.N,Net-(J2-Pad1)*
X126550000Y-47000000D03*
G04 #@! TD*
G04 #@! TO.P,Q7,3*
G04 #@! TO.N,Net-(J2-Pad1)*
X103550000Y-47000000D03*
G04 #@! TO.P,Q7,2*
G04 #@! TO.N,+VDC*
X109000000Y-47000000D03*
D13*
G04 #@! TO.P,Q7,1*
G04 #@! TO.N,Net-(C5-Pad1)*
X114450000Y-47000000D03*
G04 #@! TD*
G04 #@! TO.P,Q8,1*
G04 #@! TO.N,Net-(C5-Pad1)*
X91450000Y-47000000D03*
D12*
G04 #@! TO.P,Q8,2*
G04 #@! TO.N,+VDC*
X86000000Y-47000000D03*
G04 #@! TO.P,Q8,3*
G04 #@! TO.N,Net-(J2-Pad1)*
X80550000Y-47000000D03*
G04 #@! TD*
D11*
G04 #@! TO.P,R2,1*
G04 #@! TO.N,Vsense*
X125000000Y-102000000D03*
D14*
G04 #@! TO.P,R2,2*
G04 #@! TO.N,+VDC*
X140240000Y-102000000D03*
G04 #@! TD*
D15*
G04 #@! TO.P,Y1,1*
G04 #@! TO.N,Net-(C4-Pad2)*
X88000000Y-118000000D03*
G04 #@! TO.P,Y1,2*
G04 #@! TO.N,Net-(C6-Pad2)*
X92880000Y-118000000D03*
G04 #@! TD*
D16*
G04 #@! TO.P,J6,1*
G04 #@! TO.N,GND*
X175000000Y-122000000D03*
G04 #@! TO.P,J6,2*
G04 #@! TO.N,+VDC*
X167500000Y-122000000D03*
G04 #@! TD*
D17*
G04 #@! TO.N,GND*
G04 #@! TO.C,J7*
G36*
X146874505Y-120131204D02*
X146898773Y-120134804D01*
X146922572Y-120140765D01*
X146945671Y-120149030D01*
X146967850Y-120159520D01*
X146988893Y-120172132D01*
X147008599Y-120186747D01*
X147026777Y-120203223D01*
X147043253Y-120221401D01*
X147057868Y-120241107D01*
X147070480Y-120262150D01*
X147080970Y-120284329D01*
X147089235Y-120307428D01*
X147095196Y-120331227D01*
X147098796Y-120355495D01*
X147100000Y-120379999D01*
X147100000Y-121620001D01*
X147098796Y-121644505D01*
X147095196Y-121668773D01*
X147089235Y-121692572D01*
X147080970Y-121715671D01*
X147070480Y-121737850D01*
X147057868Y-121758893D01*
X147043253Y-121778599D01*
X147026777Y-121796777D01*
X147008599Y-121813253D01*
X146988893Y-121827868D01*
X146967850Y-121840480D01*
X146945671Y-121850970D01*
X146922572Y-121859235D01*
X146898773Y-121865196D01*
X146874505Y-121868796D01*
X146850001Y-121870000D01*
X145149999Y-121870000D01*
X145125495Y-121868796D01*
X145101227Y-121865196D01*
X145077428Y-121859235D01*
X145054329Y-121850970D01*
X145032150Y-121840480D01*
X145011107Y-121827868D01*
X144991401Y-121813253D01*
X144973223Y-121796777D01*
X144956747Y-121778599D01*
X144942132Y-121758893D01*
X144929520Y-121737850D01*
X144919030Y-121715671D01*
X144910765Y-121692572D01*
X144904804Y-121668773D01*
X144901204Y-121644505D01*
X144900000Y-121620001D01*
X144900000Y-120379999D01*
X144901204Y-120355495D01*
X144904804Y-120331227D01*
X144910765Y-120307428D01*
X144919030Y-120284329D01*
X144929520Y-120262150D01*
X144942132Y-120241107D01*
X144956747Y-120221401D01*
X144973223Y-120203223D01*
X144991401Y-120186747D01*
X145011107Y-120172132D01*
X145032150Y-120159520D01*
X145054329Y-120149030D01*
X145077428Y-120140765D01*
X145101227Y-120134804D01*
X145125495Y-120131204D01*
X145149999Y-120130000D01*
X146850001Y-120130000D01*
X146874505Y-120131204D01*
X146874505Y-120131204D01*
G37*
D18*
G04 #@! TD*
G04 #@! TO.P,J7,1*
G04 #@! TO.N,GND*
X146000000Y-121000000D03*
D19*
G04 #@! TO.P,J7,2*
G04 #@! TO.N,+12V*
X146000000Y-123540000D03*
G04 #@! TD*
D20*
G04 #@! TO.P,J8,1*
G04 #@! TO.N,GND*
X155000000Y-118000000D03*
D17*
G04 #@! TD*
G04 #@! TO.N,+12V*
G04 #@! TO.C,J8*
G36*
X156073513Y-122503611D02*
X156146318Y-122514411D01*
X156217714Y-122532295D01*
X156287013Y-122557090D01*
X156353548Y-122588559D01*
X156416678Y-122626398D01*
X156475795Y-122670242D01*
X156530330Y-122719670D01*
X156579758Y-122774205D01*
X156623602Y-122833322D01*
X156661441Y-122896452D01*
X156692910Y-122962987D01*
X156717705Y-123032286D01*
X156735589Y-123103682D01*
X156746389Y-123176487D01*
X156750000Y-123250000D01*
X156750000Y-124750000D01*
X156746389Y-124823513D01*
X156735589Y-124896318D01*
X156717705Y-124967714D01*
X156692910Y-125037013D01*
X156661441Y-125103548D01*
X156623602Y-125166678D01*
X156579758Y-125225795D01*
X156530330Y-125280330D01*
X156475795Y-125329758D01*
X156416678Y-125373602D01*
X156353548Y-125411441D01*
X156287013Y-125442910D01*
X156217714Y-125467705D01*
X156146318Y-125485589D01*
X156073513Y-125496389D01*
X156000000Y-125500000D01*
X154000000Y-125500000D01*
X153926487Y-125496389D01*
X153853682Y-125485589D01*
X153782286Y-125467705D01*
X153712987Y-125442910D01*
X153646452Y-125411441D01*
X153583322Y-125373602D01*
X153524205Y-125329758D01*
X153469670Y-125280330D01*
X153420242Y-125225795D01*
X153376398Y-125166678D01*
X153338559Y-125103548D01*
X153307090Y-125037013D01*
X153282295Y-124967714D01*
X153264411Y-124896318D01*
X153253611Y-124823513D01*
X153250000Y-124750000D01*
X153250000Y-123250000D01*
X153253611Y-123176487D01*
X153264411Y-123103682D01*
X153282295Y-123032286D01*
X153307090Y-122962987D01*
X153338559Y-122896452D01*
X153376398Y-122833322D01*
X153420242Y-122774205D01*
X153469670Y-122719670D01*
X153524205Y-122670242D01*
X153583322Y-122626398D01*
X153646452Y-122588559D01*
X153712987Y-122557090D01*
X153782286Y-122532295D01*
X153853682Y-122514411D01*
X153926487Y-122503611D01*
X154000000Y-122500000D01*
X156000000Y-122500000D01*
X156073513Y-122503611D01*
X156073513Y-122503611D01*
G37*
D21*
G04 #@! TO.P,J8,2*
G04 #@! TO.N,+12V*
X155000000Y-124000000D03*
D17*
G04 #@! TD*
G04 #@! TO.N,N/C*
G04 #@! TO.C,J8*
G36*
X160660765Y-119254213D02*
X160745704Y-119266813D01*
X160828999Y-119287677D01*
X160909848Y-119316605D01*
X160987472Y-119353319D01*
X161061124Y-119397464D01*
X161130094Y-119448616D01*
X161193718Y-119506282D01*
X161251384Y-119569906D01*
X161302536Y-119638876D01*
X161346681Y-119712528D01*
X161383395Y-119790152D01*
X161412323Y-119871001D01*
X161433187Y-119954296D01*
X161445787Y-120039235D01*
X161450000Y-120125000D01*
X161450000Y-121875000D01*
X161445787Y-121960765D01*
X161433187Y-122045704D01*
X161412323Y-122128999D01*
X161383395Y-122209848D01*
X161346681Y-122287472D01*
X161302536Y-122361124D01*
X161251384Y-122430094D01*
X161193718Y-122493718D01*
X161130094Y-122551384D01*
X161061124Y-122602536D01*
X160987472Y-122646681D01*
X160909848Y-122683395D01*
X160828999Y-122712323D01*
X160745704Y-122733187D01*
X160660765Y-122745787D01*
X160575000Y-122750000D01*
X158825000Y-122750000D01*
X158739235Y-122745787D01*
X158654296Y-122733187D01*
X158571001Y-122712323D01*
X158490152Y-122683395D01*
X158412528Y-122646681D01*
X158338876Y-122602536D01*
X158269906Y-122551384D01*
X158206282Y-122493718D01*
X158148616Y-122430094D01*
X158097464Y-122361124D01*
X158053319Y-122287472D01*
X158016605Y-122209848D01*
X157987677Y-122128999D01*
X157966813Y-122045704D01*
X157954213Y-121960765D01*
X157950000Y-121875000D01*
X157950000Y-120125000D01*
X157954213Y-120039235D01*
X157966813Y-119954296D01*
X157987677Y-119871001D01*
X158016605Y-119790152D01*
X158053319Y-119712528D01*
X158097464Y-119638876D01*
X158148616Y-119569906D01*
X158206282Y-119506282D01*
X158269906Y-119448616D01*
X158338876Y-119397464D01*
X158412528Y-119353319D01*
X158490152Y-119316605D01*
X158571001Y-119287677D01*
X158654296Y-119266813D01*
X158739235Y-119254213D01*
X158825000Y-119250000D01*
X160575000Y-119250000D01*
X160660765Y-119254213D01*
X160660765Y-119254213D01*
G37*
D22*
G04 #@! TO.P,J8,3*
G04 #@! TO.N,N/C*
X159700000Y-121000000D03*
G04 #@! TD*
D23*
G04 #@! TO.P,J2,1*
G04 #@! TO.N,Net-(J2-Pad1)*
X185454773Y-54545227D03*
X181000000Y-52700000D03*
X176545227Y-54545227D03*
X174700000Y-59000000D03*
X176545227Y-63454773D03*
X181000000Y-65300000D03*
X185454773Y-63454773D03*
X187300000Y-59000000D03*
D24*
X181000000Y-59000000D03*
G04 #@! TD*
G04 #@! TO.P,J3,1*
G04 #@! TO.N,GND*
X181000000Y-107000000D03*
D23*
X187300000Y-107000000D03*
X185454773Y-111454773D03*
X181000000Y-113300000D03*
X176545227Y-111454773D03*
X174700000Y-107000000D03*
X176545227Y-102545227D03*
X181000000Y-100700000D03*
X185454773Y-102545227D03*
G04 #@! TD*
D25*
G04 #@! TO.P,REF\002A\002A,1*
G04 #@! TO.N,N/C*
X187121320Y-121878680D03*
X185000000Y-121000000D03*
X182878680Y-121878680D03*
X182000000Y-124000000D03*
X182878680Y-126121320D03*
X185000000Y-127000000D03*
X187121320Y-126121320D03*
X188000000Y-124000000D03*
D26*
X185000000Y-124000000D03*
G04 #@! TD*
D25*
G04 #@! TO.P,REF\002A\002A,1*
G04 #@! TO.N,N/C*
X74121320Y-41878680D03*
X72000000Y-41000000D03*
X69878680Y-41878680D03*
X69000000Y-44000000D03*
X69878680Y-46121320D03*
X72000000Y-47000000D03*
X74121320Y-46121320D03*
X75000000Y-44000000D03*
D26*
X72000000Y-44000000D03*
G04 #@! TD*
D25*
G04 #@! TO.P,REF\002A\002A,1*
G04 #@! TO.N,N/C*
X74121320Y-121878680D03*
X72000000Y-121000000D03*
X69878680Y-121878680D03*
X69000000Y-124000000D03*
X69878680Y-126121320D03*
X72000000Y-127000000D03*
X74121320Y-126121320D03*
X75000000Y-124000000D03*
D26*
X72000000Y-124000000D03*
G04 #@! TD*
D25*
G04 #@! TO.P,REF\002A\002A,1*
G04 #@! TO.N,N/C*
X187121320Y-41878680D03*
X185000000Y-41000000D03*
X182878680Y-41878680D03*
X182000000Y-44000000D03*
X182878680Y-46121320D03*
X185000000Y-47000000D03*
X187121320Y-46121320D03*
X188000000Y-44000000D03*
D26*
X185000000Y-44000000D03*
G04 #@! TD*
D27*
G04 #@! TO.P,C14,1*
G04 #@! TO.N,+12V*
X144000000Y-114000000D03*
D28*
G04 #@! TO.P,C14,2*
G04 #@! TO.N,GND*
X141500000Y-114000000D03*
G04 #@! TD*
D29*
G04 #@! TO.P,J4,1*
G04 #@! TO.N,GND*
X75000000Y-113000000D03*
D30*
G04 #@! TO.P,J4,2*
G04 #@! TO.N,TX*
X75000000Y-110460000D03*
G04 #@! TO.P,J4,3*
G04 #@! TO.N,RX*
X75000000Y-107920000D03*
G04 #@! TO.P,J4,4*
G04 #@! TO.N,+5V*
X75000000Y-105380000D03*
G04 #@! TD*
D29*
G04 #@! TO.P,J5,1*
G04 #@! TO.N,Net-(C7-Pad2)*
X70000000Y-113000000D03*
D30*
G04 #@! TO.P,J5,2*
G04 #@! TO.N,TX*
X70000000Y-110460000D03*
G04 #@! TO.P,J5,3*
G04 #@! TO.N,RX*
X70000000Y-107920000D03*
G04 #@! TO.P,J5,4*
G04 #@! TO.N,+5V*
X70000000Y-105380000D03*
G04 #@! TO.P,J5,5*
G04 #@! TO.N,GND*
X70000000Y-102840000D03*
G04 #@! TO.P,J5,6*
X70000000Y-100300000D03*
G04 #@! TD*
D29*
G04 #@! TO.P,J9,1*
G04 #@! TO.N,GND*
X116000000Y-126000000D03*
D30*
G04 #@! TO.P,J9,2*
G04 #@! TO.N,+5V*
X113460000Y-126000000D03*
G04 #@! TO.P,J9,3*
G04 #@! TO.N,MISO*
X110920000Y-126000000D03*
G04 #@! TO.P,J9,4*
G04 #@! TO.N,MOSI*
X108380000Y-126000000D03*
G04 #@! TO.P,J9,5*
G04 #@! TO.N,SCK*
X105840000Y-126000000D03*
G04 #@! TO.P,J9,6*
G04 #@! TO.N,CS*
X103300000Y-126000000D03*
G04 #@! TD*
D31*
G04 #@! TO.N,GND*
X129500000Y-126000000D03*
X134000000Y-126000000D03*
X134000000Y-122000000D03*
X129500000Y-122000000D03*
X91500000Y-113000000D03*
X89500000Y-109000000D03*
X91500000Y-105500000D03*
X88000000Y-113000000D03*
X90500000Y-122000000D03*
X120000000Y-120000000D03*
X128000000Y-115000000D03*
X134000000Y-115000000D03*
X139500000Y-124000000D03*
X100000000Y-85000000D03*
X125000000Y-85000000D03*
X145000000Y-85000000D03*
X97000000Y-50000000D03*
X120500000Y-50000000D03*
X143500000Y-50000000D03*
X166500000Y-50000000D03*
X74500000Y-50000000D03*
X75000000Y-90000000D03*
X80000000Y-100000000D03*
X84000000Y-104000000D03*
X80000000Y-120000000D03*
X116000000Y-105000000D03*
X120000000Y-110000000D03*
X120000000Y-115000000D03*
X171000000Y-99000000D03*
X171000000Y-101000000D03*
X171000000Y-103000000D03*
X171000000Y-105000000D03*
X171000000Y-107000000D03*
X171000000Y-109000000D03*
X171000000Y-111000000D03*
X171000000Y-113000000D03*
X171000000Y-115000000D03*
X161000000Y-99000000D03*
X161000000Y-101000000D03*
X161000000Y-103000000D03*
X161000000Y-109000000D03*
X161000000Y-111000000D03*
X161000000Y-113000000D03*
X161000000Y-115000000D03*
X100000000Y-126000000D03*
X98000000Y-122000000D03*
X189000000Y-99000000D03*
X187000000Y-99000000D03*
X189000000Y-101000000D03*
X173000000Y-99000000D03*
X173000000Y-115000000D03*
X189000000Y-115000000D03*
X189000000Y-113000000D03*
X187000000Y-115000000D03*
X179000000Y-128000000D03*
X164000000Y-128000000D03*
D32*
X122000000Y-104000000D03*
X116000000Y-115000000D03*
X116000000Y-110000000D03*
X145000000Y-99000000D03*
X125000000Y-99000000D03*
X108000000Y-103000000D03*
X121000000Y-93000000D03*
X145000000Y-105000000D03*
G04 #@! TO.N,Vsense*
X89000000Y-99000000D03*
X116000000Y-101025000D03*
G04 #@! TO.N,+5V*
X138200000Y-121720000D03*
X82837500Y-106350000D03*
X92000000Y-109000000D03*
D31*
G04 #@! TO.N,TX*
X88200000Y-109200000D03*
G04 #@! TO.N,RX*
X88200000Y-108000000D03*
G04 #@! TO.N,GATE*
X103000000Y-102000000D03*
X97000000Y-106000000D03*
D32*
G04 #@! TO.N,Isense*
X88000000Y-101000000D03*
X116000000Y-103000000D03*
D31*
G04 #@! TO.N,Net-(J2-Pad1)*
X171000000Y-67000000D03*
X171000000Y-51000000D03*
X189000000Y-51000000D03*
X189000000Y-67000000D03*
X188000000Y-67000000D03*
X187000000Y-67000000D03*
X189000000Y-66000000D03*
X189000000Y-65000000D03*
X189000000Y-52000000D03*
X189000000Y-53000000D03*
X188000000Y-51000000D03*
X187000000Y-51000000D03*
X172000000Y-51000000D03*
X173000000Y-51000000D03*
X171000000Y-52000000D03*
X171000000Y-53000000D03*
X171000000Y-66000000D03*
X171000000Y-65000000D03*
X172000000Y-67000000D03*
X173000000Y-67000000D03*
G04 #@! TO.N,SCK*
X95000000Y-103000000D03*
X101000000Y-106000000D03*
G04 #@! TD*
D33*
G04 #@! TO.N,Vsense*
X113975000Y-99000000D02*
X116000000Y-101025000D01*
X89000000Y-99000000D02*
X113975000Y-99000000D01*
D34*
G04 #@! TO.N,Net-(C5-Pad1)*
X160450000Y-47000000D02*
X160450000Y-42000000D01*
X91450000Y-47000000D02*
X91450000Y-42000000D01*
X91450000Y-42000000D02*
X89000000Y-42000000D01*
X114450000Y-47000000D02*
X114450000Y-42000000D01*
X114450000Y-42000000D02*
X91450000Y-42000000D01*
X149550000Y-93000000D02*
X149550000Y-97000000D01*
X80550000Y-93000000D02*
X80550000Y-97000000D01*
X80550000Y-97000000D02*
X79000000Y-97000000D01*
X103550000Y-93000000D02*
X103550000Y-97000000D01*
X103550000Y-97000000D02*
X80550000Y-97000000D01*
X126550000Y-93000000D02*
X126550000Y-97000000D01*
X149550000Y-97000000D02*
X126550000Y-97000000D01*
X126550000Y-97000000D02*
X103550000Y-97000000D01*
X89000000Y-42000000D02*
X78000000Y-42000000D01*
X78000000Y-42000000D02*
X78000000Y-97000000D01*
X78000000Y-97000000D02*
X79000000Y-97000000D01*
X137450000Y-47000000D02*
X137450000Y-42000000D01*
X160450000Y-42000000D02*
X137450000Y-42000000D01*
X137450000Y-42000000D02*
X114450000Y-42000000D01*
D35*
G04 #@! TO.N,+VDC*
X167500000Y-122000000D02*
X167500000Y-119500000D01*
X167500000Y-119500000D02*
X166000000Y-118000000D01*
X155000000Y-93000000D02*
X155000000Y-102000000D01*
D36*
X140240000Y-102000000D02*
X155000000Y-102000000D01*
D35*
X86000000Y-70000000D02*
X109000000Y-70000000D01*
X109000000Y-70000000D02*
X109000000Y-93000000D01*
X109000000Y-47000000D02*
X109000000Y-70000000D01*
X86000000Y-70000000D02*
X86000000Y-93000000D01*
X86000000Y-47000000D02*
X86000000Y-70000000D01*
X109000000Y-70000000D02*
X132000000Y-70000000D01*
X132000000Y-47000000D02*
X132000000Y-70000000D01*
X132000000Y-70000000D02*
X132000000Y-93000000D01*
X132000000Y-70000000D02*
X155000000Y-70000000D01*
X155000000Y-47000000D02*
X155000000Y-70000000D01*
X155000000Y-70000000D02*
X155000000Y-93000000D01*
X155000000Y-70000000D02*
X166000000Y-70000000D01*
X166000000Y-70000000D02*
X166000000Y-118000000D01*
D34*
G04 #@! TO.N,+5V*
X89350000Y-106350000D02*
X82837500Y-106350000D01*
X107000000Y-124000000D02*
X92000000Y-109000000D01*
X138200000Y-121720000D02*
X137700000Y-121720000D01*
X137700000Y-121720000D02*
X135420000Y-124000000D01*
X92000000Y-109000000D02*
X89350000Y-106350000D01*
X113460000Y-126000000D02*
X113460000Y-124000000D01*
X135420000Y-124000000D02*
X113460000Y-124000000D01*
X113460000Y-124000000D02*
X107000000Y-124000000D01*
D33*
G04 #@! TO.N,TX*
X70000000Y-110460000D02*
X75000000Y-110460000D01*
X86940000Y-110460000D02*
X88200000Y-109200000D01*
X75000000Y-110460000D02*
X86940000Y-110460000D01*
G04 #@! TO.N,RX*
X75000000Y-107920000D02*
X70000000Y-107920000D01*
X88120000Y-107920000D02*
X88200000Y-108000000D01*
X75000000Y-107920000D02*
X88120000Y-107920000D01*
G04 #@! TO.N,GATE*
X97000000Y-106000000D02*
X101000000Y-102000000D01*
X101000000Y-102000000D02*
X103000000Y-102000000D01*
G04 #@! TO.N,Isense*
X114000000Y-101000000D02*
X116000000Y-103000000D01*
X88000000Y-101000000D02*
X114000000Y-101000000D01*
G04 #@! TO.N,SCK*
X95000000Y-106000000D02*
X95000000Y-103000000D01*
X96000000Y-107000000D02*
X95000000Y-106000000D01*
X98000000Y-107000000D02*
X96000000Y-107000000D01*
X101000000Y-106000000D02*
X99000000Y-106000000D01*
X99000000Y-106000000D02*
X98000000Y-107000000D01*
G04 #@! TD*
G04 #@! TO.N,+VDC*
G36*
X167875000Y-67426422D02*
X167831833Y-67568725D01*
X167789356Y-68000000D01*
X167800000Y-68108070D01*
X167800000Y-74875000D01*
X85125000Y-74875000D01*
X85125000Y-64125000D01*
X167875000Y-64125000D01*
X167875000Y-67426422D01*
X167875000Y-67426422D01*
G37*
X167875000Y-67426422D02*
X167831833Y-67568725D01*
X167789356Y-68000000D01*
X167800000Y-68108070D01*
X167800000Y-74875000D01*
X85125000Y-74875000D01*
X85125000Y-64125000D01*
X167875000Y-64125000D01*
X167875000Y-67426422D01*
G04 #@! TO.N,GND*
G36*
X183694691Y-39696971D02*
X182880292Y-40034306D01*
X182147354Y-40524040D01*
X181524040Y-41147354D01*
X181034306Y-41880292D01*
X180696971Y-42694691D01*
X180525000Y-43559251D01*
X180525000Y-44440749D01*
X180696971Y-45305309D01*
X181034306Y-46119708D01*
X181524040Y-46852646D01*
X182147354Y-47475960D01*
X182880292Y-47965694D01*
X183694691Y-48303029D01*
X184559251Y-48475000D01*
X185440749Y-48475000D01*
X186305309Y-48303029D01*
X187119708Y-47965694D01*
X187852646Y-47475960D01*
X188475960Y-46852646D01*
X188965694Y-46119708D01*
X189303029Y-45305309D01*
X189450000Y-44566433D01*
X189450000Y-49375000D01*
X170000000Y-49375000D01*
X169760823Y-49422575D01*
X169558058Y-49558058D01*
X169422575Y-49760823D01*
X169375000Y-50000000D01*
X169375000Y-62412137D01*
X168813202Y-62036756D01*
X168000000Y-61875000D01*
X158625000Y-61875000D01*
X158625000Y-46821923D01*
X158572549Y-46289376D01*
X158365267Y-45606061D01*
X158349654Y-45576851D01*
X158326167Y-45338384D01*
X158133180Y-44702194D01*
X157819788Y-44115878D01*
X157398032Y-43601968D01*
X156884122Y-43180212D01*
X156297806Y-42866820D01*
X155830290Y-42725000D01*
X159725001Y-42725000D01*
X159725001Y-44272702D01*
X159200000Y-44272702D01*
X159106884Y-44281873D01*
X159017346Y-44309034D01*
X158934827Y-44353141D01*
X158862499Y-44412499D01*
X158803141Y-44484827D01*
X158759034Y-44567346D01*
X158731873Y-44656884D01*
X158722702Y-44750000D01*
X158722702Y-49250000D01*
X158731873Y-49343116D01*
X158759034Y-49432654D01*
X158803141Y-49515173D01*
X158862499Y-49587501D01*
X158934827Y-49646859D01*
X159017346Y-49690966D01*
X159106884Y-49718127D01*
X159200000Y-49727298D01*
X161700000Y-49727298D01*
X161793116Y-49718127D01*
X161882654Y-49690966D01*
X161965173Y-49646859D01*
X162037501Y-49587501D01*
X162096859Y-49515173D01*
X162140966Y-49432654D01*
X162168127Y-49343116D01*
X162177298Y-49250000D01*
X162177298Y-44750000D01*
X162168127Y-44656884D01*
X162140966Y-44567346D01*
X162096859Y-44484827D01*
X162037501Y-44412499D01*
X161965173Y-44353141D01*
X161882654Y-44309034D01*
X161793116Y-44281873D01*
X161700000Y-44272702D01*
X161175000Y-44272702D01*
X161175000Y-42035607D01*
X161178507Y-42000000D01*
X161164509Y-41857875D01*
X161123053Y-41721212D01*
X161055731Y-41595263D01*
X160965132Y-41484868D01*
X160854737Y-41394269D01*
X160728788Y-41326947D01*
X160592125Y-41285491D01*
X160485607Y-41275000D01*
X160450000Y-41271493D01*
X160414393Y-41275000D01*
X137485607Y-41275000D01*
X137450000Y-41271493D01*
X137414393Y-41275000D01*
X114485607Y-41275000D01*
X114450000Y-41271493D01*
X114414393Y-41275000D01*
X91485607Y-41275000D01*
X91450000Y-41271493D01*
X91414393Y-41275000D01*
X78035607Y-41275000D01*
X78000000Y-41271493D01*
X77964393Y-41275000D01*
X77857875Y-41285491D01*
X77721212Y-41326947D01*
X77595263Y-41394269D01*
X77484868Y-41484868D01*
X77394269Y-41595263D01*
X77326947Y-41721212D01*
X77285491Y-41857875D01*
X77271493Y-42000000D01*
X77275000Y-42035607D01*
X77275001Y-96964382D01*
X77271493Y-97000000D01*
X77285491Y-97142125D01*
X77326947Y-97278788D01*
X77394269Y-97404737D01*
X77484868Y-97515132D01*
X77595263Y-97605731D01*
X77721212Y-97673053D01*
X77857875Y-97714509D01*
X77964393Y-97725000D01*
X78000000Y-97728507D01*
X78035607Y-97725000D01*
X80514393Y-97725000D01*
X80550000Y-97728507D01*
X80585607Y-97725000D01*
X103514393Y-97725000D01*
X103550000Y-97728507D01*
X103585607Y-97725000D01*
X126514393Y-97725000D01*
X126550000Y-97728507D01*
X126585607Y-97725000D01*
X149514393Y-97725000D01*
X149550000Y-97728507D01*
X149585607Y-97725000D01*
X149692125Y-97714509D01*
X149828788Y-97673053D01*
X149954737Y-97605731D01*
X150065132Y-97515132D01*
X150155731Y-97404737D01*
X150223053Y-97278788D01*
X150264509Y-97142125D01*
X150278507Y-97000000D01*
X150275000Y-96964393D01*
X150275000Y-95727298D01*
X150800000Y-95727298D01*
X150893116Y-95718127D01*
X150982654Y-95690966D01*
X151065173Y-95646859D01*
X151137501Y-95587501D01*
X151196859Y-95515173D01*
X151240966Y-95432654D01*
X151268127Y-95343116D01*
X151277298Y-95250000D01*
X151277298Y-90750000D01*
X151268127Y-90656884D01*
X151240966Y-90567346D01*
X151196859Y-90484827D01*
X151137501Y-90412499D01*
X151065173Y-90353141D01*
X150982654Y-90309034D01*
X150893116Y-90281873D01*
X150800000Y-90272702D01*
X148300000Y-90272702D01*
X148206884Y-90281873D01*
X148117346Y-90309034D01*
X148034827Y-90353141D01*
X147962499Y-90412499D01*
X147903141Y-90484827D01*
X147859034Y-90567346D01*
X147831873Y-90656884D01*
X147822702Y-90750000D01*
X147822702Y-95250000D01*
X147831873Y-95343116D01*
X147859034Y-95432654D01*
X147903141Y-95515173D01*
X147962499Y-95587501D01*
X148034827Y-95646859D01*
X148117346Y-95690966D01*
X148206884Y-95718127D01*
X148300000Y-95727298D01*
X148825001Y-95727298D01*
X148825001Y-96275000D01*
X134499002Y-96275000D01*
X134819788Y-95884122D01*
X135133180Y-95297806D01*
X135326167Y-94661616D01*
X135349654Y-94423149D01*
X135365267Y-94393939D01*
X135572549Y-93710624D01*
X135575001Y-93685730D01*
X135575001Y-94092109D01*
X135602131Y-94367564D01*
X135709345Y-94721003D01*
X135883452Y-95046734D01*
X136117761Y-95332240D01*
X136403267Y-95566549D01*
X136728998Y-95740656D01*
X137082437Y-95847870D01*
X137450000Y-95884072D01*
X137817564Y-95847870D01*
X138171003Y-95740656D01*
X138496734Y-95566549D01*
X138782240Y-95332240D01*
X139016549Y-95046734D01*
X139190656Y-94721003D01*
X139297870Y-94367564D01*
X139325000Y-94092109D01*
X139325000Y-91907891D01*
X139297870Y-91632436D01*
X139190656Y-91278997D01*
X139016549Y-90953266D01*
X138782240Y-90667760D01*
X138496733Y-90433451D01*
X138171002Y-90259344D01*
X137817563Y-90152130D01*
X137450000Y-90115928D01*
X137082436Y-90152130D01*
X136728997Y-90259344D01*
X136403266Y-90433451D01*
X136117760Y-90667760D01*
X135883451Y-90953267D01*
X135709344Y-91278998D01*
X135625000Y-91557044D01*
X135625000Y-77125000D01*
X151375000Y-77125000D01*
X151375001Y-92821914D01*
X151375000Y-92821924D01*
X151375001Y-99375000D01*
X142282656Y-99375000D01*
X142096209Y-99221987D01*
X141518579Y-98913237D01*
X140891814Y-98723110D01*
X140403344Y-98675000D01*
X140076656Y-98675000D01*
X139588186Y-98723110D01*
X138961421Y-98913237D01*
X138383791Y-99221987D01*
X137877494Y-99637494D01*
X137574895Y-100006213D01*
X137454399Y-99907939D01*
X137412862Y-99880342D01*
X137371747Y-99852190D01*
X137364993Y-99848537D01*
X137020351Y-99665287D01*
X136974249Y-99646285D01*
X136928443Y-99626653D01*
X136921108Y-99624382D01*
X136547436Y-99511564D01*
X136498525Y-99501880D01*
X136449777Y-99491518D01*
X136442140Y-99490715D01*
X136053671Y-99452625D01*
X136027018Y-99450000D01*
X128972982Y-99450000D01*
X128971071Y-99450188D01*
X128968235Y-99450208D01*
X128943385Y-99452820D01*
X128918405Y-99452820D01*
X128910768Y-99453623D01*
X128522869Y-99497133D01*
X128474146Y-99507490D01*
X128425210Y-99517179D01*
X128417874Y-99519450D01*
X128045813Y-99637474D01*
X127999968Y-99657123D01*
X127953907Y-99676108D01*
X127947151Y-99679760D01*
X127605101Y-99867805D01*
X127563968Y-99895969D01*
X127522450Y-99923554D01*
X127516538Y-99928445D01*
X127516532Y-99928449D01*
X127516527Y-99928454D01*
X127217522Y-100179349D01*
X127182637Y-100214972D01*
X127147273Y-100250090D01*
X127142419Y-100256041D01*
X126897835Y-100560242D01*
X126870521Y-100601982D01*
X126842664Y-100643281D01*
X126839059Y-100650061D01*
X126658220Y-100995974D01*
X126639539Y-101042213D01*
X126620229Y-101088148D01*
X126618009Y-101095499D01*
X126543381Y-101349064D01*
X126484366Y-101206590D01*
X126301058Y-100932249D01*
X126067751Y-100698942D01*
X125793410Y-100515634D01*
X125488580Y-100389369D01*
X125164973Y-100325000D01*
X124835027Y-100325000D01*
X124511420Y-100389369D01*
X124206590Y-100515634D01*
X123932249Y-100698942D01*
X123698942Y-100932249D01*
X123515634Y-101206590D01*
X123389369Y-101511420D01*
X123325000Y-101835027D01*
X123325000Y-102164973D01*
X123389369Y-102488580D01*
X123515634Y-102793410D01*
X123698942Y-103067751D01*
X123932249Y-103301058D01*
X124206590Y-103484366D01*
X124511420Y-103610631D01*
X124835027Y-103675000D01*
X125164973Y-103675000D01*
X125488580Y-103610631D01*
X125793410Y-103484366D01*
X126067751Y-103301058D01*
X126301058Y-103067751D01*
X126484366Y-102793410D01*
X126542655Y-102652689D01*
X126630871Y-102937670D01*
X126650186Y-102983618D01*
X126668862Y-103029843D01*
X126672467Y-103036624D01*
X126858118Y-103379979D01*
X126885997Y-103421311D01*
X126913290Y-103463019D01*
X126918143Y-103468970D01*
X127166950Y-103769725D01*
X127202333Y-103804862D01*
X127237199Y-103840465D01*
X127243116Y-103845360D01*
X127545600Y-104092061D01*
X127587152Y-104119668D01*
X127628252Y-104147810D01*
X127635007Y-104151463D01*
X127979649Y-104334713D01*
X128025725Y-104353704D01*
X128071556Y-104373347D01*
X128078892Y-104375618D01*
X128452563Y-104488436D01*
X128501489Y-104498123D01*
X128550223Y-104508482D01*
X128557860Y-104509285D01*
X128946329Y-104547375D01*
X128972982Y-104550000D01*
X136027018Y-104550000D01*
X136028929Y-104549812D01*
X136031765Y-104549792D01*
X136056615Y-104547180D01*
X136081595Y-104547180D01*
X136089232Y-104546377D01*
X136477132Y-104502867D01*
X136525862Y-104492509D01*
X136574790Y-104482821D01*
X136582126Y-104480550D01*
X136954187Y-104362526D01*
X137000051Y-104342869D01*
X137046094Y-104323891D01*
X137052844Y-104320242D01*
X137052848Y-104320240D01*
X137052851Y-104320238D01*
X137394899Y-104132195D01*
X137436032Y-104104031D01*
X137477550Y-104076446D01*
X137483462Y-104071555D01*
X137483468Y-104071551D01*
X137483473Y-104071546D01*
X137575403Y-103994407D01*
X137877494Y-104362506D01*
X138383791Y-104778013D01*
X138961421Y-105086763D01*
X139588186Y-105276890D01*
X140076656Y-105325000D01*
X140403344Y-105325000D01*
X140891814Y-105276890D01*
X141518579Y-105086763D01*
X142096209Y-104778013D01*
X142282656Y-104625000D01*
X152220475Y-104625000D01*
X152290128Y-104709872D01*
X152613701Y-104975421D01*
X152982863Y-105172742D01*
X153383427Y-105294252D01*
X153493482Y-105305091D01*
X153606062Y-105365267D01*
X154289377Y-105572549D01*
X155000000Y-105642539D01*
X155710624Y-105572549D01*
X156393939Y-105365267D01*
X156506520Y-105305091D01*
X156616573Y-105294252D01*
X157017137Y-105172742D01*
X157386299Y-104975421D01*
X157709872Y-104709872D01*
X157975421Y-104386299D01*
X158172742Y-104017137D01*
X158294252Y-103616573D01*
X158305091Y-103506520D01*
X158365267Y-103393939D01*
X158572549Y-102710624D01*
X158625000Y-102178077D01*
X158625000Y-94442953D01*
X158709345Y-94721003D01*
X158883452Y-95046734D01*
X159117761Y-95332240D01*
X159403267Y-95566549D01*
X159728998Y-95740656D01*
X160082437Y-95847870D01*
X160450000Y-95884072D01*
X160817564Y-95847870D01*
X161171003Y-95740656D01*
X161496734Y-95566549D01*
X161782240Y-95332240D01*
X162016549Y-95046734D01*
X162190656Y-94721003D01*
X162297870Y-94367564D01*
X162325000Y-94092109D01*
X162325000Y-91907891D01*
X162297870Y-91632436D01*
X162190656Y-91278997D01*
X162016549Y-90953266D01*
X161782240Y-90667760D01*
X161496733Y-90433451D01*
X161171002Y-90259344D01*
X160817563Y-90152130D01*
X160450000Y-90115928D01*
X160082436Y-90152130D01*
X159728997Y-90259344D01*
X159403266Y-90433451D01*
X159117760Y-90667760D01*
X158883451Y-90953267D01*
X158709344Y-91278998D01*
X158625000Y-91557044D01*
X158625000Y-77125000D01*
X162375000Y-77125000D01*
X162375001Y-117821923D01*
X162357462Y-118000000D01*
X162375001Y-118178077D01*
X162427452Y-118710624D01*
X162477509Y-118875640D01*
X162634734Y-119393939D01*
X162858669Y-119812893D01*
X162571951Y-120505093D01*
X162375000Y-121495232D01*
X162375000Y-122504768D01*
X162571951Y-123494907D01*
X162958284Y-124427598D01*
X163519152Y-125266997D01*
X164233003Y-125980848D01*
X165072402Y-126541716D01*
X166005093Y-126928049D01*
X166995232Y-127125000D01*
X168004768Y-127125000D01*
X168994907Y-126928049D01*
X169927598Y-126541716D01*
X170766997Y-125980848D01*
X171480848Y-125266997D01*
X172041716Y-124427598D01*
X172428049Y-123494907D01*
X172625000Y-122504768D01*
X172625000Y-121495232D01*
X172428049Y-120505093D01*
X172041716Y-119572402D01*
X171480848Y-118733003D01*
X170870214Y-118122369D01*
X170865267Y-118106061D01*
X170528660Y-117476314D01*
X170075664Y-116924336D01*
X169937338Y-116810815D01*
X169625000Y-116498477D01*
X169625000Y-98403749D01*
X169692958Y-98459521D01*
X169788506Y-98510592D01*
X169892181Y-98542042D01*
X169972982Y-98550000D01*
X170000000Y-98552661D01*
X170027018Y-98550000D01*
X189450000Y-98550000D01*
X189450001Y-123433572D01*
X189303029Y-122694691D01*
X188965694Y-121880292D01*
X188475960Y-121147354D01*
X187852646Y-120524040D01*
X187119708Y-120034306D01*
X186305309Y-119696971D01*
X185440749Y-119525000D01*
X184559251Y-119525000D01*
X183694691Y-119696971D01*
X182880292Y-120034306D01*
X182147354Y-120524040D01*
X181524040Y-121147354D01*
X181034306Y-121880292D01*
X180696971Y-122694691D01*
X180525000Y-123559251D01*
X180525000Y-124440749D01*
X180696971Y-125305309D01*
X181034306Y-126119708D01*
X181524040Y-126852646D01*
X182147354Y-127475960D01*
X182880292Y-127965694D01*
X183694691Y-128303029D01*
X184433567Y-128450000D01*
X72566433Y-128450000D01*
X73305309Y-128303029D01*
X74119708Y-127965694D01*
X74852646Y-127475960D01*
X75475960Y-126852646D01*
X75965694Y-126119708D01*
X76303029Y-125305309D01*
X76475000Y-124440749D01*
X76475000Y-123559251D01*
X76303029Y-122694691D01*
X75965694Y-121880292D01*
X75475960Y-121147354D01*
X74852646Y-120524040D01*
X74119708Y-120034306D01*
X73305309Y-119696971D01*
X72440749Y-119525000D01*
X71559251Y-119525000D01*
X70694691Y-119696971D01*
X69880292Y-120034306D01*
X69147354Y-120524040D01*
X68524040Y-121147354D01*
X68034306Y-121880292D01*
X67696971Y-122694691D01*
X67550000Y-123433567D01*
X67550000Y-117879348D01*
X86775000Y-117879348D01*
X86775000Y-118120652D01*
X86822076Y-118357319D01*
X86914419Y-118580255D01*
X87048481Y-118780892D01*
X87219108Y-118951519D01*
X87419745Y-119085581D01*
X87642681Y-119177924D01*
X87879348Y-119225000D01*
X88120652Y-119225000D01*
X88357319Y-119177924D01*
X88580255Y-119085581D01*
X88780892Y-118951519D01*
X88951519Y-118780892D01*
X89085581Y-118580255D01*
X89177924Y-118357319D01*
X89225000Y-118120652D01*
X89225000Y-117879348D01*
X91655000Y-117879348D01*
X91655000Y-118120652D01*
X91702076Y-118357319D01*
X91794419Y-118580255D01*
X91928481Y-118780892D01*
X92099108Y-118951519D01*
X92299745Y-119085581D01*
X92522681Y-119177924D01*
X92759348Y-119225000D01*
X93000652Y-119225000D01*
X93237319Y-119177924D01*
X93460255Y-119085581D01*
X93660892Y-118951519D01*
X93831519Y-118780892D01*
X93965581Y-118580255D01*
X94057924Y-118357319D01*
X94105000Y-118120652D01*
X94105000Y-117879348D01*
X94057924Y-117642681D01*
X93965581Y-117419745D01*
X93831519Y-117219108D01*
X93660892Y-117048481D01*
X93460255Y-116914419D01*
X93237319Y-116822076D01*
X93000652Y-116775000D01*
X92759348Y-116775000D01*
X92522681Y-116822076D01*
X92299745Y-116914419D01*
X92099108Y-117048481D01*
X91928481Y-117219108D01*
X91794419Y-117419745D01*
X91702076Y-117642681D01*
X91655000Y-117879348D01*
X89225000Y-117879348D01*
X89177924Y-117642681D01*
X89085581Y-117419745D01*
X88951519Y-117219108D01*
X88780892Y-117048481D01*
X88580255Y-116914419D01*
X88357319Y-116822076D01*
X88120652Y-116775000D01*
X87879348Y-116775000D01*
X87642681Y-116822076D01*
X87419745Y-116914419D01*
X87219108Y-117048481D01*
X87048481Y-117219108D01*
X86914419Y-117419745D01*
X86822076Y-117642681D01*
X86775000Y-117879348D01*
X67550000Y-117879348D01*
X67550000Y-105380000D01*
X68668589Y-105380000D01*
X68694172Y-105639745D01*
X68769937Y-105889509D01*
X68892972Y-106119692D01*
X69058550Y-106321450D01*
X69260308Y-106487028D01*
X69490491Y-106610063D01*
X69622146Y-106650000D01*
X69490491Y-106689937D01*
X69260308Y-106812972D01*
X69058550Y-106978550D01*
X68892972Y-107180308D01*
X68769937Y-107410491D01*
X68694172Y-107660255D01*
X68668589Y-107920000D01*
X68694172Y-108179745D01*
X68769937Y-108429509D01*
X68892972Y-108659692D01*
X69058550Y-108861450D01*
X69260308Y-109027028D01*
X69490491Y-109150063D01*
X69622146Y-109190000D01*
X69490491Y-109229937D01*
X69260308Y-109352972D01*
X69058550Y-109518550D01*
X68892972Y-109720308D01*
X68769937Y-109950491D01*
X68694172Y-110200255D01*
X68668589Y-110460000D01*
X68694172Y-110719745D01*
X68769937Y-110969509D01*
X68892972Y-111199692D01*
X69058550Y-111401450D01*
X69260308Y-111567028D01*
X69458011Y-111672702D01*
X69150000Y-111672702D01*
X69056884Y-111681873D01*
X68967346Y-111709034D01*
X68884827Y-111753141D01*
X68812499Y-111812499D01*
X68753141Y-111884827D01*
X68709034Y-111967346D01*
X68681873Y-112056884D01*
X68672702Y-112150000D01*
X68672702Y-113850000D01*
X68681873Y-113943116D01*
X68709034Y-114032654D01*
X68753141Y-114115173D01*
X68812499Y-114187501D01*
X68884827Y-114246859D01*
X68967346Y-114290966D01*
X69056884Y-114318127D01*
X69150000Y-114327298D01*
X70850000Y-114327298D01*
X70943116Y-114318127D01*
X71032654Y-114290966D01*
X71115173Y-114246859D01*
X71187501Y-114187501D01*
X71246859Y-114115173D01*
X71290966Y-114032654D01*
X71318127Y-113943116D01*
X71327298Y-113850000D01*
X71327298Y-112150000D01*
X71318127Y-112056884D01*
X71290966Y-111967346D01*
X71246859Y-111884827D01*
X71187501Y-111812499D01*
X71115173Y-111753141D01*
X71032654Y-111709034D01*
X70943116Y-111681873D01*
X70850000Y-111672702D01*
X70541989Y-111672702D01*
X70739692Y-111567028D01*
X70941450Y-111401450D01*
X71107028Y-111199692D01*
X71181695Y-111060000D01*
X73818305Y-111060000D01*
X73892972Y-111199692D01*
X74058550Y-111401450D01*
X74260308Y-111567028D01*
X74490491Y-111690063D01*
X74740255Y-111765828D01*
X74934909Y-111785000D01*
X75065091Y-111785000D01*
X75259745Y-111765828D01*
X75509509Y-111690063D01*
X75739692Y-111567028D01*
X75941450Y-111401450D01*
X76107028Y-111199692D01*
X76181695Y-111060000D01*
X86910526Y-111060000D01*
X86940000Y-111062903D01*
X86969474Y-111060000D01*
X87057621Y-111051318D01*
X87170721Y-111017010D01*
X87274955Y-110961296D01*
X87366317Y-110886317D01*
X87385113Y-110863414D01*
X88223528Y-110025000D01*
X88281255Y-110025000D01*
X88440644Y-109993296D01*
X88590784Y-109931106D01*
X88725907Y-109840819D01*
X88840819Y-109725907D01*
X88931106Y-109590784D01*
X88993296Y-109440644D01*
X89025000Y-109281255D01*
X89025000Y-109118745D01*
X88993296Y-108959356D01*
X88931106Y-108809216D01*
X88840819Y-108674093D01*
X88766726Y-108600000D01*
X88840819Y-108525907D01*
X88931106Y-108390784D01*
X88993296Y-108240644D01*
X89025000Y-108081255D01*
X89025000Y-107918745D01*
X88993296Y-107759356D01*
X88931106Y-107609216D01*
X88840819Y-107474093D01*
X88725907Y-107359181D01*
X88590784Y-107268894D01*
X88440644Y-107206704D01*
X88281255Y-107175000D01*
X88118745Y-107175000D01*
X87959356Y-107206704D01*
X87809216Y-107268894D01*
X87732731Y-107320000D01*
X76181695Y-107320000D01*
X76107028Y-107180308D01*
X75941450Y-106978550D01*
X75739692Y-106812972D01*
X75509509Y-106689937D01*
X75377854Y-106650000D01*
X75509509Y-106610063D01*
X75739692Y-106487028D01*
X75941450Y-106321450D01*
X75988745Y-106263820D01*
X81962500Y-106263820D01*
X81962500Y-106436180D01*
X81996126Y-106605228D01*
X82062085Y-106764468D01*
X82157843Y-106907780D01*
X82279720Y-107029657D01*
X82423032Y-107125415D01*
X82582272Y-107191374D01*
X82751320Y-107225000D01*
X82923680Y-107225000D01*
X83092728Y-107191374D01*
X83251968Y-107125415D01*
X83327419Y-107075000D01*
X89049696Y-107075000D01*
X91140923Y-109166227D01*
X91158626Y-109255228D01*
X91224585Y-109414468D01*
X91320343Y-109557780D01*
X91442220Y-109679657D01*
X91585532Y-109775415D01*
X91744772Y-109841374D01*
X91833774Y-109859078D01*
X106462172Y-124487477D01*
X106484868Y-124515132D01*
X106512523Y-124537828D01*
X106512525Y-124537830D01*
X106530597Y-124552661D01*
X106595263Y-124605731D01*
X106721212Y-124673053D01*
X106857875Y-124714509D01*
X106964393Y-124725000D01*
X106964402Y-124725000D01*
X106999999Y-124728506D01*
X107035596Y-124725000D01*
X108018629Y-124725000D01*
X107870491Y-124769937D01*
X107640308Y-124892972D01*
X107438550Y-125058550D01*
X107272972Y-125260308D01*
X107149937Y-125490491D01*
X107110000Y-125622146D01*
X107070063Y-125490491D01*
X106947028Y-125260308D01*
X106781450Y-125058550D01*
X106579692Y-124892972D01*
X106349509Y-124769937D01*
X106099745Y-124694172D01*
X105905091Y-124675000D01*
X105774909Y-124675000D01*
X105580255Y-124694172D01*
X105330491Y-124769937D01*
X105100308Y-124892972D01*
X104898550Y-125058550D01*
X104732972Y-125260308D01*
X104609937Y-125490491D01*
X104570000Y-125622146D01*
X104530063Y-125490491D01*
X104407028Y-125260308D01*
X104241450Y-125058550D01*
X104039692Y-124892972D01*
X103809509Y-124769937D01*
X103559745Y-124694172D01*
X103365091Y-124675000D01*
X103234909Y-124675000D01*
X103040255Y-124694172D01*
X102790491Y-124769937D01*
X102560308Y-124892972D01*
X102358550Y-125058550D01*
X102192972Y-125260308D01*
X102069937Y-125490491D01*
X101994172Y-125740255D01*
X101968589Y-126000000D01*
X101994172Y-126259745D01*
X102069937Y-126509509D01*
X102192972Y-126739692D01*
X102358550Y-126941450D01*
X102560308Y-127107028D01*
X102790491Y-127230063D01*
X103040255Y-127305828D01*
X103234909Y-127325000D01*
X103365091Y-127325000D01*
X103559745Y-127305828D01*
X103809509Y-127230063D01*
X104039692Y-127107028D01*
X104241450Y-126941450D01*
X104407028Y-126739692D01*
X104530063Y-126509509D01*
X104570000Y-126377854D01*
X104609937Y-126509509D01*
X104732972Y-126739692D01*
X104898550Y-126941450D01*
X105100308Y-127107028D01*
X105330491Y-127230063D01*
X105580255Y-127305828D01*
X105774909Y-127325000D01*
X105905091Y-127325000D01*
X106099745Y-127305828D01*
X106349509Y-127230063D01*
X106579692Y-127107028D01*
X106781450Y-126941450D01*
X106947028Y-126739692D01*
X107070063Y-126509509D01*
X107110000Y-126377854D01*
X107149937Y-126509509D01*
X107272972Y-126739692D01*
X107438550Y-126941450D01*
X107640308Y-127107028D01*
X107870491Y-127230063D01*
X108120255Y-127305828D01*
X108314909Y-127325000D01*
X108445091Y-127325000D01*
X108639745Y-127305828D01*
X108889509Y-127230063D01*
X109119692Y-127107028D01*
X109321450Y-126941450D01*
X109487028Y-126739692D01*
X109610063Y-126509509D01*
X109650000Y-126377854D01*
X109689937Y-126509509D01*
X109812972Y-126739692D01*
X109978550Y-126941450D01*
X110180308Y-127107028D01*
X110410491Y-127230063D01*
X110660255Y-127305828D01*
X110854909Y-127325000D01*
X110985091Y-127325000D01*
X111179745Y-127305828D01*
X111429509Y-127230063D01*
X111659692Y-127107028D01*
X111861450Y-126941450D01*
X112027028Y-126739692D01*
X112150063Y-126509509D01*
X112190000Y-126377854D01*
X112229937Y-126509509D01*
X112352972Y-126739692D01*
X112518550Y-126941450D01*
X112720308Y-127107028D01*
X112950491Y-127230063D01*
X113200255Y-127305828D01*
X113394909Y-127325000D01*
X113525091Y-127325000D01*
X113719745Y-127305828D01*
X113969509Y-127230063D01*
X114199692Y-127107028D01*
X114401450Y-126941450D01*
X114567028Y-126739692D01*
X114690063Y-126509509D01*
X114765828Y-126259745D01*
X114791411Y-126000000D01*
X114765828Y-125740255D01*
X114690063Y-125490491D01*
X114567028Y-125260308D01*
X114401450Y-125058550D01*
X114199692Y-124892972D01*
X114185000Y-124885119D01*
X114185000Y-124725000D01*
X135384403Y-124725000D01*
X135420000Y-124728506D01*
X135455597Y-124725000D01*
X135455607Y-124725000D01*
X135562125Y-124714509D01*
X135698788Y-124673053D01*
X135824737Y-124605731D01*
X135935132Y-124515132D01*
X135957832Y-124487472D01*
X136905304Y-123540000D01*
X144418493Y-123540000D01*
X144444462Y-123803666D01*
X144521370Y-124057199D01*
X144646263Y-124290857D01*
X144814340Y-124495660D01*
X145019143Y-124663737D01*
X145252801Y-124788630D01*
X145506334Y-124865538D01*
X145703934Y-124885000D01*
X146296066Y-124885000D01*
X146493666Y-124865538D01*
X146747199Y-124788630D01*
X146980857Y-124663737D01*
X147185660Y-124495660D01*
X147353737Y-124290857D01*
X147478630Y-124057199D01*
X147555538Y-123803666D01*
X147581507Y-123540000D01*
X147555538Y-123276334D01*
X147547550Y-123250000D01*
X152772702Y-123250000D01*
X152772702Y-124750000D01*
X152796284Y-124989434D01*
X152866124Y-125219667D01*
X152979539Y-125431850D01*
X153132169Y-125617831D01*
X153318150Y-125770461D01*
X153530333Y-125883876D01*
X153760566Y-125953716D01*
X154000000Y-125977298D01*
X156000000Y-125977298D01*
X156239434Y-125953716D01*
X156469667Y-125883876D01*
X156681850Y-125770461D01*
X156867831Y-125617831D01*
X157020461Y-125431850D01*
X157133876Y-125219667D01*
X157203716Y-124989434D01*
X157227298Y-124750000D01*
X157227298Y-123250000D01*
X157203716Y-123010566D01*
X157133876Y-122780333D01*
X157020461Y-122568150D01*
X156867831Y-122382169D01*
X156681850Y-122229539D01*
X156469667Y-122116124D01*
X156239434Y-122046284D01*
X156000000Y-122022702D01*
X154000000Y-122022702D01*
X153760566Y-122046284D01*
X153530333Y-122116124D01*
X153318150Y-122229539D01*
X153132169Y-122382169D01*
X152979539Y-122568150D01*
X152866124Y-122780333D01*
X152796284Y-123010566D01*
X152772702Y-123250000D01*
X147547550Y-123250000D01*
X147478630Y-123022801D01*
X147353737Y-122789143D01*
X147185660Y-122584340D01*
X146980857Y-122416263D01*
X146747199Y-122291370D01*
X146493666Y-122214462D01*
X146296066Y-122195000D01*
X145703934Y-122195000D01*
X145506334Y-122214462D01*
X145252801Y-122291370D01*
X145019143Y-122416263D01*
X144814340Y-122584340D01*
X144646263Y-122789143D01*
X144521370Y-123022801D01*
X144444462Y-123276334D01*
X144418493Y-123540000D01*
X136905304Y-123540000D01*
X137901751Y-122543554D01*
X137944772Y-122561374D01*
X138113820Y-122595000D01*
X138286180Y-122595000D01*
X138455228Y-122561374D01*
X138614468Y-122495415D01*
X138757780Y-122399657D01*
X138879657Y-122277780D01*
X138975415Y-122134468D01*
X139041374Y-121975228D01*
X139075000Y-121806180D01*
X139075000Y-121633820D01*
X139041374Y-121464772D01*
X138975415Y-121305532D01*
X138879657Y-121162220D01*
X138757780Y-121040343D01*
X138614468Y-120944585D01*
X138455228Y-120878626D01*
X138286180Y-120845000D01*
X138113820Y-120845000D01*
X137944772Y-120878626D01*
X137785532Y-120944585D01*
X137713359Y-120992810D01*
X137700000Y-120991494D01*
X137664403Y-120995000D01*
X137664393Y-120995000D01*
X137557875Y-121005491D01*
X137442983Y-121040343D01*
X137421212Y-121046947D01*
X137295263Y-121114269D01*
X137212525Y-121182170D01*
X137212523Y-121182172D01*
X137184868Y-121204868D01*
X137162172Y-121232523D01*
X135119696Y-123275000D01*
X113495607Y-123275000D01*
X113460000Y-123271493D01*
X113424393Y-123275000D01*
X107300305Y-123275000D01*
X104150305Y-120125000D01*
X157472702Y-120125000D01*
X157472702Y-121875000D01*
X157498686Y-122138820D01*
X157575640Y-122392502D01*
X157700605Y-122626297D01*
X157868781Y-122831219D01*
X158073703Y-122999395D01*
X158307498Y-123124360D01*
X158561180Y-123201314D01*
X158825000Y-123227298D01*
X160575000Y-123227298D01*
X160838820Y-123201314D01*
X161092502Y-123124360D01*
X161326297Y-122999395D01*
X161531219Y-122831219D01*
X161699395Y-122626297D01*
X161824360Y-122392502D01*
X161901314Y-122138820D01*
X161927298Y-121875000D01*
X161927298Y-120125000D01*
X161901314Y-119861180D01*
X161824360Y-119607498D01*
X161699395Y-119373703D01*
X161531219Y-119168781D01*
X161326297Y-119000605D01*
X161092502Y-118875640D01*
X160838820Y-118798686D01*
X160575000Y-118772702D01*
X158825000Y-118772702D01*
X158561180Y-118798686D01*
X158307498Y-118875640D01*
X158073703Y-119000605D01*
X157868781Y-119168781D01*
X157700605Y-119373703D01*
X157575640Y-119607498D01*
X157498686Y-119861180D01*
X157472702Y-120125000D01*
X104150305Y-120125000D01*
X97225305Y-113200000D01*
X142722702Y-113200000D01*
X142722702Y-114800000D01*
X142731873Y-114893116D01*
X142759034Y-114982654D01*
X142803141Y-115065173D01*
X142862499Y-115137501D01*
X142934827Y-115196859D01*
X143017346Y-115240966D01*
X143106884Y-115268127D01*
X143200000Y-115277298D01*
X144800000Y-115277298D01*
X144893116Y-115268127D01*
X144982654Y-115240966D01*
X145065173Y-115196859D01*
X145137501Y-115137501D01*
X145196859Y-115065173D01*
X145240966Y-114982654D01*
X145268127Y-114893116D01*
X145277298Y-114800000D01*
X145277298Y-113200000D01*
X145268127Y-113106884D01*
X145240966Y-113017346D01*
X145196859Y-112934827D01*
X145137501Y-112862499D01*
X145065173Y-112803141D01*
X144982654Y-112759034D01*
X144893116Y-112731873D01*
X144800000Y-112722702D01*
X143200000Y-112722702D01*
X143106884Y-112731873D01*
X143017346Y-112759034D01*
X142934827Y-112803141D01*
X142862499Y-112862499D01*
X142803141Y-112934827D01*
X142759034Y-113017346D01*
X142731873Y-113106884D01*
X142722702Y-113200000D01*
X97225305Y-113200000D01*
X92859078Y-108833774D01*
X92841374Y-108744772D01*
X92775415Y-108585532D01*
X92679657Y-108442220D01*
X92557780Y-108320343D01*
X92414468Y-108224585D01*
X92255228Y-108158626D01*
X92166227Y-108140923D01*
X89887832Y-105862528D01*
X89865132Y-105834868D01*
X89754737Y-105744269D01*
X89628788Y-105676947D01*
X89492125Y-105635491D01*
X89385607Y-105625000D01*
X89385597Y-105625000D01*
X89350000Y-105621494D01*
X89314403Y-105625000D01*
X83327419Y-105625000D01*
X83251968Y-105574585D01*
X83092728Y-105508626D01*
X82923680Y-105475000D01*
X82751320Y-105475000D01*
X82582272Y-105508626D01*
X82423032Y-105574585D01*
X82279720Y-105670343D01*
X82157843Y-105792220D01*
X82062085Y-105935532D01*
X81996126Y-106094772D01*
X81962500Y-106263820D01*
X75988745Y-106263820D01*
X76107028Y-106119692D01*
X76230063Y-105889509D01*
X76305828Y-105639745D01*
X76331411Y-105380000D01*
X76305828Y-105120255D01*
X76230063Y-104870491D01*
X76107028Y-104640308D01*
X75941450Y-104438550D01*
X75739692Y-104272972D01*
X75509509Y-104149937D01*
X75259745Y-104074172D01*
X75065091Y-104055000D01*
X74934909Y-104055000D01*
X74740255Y-104074172D01*
X74490491Y-104149937D01*
X74260308Y-104272972D01*
X74058550Y-104438550D01*
X73892972Y-104640308D01*
X73769937Y-104870491D01*
X73694172Y-105120255D01*
X73668589Y-105380000D01*
X73694172Y-105639745D01*
X73769937Y-105889509D01*
X73892972Y-106119692D01*
X74058550Y-106321450D01*
X74260308Y-106487028D01*
X74490491Y-106610063D01*
X74622146Y-106650000D01*
X74490491Y-106689937D01*
X74260308Y-106812972D01*
X74058550Y-106978550D01*
X73892972Y-107180308D01*
X73818305Y-107320000D01*
X71181695Y-107320000D01*
X71107028Y-107180308D01*
X70941450Y-106978550D01*
X70739692Y-106812972D01*
X70509509Y-106689937D01*
X70377854Y-106650000D01*
X70509509Y-106610063D01*
X70739692Y-106487028D01*
X70941450Y-106321450D01*
X71107028Y-106119692D01*
X71230063Y-105889509D01*
X71305828Y-105639745D01*
X71331411Y-105380000D01*
X71305828Y-105120255D01*
X71230063Y-104870491D01*
X71107028Y-104640308D01*
X70941450Y-104438550D01*
X70739692Y-104272972D01*
X70509509Y-104149937D01*
X70259745Y-104074172D01*
X70065091Y-104055000D01*
X69934909Y-104055000D01*
X69740255Y-104074172D01*
X69490491Y-104149937D01*
X69260308Y-104272972D01*
X69058550Y-104438550D01*
X68892972Y-104640308D01*
X68769937Y-104870491D01*
X68694172Y-105120255D01*
X68668589Y-105380000D01*
X67550000Y-105380000D01*
X67550000Y-100913820D01*
X87125000Y-100913820D01*
X87125000Y-101086180D01*
X87158626Y-101255228D01*
X87224585Y-101414468D01*
X87320343Y-101557780D01*
X87442220Y-101679657D01*
X87585532Y-101775415D01*
X87744772Y-101841374D01*
X87913820Y-101875000D01*
X88086180Y-101875000D01*
X88255228Y-101841374D01*
X88414468Y-101775415D01*
X88557780Y-101679657D01*
X88637437Y-101600000D01*
X100551472Y-101600000D01*
X96976473Y-105175000D01*
X96918745Y-105175000D01*
X96759356Y-105206704D01*
X96609216Y-105268894D01*
X96474093Y-105359181D01*
X96359181Y-105474093D01*
X96268894Y-105609216D01*
X96206704Y-105759356D01*
X96175000Y-105918745D01*
X96175000Y-106081255D01*
X96206704Y-106240644D01*
X96268894Y-106390784D01*
X96275052Y-106400000D01*
X96248528Y-106400000D01*
X95600000Y-105751473D01*
X95600000Y-103566726D01*
X95640819Y-103525907D01*
X95731106Y-103390784D01*
X95793296Y-103240644D01*
X95825000Y-103081255D01*
X95825000Y-102918745D01*
X95793296Y-102759356D01*
X95731106Y-102609216D01*
X95640819Y-102474093D01*
X95525907Y-102359181D01*
X95390784Y-102268894D01*
X95240644Y-102206704D01*
X95081255Y-102175000D01*
X94918745Y-102175000D01*
X94759356Y-102206704D01*
X94609216Y-102268894D01*
X94474093Y-102359181D01*
X94359181Y-102474093D01*
X94268894Y-102609216D01*
X94206704Y-102759356D01*
X94175000Y-102918745D01*
X94175000Y-103081255D01*
X94206704Y-103240644D01*
X94268894Y-103390784D01*
X94359181Y-103525907D01*
X94400001Y-103566727D01*
X94400000Y-105970526D01*
X94397097Y-106000000D01*
X94400000Y-106029473D01*
X94408682Y-106117620D01*
X94442990Y-106230720D01*
X94498704Y-106334954D01*
X94573683Y-106426317D01*
X94596586Y-106445113D01*
X95554891Y-107403419D01*
X95573683Y-107426317D01*
X95665045Y-107501296D01*
X95769277Y-107557009D01*
X95769279Y-107557010D01*
X95882379Y-107591319D01*
X96000000Y-107602903D01*
X96029476Y-107600000D01*
X97970526Y-107600000D01*
X98000000Y-107602903D01*
X98029474Y-107600000D01*
X98117621Y-107591318D01*
X98230721Y-107557010D01*
X98334955Y-107501296D01*
X98426317Y-107426317D01*
X98445113Y-107403414D01*
X99248528Y-106600000D01*
X100433274Y-106600000D01*
X100474093Y-106640819D01*
X100609216Y-106731106D01*
X100759356Y-106793296D01*
X100918745Y-106825000D01*
X101081255Y-106825000D01*
X101240644Y-106793296D01*
X101390784Y-106731106D01*
X101525907Y-106640819D01*
X101640819Y-106525907D01*
X101731106Y-106390784D01*
X101793296Y-106240644D01*
X101825000Y-106081255D01*
X101825000Y-105918745D01*
X101793296Y-105759356D01*
X101731106Y-105609216D01*
X101640819Y-105474093D01*
X101525907Y-105359181D01*
X101390784Y-105268894D01*
X101240644Y-105206704D01*
X101081255Y-105175000D01*
X100918745Y-105175000D01*
X100759356Y-105206704D01*
X100609216Y-105268894D01*
X100474093Y-105359181D01*
X100433274Y-105400000D01*
X99029476Y-105400000D01*
X99000000Y-105397097D01*
X98882379Y-105408681D01*
X98769279Y-105442990D01*
X98665045Y-105498704D01*
X98573683Y-105573683D01*
X98554894Y-105596578D01*
X97751473Y-106400000D01*
X97724948Y-106400000D01*
X97731106Y-106390784D01*
X97793296Y-106240644D01*
X97825000Y-106081255D01*
X97825000Y-106023527D01*
X101248528Y-102600000D01*
X102433274Y-102600000D01*
X102474093Y-102640819D01*
X102609216Y-102731106D01*
X102759356Y-102793296D01*
X102918745Y-102825000D01*
X103081255Y-102825000D01*
X103240644Y-102793296D01*
X103390784Y-102731106D01*
X103525907Y-102640819D01*
X103640819Y-102525907D01*
X103731106Y-102390784D01*
X103793296Y-102240644D01*
X103825000Y-102081255D01*
X103825000Y-101918745D01*
X103793296Y-101759356D01*
X103731106Y-101609216D01*
X103724948Y-101600000D01*
X113751473Y-101600000D01*
X115125000Y-102973528D01*
X115125000Y-103086180D01*
X115158626Y-103255228D01*
X115224585Y-103414468D01*
X115320343Y-103557780D01*
X115442220Y-103679657D01*
X115585532Y-103775415D01*
X115744772Y-103841374D01*
X115913820Y-103875000D01*
X116086180Y-103875000D01*
X116255228Y-103841374D01*
X116414468Y-103775415D01*
X116557780Y-103679657D01*
X116679657Y-103557780D01*
X116775415Y-103414468D01*
X116841374Y-103255228D01*
X116875000Y-103086180D01*
X116875000Y-102913820D01*
X116841374Y-102744772D01*
X116775415Y-102585532D01*
X116679657Y-102442220D01*
X116557780Y-102320343D01*
X116414468Y-102224585D01*
X116255228Y-102158626D01*
X116086180Y-102125000D01*
X115973528Y-102125000D01*
X115693780Y-101845253D01*
X115744772Y-101866374D01*
X115913820Y-101900000D01*
X116086180Y-101900000D01*
X116255228Y-101866374D01*
X116414468Y-101800415D01*
X116557780Y-101704657D01*
X116679657Y-101582780D01*
X116775415Y-101439468D01*
X116841374Y-101280228D01*
X116875000Y-101111180D01*
X116875000Y-100938820D01*
X116841374Y-100769772D01*
X116775415Y-100610532D01*
X116679657Y-100467220D01*
X116557780Y-100345343D01*
X116414468Y-100249585D01*
X116255228Y-100183626D01*
X116086180Y-100150000D01*
X115973529Y-100150000D01*
X114420113Y-98596586D01*
X114401317Y-98573683D01*
X114309955Y-98498704D01*
X114205721Y-98442990D01*
X114092621Y-98408682D01*
X114004474Y-98400000D01*
X113975000Y-98397097D01*
X113945526Y-98400000D01*
X89637437Y-98400000D01*
X89557780Y-98320343D01*
X89414468Y-98224585D01*
X89255228Y-98158626D01*
X89086180Y-98125000D01*
X88913820Y-98125000D01*
X88744772Y-98158626D01*
X88585532Y-98224585D01*
X88442220Y-98320343D01*
X88320343Y-98442220D01*
X88224585Y-98585532D01*
X88158626Y-98744772D01*
X88125000Y-98913820D01*
X88125000Y-99086180D01*
X88158626Y-99255228D01*
X88224585Y-99414468D01*
X88320343Y-99557780D01*
X88442220Y-99679657D01*
X88585532Y-99775415D01*
X88744772Y-99841374D01*
X88913820Y-99875000D01*
X89086180Y-99875000D01*
X89255228Y-99841374D01*
X89414468Y-99775415D01*
X89557780Y-99679657D01*
X89637437Y-99600000D01*
X113726473Y-99600000D01*
X115125000Y-100998529D01*
X115125000Y-101111180D01*
X115158626Y-101280228D01*
X115179748Y-101331220D01*
X114445113Y-100596586D01*
X114426317Y-100573683D01*
X114334955Y-100498704D01*
X114230721Y-100442990D01*
X114117621Y-100408682D01*
X114029474Y-100400000D01*
X114000000Y-100397097D01*
X113970526Y-100400000D01*
X88637437Y-100400000D01*
X88557780Y-100320343D01*
X88414468Y-100224585D01*
X88255228Y-100158626D01*
X88086180Y-100125000D01*
X87913820Y-100125000D01*
X87744772Y-100158626D01*
X87585532Y-100224585D01*
X87442220Y-100320343D01*
X87320343Y-100442220D01*
X87224585Y-100585532D01*
X87158626Y-100744772D01*
X87125000Y-100913820D01*
X67550000Y-100913820D01*
X67550000Y-44566433D01*
X67696971Y-45305309D01*
X68034306Y-46119708D01*
X68524040Y-46852646D01*
X69147354Y-47475960D01*
X69880292Y-47965694D01*
X70694691Y-48303029D01*
X71559251Y-48475000D01*
X72440749Y-48475000D01*
X73305309Y-48303029D01*
X74119708Y-47965694D01*
X74852646Y-47475960D01*
X75475960Y-46852646D01*
X75965694Y-46119708D01*
X76303029Y-45305309D01*
X76475000Y-44440749D01*
X76475000Y-43559251D01*
X76303029Y-42694691D01*
X75965694Y-41880292D01*
X75475960Y-41147354D01*
X74852646Y-40524040D01*
X74119708Y-40034306D01*
X73305309Y-39696971D01*
X72566433Y-39550000D01*
X184433567Y-39550000D01*
X183694691Y-39696971D01*
X183694691Y-39696971D01*
G37*
X183694691Y-39696971D02*
X182880292Y-40034306D01*
X182147354Y-40524040D01*
X181524040Y-41147354D01*
X181034306Y-41880292D01*
X180696971Y-42694691D01*
X180525000Y-43559251D01*
X180525000Y-44440749D01*
X180696971Y-45305309D01*
X181034306Y-46119708D01*
X181524040Y-46852646D01*
X182147354Y-47475960D01*
X182880292Y-47965694D01*
X183694691Y-48303029D01*
X184559251Y-48475000D01*
X185440749Y-48475000D01*
X186305309Y-48303029D01*
X187119708Y-47965694D01*
X187852646Y-47475960D01*
X188475960Y-46852646D01*
X188965694Y-46119708D01*
X189303029Y-45305309D01*
X189450000Y-44566433D01*
X189450000Y-49375000D01*
X170000000Y-49375000D01*
X169760823Y-49422575D01*
X169558058Y-49558058D01*
X169422575Y-49760823D01*
X169375000Y-50000000D01*
X169375000Y-62412137D01*
X168813202Y-62036756D01*
X168000000Y-61875000D01*
X158625000Y-61875000D01*
X158625000Y-46821923D01*
X158572549Y-46289376D01*
X158365267Y-45606061D01*
X158349654Y-45576851D01*
X158326167Y-45338384D01*
X158133180Y-44702194D01*
X157819788Y-44115878D01*
X157398032Y-43601968D01*
X156884122Y-43180212D01*
X156297806Y-42866820D01*
X155830290Y-42725000D01*
X159725001Y-42725000D01*
X159725001Y-44272702D01*
X159200000Y-44272702D01*
X159106884Y-44281873D01*
X159017346Y-44309034D01*
X158934827Y-44353141D01*
X158862499Y-44412499D01*
X158803141Y-44484827D01*
X158759034Y-44567346D01*
X158731873Y-44656884D01*
X158722702Y-44750000D01*
X158722702Y-49250000D01*
X158731873Y-49343116D01*
X158759034Y-49432654D01*
X158803141Y-49515173D01*
X158862499Y-49587501D01*
X158934827Y-49646859D01*
X159017346Y-49690966D01*
X159106884Y-49718127D01*
X159200000Y-49727298D01*
X161700000Y-49727298D01*
X161793116Y-49718127D01*
X161882654Y-49690966D01*
X161965173Y-49646859D01*
X162037501Y-49587501D01*
X162096859Y-49515173D01*
X162140966Y-49432654D01*
X162168127Y-49343116D01*
X162177298Y-49250000D01*
X162177298Y-44750000D01*
X162168127Y-44656884D01*
X162140966Y-44567346D01*
X162096859Y-44484827D01*
X162037501Y-44412499D01*
X161965173Y-44353141D01*
X161882654Y-44309034D01*
X161793116Y-44281873D01*
X161700000Y-44272702D01*
X161175000Y-44272702D01*
X161175000Y-42035607D01*
X161178507Y-42000000D01*
X161164509Y-41857875D01*
X161123053Y-41721212D01*
X161055731Y-41595263D01*
X160965132Y-41484868D01*
X160854737Y-41394269D01*
X160728788Y-41326947D01*
X160592125Y-41285491D01*
X160485607Y-41275000D01*
X160450000Y-41271493D01*
X160414393Y-41275000D01*
X137485607Y-41275000D01*
X137450000Y-41271493D01*
X137414393Y-41275000D01*
X114485607Y-41275000D01*
X114450000Y-41271493D01*
X114414393Y-41275000D01*
X91485607Y-41275000D01*
X91450000Y-41271493D01*
X91414393Y-41275000D01*
X78035607Y-41275000D01*
X78000000Y-41271493D01*
X77964393Y-41275000D01*
X77857875Y-41285491D01*
X77721212Y-41326947D01*
X77595263Y-41394269D01*
X77484868Y-41484868D01*
X77394269Y-41595263D01*
X77326947Y-41721212D01*
X77285491Y-41857875D01*
X77271493Y-42000000D01*
X77275000Y-42035607D01*
X77275001Y-96964382D01*
X77271493Y-97000000D01*
X77285491Y-97142125D01*
X77326947Y-97278788D01*
X77394269Y-97404737D01*
X77484868Y-97515132D01*
X77595263Y-97605731D01*
X77721212Y-97673053D01*
X77857875Y-97714509D01*
X77964393Y-97725000D01*
X78000000Y-97728507D01*
X78035607Y-97725000D01*
X80514393Y-97725000D01*
X80550000Y-97728507D01*
X80585607Y-97725000D01*
X103514393Y-97725000D01*
X103550000Y-97728507D01*
X103585607Y-97725000D01*
X126514393Y-97725000D01*
X126550000Y-97728507D01*
X126585607Y-97725000D01*
X149514393Y-97725000D01*
X149550000Y-97728507D01*
X149585607Y-97725000D01*
X149692125Y-97714509D01*
X149828788Y-97673053D01*
X149954737Y-97605731D01*
X150065132Y-97515132D01*
X150155731Y-97404737D01*
X150223053Y-97278788D01*
X150264509Y-97142125D01*
X150278507Y-97000000D01*
X150275000Y-96964393D01*
X150275000Y-95727298D01*
X150800000Y-95727298D01*
X150893116Y-95718127D01*
X150982654Y-95690966D01*
X151065173Y-95646859D01*
X151137501Y-95587501D01*
X151196859Y-95515173D01*
X151240966Y-95432654D01*
X151268127Y-95343116D01*
X151277298Y-95250000D01*
X151277298Y-90750000D01*
X151268127Y-90656884D01*
X151240966Y-90567346D01*
X151196859Y-90484827D01*
X151137501Y-90412499D01*
X151065173Y-90353141D01*
X150982654Y-90309034D01*
X150893116Y-90281873D01*
X150800000Y-90272702D01*
X148300000Y-90272702D01*
X148206884Y-90281873D01*
X148117346Y-90309034D01*
X148034827Y-90353141D01*
X147962499Y-90412499D01*
X147903141Y-90484827D01*
X147859034Y-90567346D01*
X147831873Y-90656884D01*
X147822702Y-90750000D01*
X147822702Y-95250000D01*
X147831873Y-95343116D01*
X147859034Y-95432654D01*
X147903141Y-95515173D01*
X147962499Y-95587501D01*
X148034827Y-95646859D01*
X148117346Y-95690966D01*
X148206884Y-95718127D01*
X148300000Y-95727298D01*
X148825001Y-95727298D01*
X148825001Y-96275000D01*
X134499002Y-96275000D01*
X134819788Y-95884122D01*
X135133180Y-95297806D01*
X135326167Y-94661616D01*
X135349654Y-94423149D01*
X135365267Y-94393939D01*
X135572549Y-93710624D01*
X135575001Y-93685730D01*
X135575001Y-94092109D01*
X135602131Y-94367564D01*
X135709345Y-94721003D01*
X135883452Y-95046734D01*
X136117761Y-95332240D01*
X136403267Y-95566549D01*
X136728998Y-95740656D01*
X137082437Y-95847870D01*
X137450000Y-95884072D01*
X137817564Y-95847870D01*
X138171003Y-95740656D01*
X138496734Y-95566549D01*
X138782240Y-95332240D01*
X139016549Y-95046734D01*
X139190656Y-94721003D01*
X139297870Y-94367564D01*
X139325000Y-94092109D01*
X139325000Y-91907891D01*
X139297870Y-91632436D01*
X139190656Y-91278997D01*
X139016549Y-90953266D01*
X138782240Y-90667760D01*
X138496733Y-90433451D01*
X138171002Y-90259344D01*
X137817563Y-90152130D01*
X137450000Y-90115928D01*
X137082436Y-90152130D01*
X136728997Y-90259344D01*
X136403266Y-90433451D01*
X136117760Y-90667760D01*
X135883451Y-90953267D01*
X135709344Y-91278998D01*
X135625000Y-91557044D01*
X135625000Y-77125000D01*
X151375000Y-77125000D01*
X151375001Y-92821914D01*
X151375000Y-92821924D01*
X151375001Y-99375000D01*
X142282656Y-99375000D01*
X142096209Y-99221987D01*
X141518579Y-98913237D01*
X140891814Y-98723110D01*
X140403344Y-98675000D01*
X140076656Y-98675000D01*
X139588186Y-98723110D01*
X138961421Y-98913237D01*
X138383791Y-99221987D01*
X137877494Y-99637494D01*
X137574895Y-100006213D01*
X137454399Y-99907939D01*
X137412862Y-99880342D01*
X137371747Y-99852190D01*
X137364993Y-99848537D01*
X137020351Y-99665287D01*
X136974249Y-99646285D01*
X136928443Y-99626653D01*
X136921108Y-99624382D01*
X136547436Y-99511564D01*
X136498525Y-99501880D01*
X136449777Y-99491518D01*
X136442140Y-99490715D01*
X136053671Y-99452625D01*
X136027018Y-99450000D01*
X128972982Y-99450000D01*
X128971071Y-99450188D01*
X128968235Y-99450208D01*
X128943385Y-99452820D01*
X128918405Y-99452820D01*
X128910768Y-99453623D01*
X128522869Y-99497133D01*
X128474146Y-99507490D01*
X128425210Y-99517179D01*
X128417874Y-99519450D01*
X128045813Y-99637474D01*
X127999968Y-99657123D01*
X127953907Y-99676108D01*
X127947151Y-99679760D01*
X127605101Y-99867805D01*
X127563968Y-99895969D01*
X127522450Y-99923554D01*
X127516538Y-99928445D01*
X127516532Y-99928449D01*
X127516527Y-99928454D01*
X127217522Y-100179349D01*
X127182637Y-100214972D01*
X127147273Y-100250090D01*
X127142419Y-100256041D01*
X126897835Y-100560242D01*
X126870521Y-100601982D01*
X126842664Y-100643281D01*
X126839059Y-100650061D01*
X126658220Y-100995974D01*
X126639539Y-101042213D01*
X126620229Y-101088148D01*
X126618009Y-101095499D01*
X126543381Y-101349064D01*
X126484366Y-101206590D01*
X126301058Y-100932249D01*
X126067751Y-100698942D01*
X125793410Y-100515634D01*
X125488580Y-100389369D01*
X125164973Y-100325000D01*
X124835027Y-100325000D01*
X124511420Y-100389369D01*
X124206590Y-100515634D01*
X123932249Y-100698942D01*
X123698942Y-100932249D01*
X123515634Y-101206590D01*
X123389369Y-101511420D01*
X123325000Y-101835027D01*
X123325000Y-102164973D01*
X123389369Y-102488580D01*
X123515634Y-102793410D01*
X123698942Y-103067751D01*
X123932249Y-103301058D01*
X124206590Y-103484366D01*
X124511420Y-103610631D01*
X124835027Y-103675000D01*
X125164973Y-103675000D01*
X125488580Y-103610631D01*
X125793410Y-103484366D01*
X126067751Y-103301058D01*
X126301058Y-103067751D01*
X126484366Y-102793410D01*
X126542655Y-102652689D01*
X126630871Y-102937670D01*
X126650186Y-102983618D01*
X126668862Y-103029843D01*
X126672467Y-103036624D01*
X126858118Y-103379979D01*
X126885997Y-103421311D01*
X126913290Y-103463019D01*
X126918143Y-103468970D01*
X127166950Y-103769725D01*
X127202333Y-103804862D01*
X127237199Y-103840465D01*
X127243116Y-103845360D01*
X127545600Y-104092061D01*
X127587152Y-104119668D01*
X127628252Y-104147810D01*
X127635007Y-104151463D01*
X127979649Y-104334713D01*
X128025725Y-104353704D01*
X128071556Y-104373347D01*
X128078892Y-104375618D01*
X128452563Y-104488436D01*
X128501489Y-104498123D01*
X128550223Y-104508482D01*
X128557860Y-104509285D01*
X128946329Y-104547375D01*
X128972982Y-104550000D01*
X136027018Y-104550000D01*
X136028929Y-104549812D01*
X136031765Y-104549792D01*
X136056615Y-104547180D01*
X136081595Y-104547180D01*
X136089232Y-104546377D01*
X136477132Y-104502867D01*
X136525862Y-104492509D01*
X136574790Y-104482821D01*
X136582126Y-104480550D01*
X136954187Y-104362526D01*
X137000051Y-104342869D01*
X137046094Y-104323891D01*
X137052844Y-104320242D01*
X137052848Y-104320240D01*
X137052851Y-104320238D01*
X137394899Y-104132195D01*
X137436032Y-104104031D01*
X137477550Y-104076446D01*
X137483462Y-104071555D01*
X137483468Y-104071551D01*
X137483473Y-104071546D01*
X137575403Y-103994407D01*
X137877494Y-104362506D01*
X138383791Y-104778013D01*
X138961421Y-105086763D01*
X139588186Y-105276890D01*
X140076656Y-105325000D01*
X140403344Y-105325000D01*
X140891814Y-105276890D01*
X141518579Y-105086763D01*
X142096209Y-104778013D01*
X142282656Y-104625000D01*
X152220475Y-104625000D01*
X152290128Y-104709872D01*
X152613701Y-104975421D01*
X152982863Y-105172742D01*
X153383427Y-105294252D01*
X153493482Y-105305091D01*
X153606062Y-105365267D01*
X154289377Y-105572549D01*
X155000000Y-105642539D01*
X155710624Y-105572549D01*
X156393939Y-105365267D01*
X156506520Y-105305091D01*
X156616573Y-105294252D01*
X157017137Y-105172742D01*
X157386299Y-104975421D01*
X157709872Y-104709872D01*
X157975421Y-104386299D01*
X158172742Y-104017137D01*
X158294252Y-103616573D01*
X158305091Y-103506520D01*
X158365267Y-103393939D01*
X158572549Y-102710624D01*
X158625000Y-102178077D01*
X158625000Y-94442953D01*
X158709345Y-94721003D01*
X158883452Y-95046734D01*
X159117761Y-95332240D01*
X159403267Y-95566549D01*
X159728998Y-95740656D01*
X160082437Y-95847870D01*
X160450000Y-95884072D01*
X160817564Y-95847870D01*
X161171003Y-95740656D01*
X161496734Y-95566549D01*
X161782240Y-95332240D01*
X162016549Y-95046734D01*
X162190656Y-94721003D01*
X162297870Y-94367564D01*
X162325000Y-94092109D01*
X162325000Y-91907891D01*
X162297870Y-91632436D01*
X162190656Y-91278997D01*
X162016549Y-90953266D01*
X161782240Y-90667760D01*
X161496733Y-90433451D01*
X161171002Y-90259344D01*
X160817563Y-90152130D01*
X160450000Y-90115928D01*
X160082436Y-90152130D01*
X159728997Y-90259344D01*
X159403266Y-90433451D01*
X159117760Y-90667760D01*
X158883451Y-90953267D01*
X158709344Y-91278998D01*
X158625000Y-91557044D01*
X158625000Y-77125000D01*
X162375000Y-77125000D01*
X162375001Y-117821923D01*
X162357462Y-118000000D01*
X162375001Y-118178077D01*
X162427452Y-118710624D01*
X162477509Y-118875640D01*
X162634734Y-119393939D01*
X162858669Y-119812893D01*
X162571951Y-120505093D01*
X162375000Y-121495232D01*
X162375000Y-122504768D01*
X162571951Y-123494907D01*
X162958284Y-124427598D01*
X163519152Y-125266997D01*
X164233003Y-125980848D01*
X165072402Y-126541716D01*
X166005093Y-126928049D01*
X166995232Y-127125000D01*
X168004768Y-127125000D01*
X168994907Y-126928049D01*
X169927598Y-126541716D01*
X170766997Y-125980848D01*
X171480848Y-125266997D01*
X172041716Y-124427598D01*
X172428049Y-123494907D01*
X172625000Y-122504768D01*
X172625000Y-121495232D01*
X172428049Y-120505093D01*
X172041716Y-119572402D01*
X171480848Y-118733003D01*
X170870214Y-118122369D01*
X170865267Y-118106061D01*
X170528660Y-117476314D01*
X170075664Y-116924336D01*
X169937338Y-116810815D01*
X169625000Y-116498477D01*
X169625000Y-98403749D01*
X169692958Y-98459521D01*
X169788506Y-98510592D01*
X169892181Y-98542042D01*
X169972982Y-98550000D01*
X170000000Y-98552661D01*
X170027018Y-98550000D01*
X189450000Y-98550000D01*
X189450001Y-123433572D01*
X189303029Y-122694691D01*
X188965694Y-121880292D01*
X188475960Y-121147354D01*
X187852646Y-120524040D01*
X187119708Y-120034306D01*
X186305309Y-119696971D01*
X185440749Y-119525000D01*
X184559251Y-119525000D01*
X183694691Y-119696971D01*
X182880292Y-120034306D01*
X182147354Y-120524040D01*
X181524040Y-121147354D01*
X181034306Y-121880292D01*
X180696971Y-122694691D01*
X180525000Y-123559251D01*
X180525000Y-124440749D01*
X180696971Y-125305309D01*
X181034306Y-126119708D01*
X181524040Y-126852646D01*
X182147354Y-127475960D01*
X182880292Y-127965694D01*
X183694691Y-128303029D01*
X184433567Y-128450000D01*
X72566433Y-128450000D01*
X73305309Y-128303029D01*
X74119708Y-127965694D01*
X74852646Y-127475960D01*
X75475960Y-126852646D01*
X75965694Y-126119708D01*
X76303029Y-125305309D01*
X76475000Y-124440749D01*
X76475000Y-123559251D01*
X76303029Y-122694691D01*
X75965694Y-121880292D01*
X75475960Y-121147354D01*
X74852646Y-120524040D01*
X74119708Y-120034306D01*
X73305309Y-119696971D01*
X72440749Y-119525000D01*
X71559251Y-119525000D01*
X70694691Y-119696971D01*
X69880292Y-120034306D01*
X69147354Y-120524040D01*
X68524040Y-121147354D01*
X68034306Y-121880292D01*
X67696971Y-122694691D01*
X67550000Y-123433567D01*
X67550000Y-117879348D01*
X86775000Y-117879348D01*
X86775000Y-118120652D01*
X86822076Y-118357319D01*
X86914419Y-118580255D01*
X87048481Y-118780892D01*
X87219108Y-118951519D01*
X87419745Y-119085581D01*
X87642681Y-119177924D01*
X87879348Y-119225000D01*
X88120652Y-119225000D01*
X88357319Y-119177924D01*
X88580255Y-119085581D01*
X88780892Y-118951519D01*
X88951519Y-118780892D01*
X89085581Y-118580255D01*
X89177924Y-118357319D01*
X89225000Y-118120652D01*
X89225000Y-117879348D01*
X91655000Y-117879348D01*
X91655000Y-118120652D01*
X91702076Y-118357319D01*
X91794419Y-118580255D01*
X91928481Y-118780892D01*
X92099108Y-118951519D01*
X92299745Y-119085581D01*
X92522681Y-119177924D01*
X92759348Y-119225000D01*
X93000652Y-119225000D01*
X93237319Y-119177924D01*
X93460255Y-119085581D01*
X93660892Y-118951519D01*
X93831519Y-118780892D01*
X93965581Y-118580255D01*
X94057924Y-118357319D01*
X94105000Y-118120652D01*
X94105000Y-117879348D01*
X94057924Y-117642681D01*
X93965581Y-117419745D01*
X93831519Y-117219108D01*
X93660892Y-117048481D01*
X93460255Y-116914419D01*
X93237319Y-116822076D01*
X93000652Y-116775000D01*
X92759348Y-116775000D01*
X92522681Y-116822076D01*
X92299745Y-116914419D01*
X92099108Y-117048481D01*
X91928481Y-117219108D01*
X91794419Y-117419745D01*
X91702076Y-117642681D01*
X91655000Y-117879348D01*
X89225000Y-117879348D01*
X89177924Y-117642681D01*
X89085581Y-117419745D01*
X88951519Y-117219108D01*
X88780892Y-117048481D01*
X88580255Y-116914419D01*
X88357319Y-116822076D01*
X88120652Y-116775000D01*
X87879348Y-116775000D01*
X87642681Y-116822076D01*
X87419745Y-116914419D01*
X87219108Y-117048481D01*
X87048481Y-117219108D01*
X86914419Y-117419745D01*
X86822076Y-117642681D01*
X86775000Y-117879348D01*
X67550000Y-117879348D01*
X67550000Y-105380000D01*
X68668589Y-105380000D01*
X68694172Y-105639745D01*
X68769937Y-105889509D01*
X68892972Y-106119692D01*
X69058550Y-106321450D01*
X69260308Y-106487028D01*
X69490491Y-106610063D01*
X69622146Y-106650000D01*
X69490491Y-106689937D01*
X69260308Y-106812972D01*
X69058550Y-106978550D01*
X68892972Y-107180308D01*
X68769937Y-107410491D01*
X68694172Y-107660255D01*
X68668589Y-107920000D01*
X68694172Y-108179745D01*
X68769937Y-108429509D01*
X68892972Y-108659692D01*
X69058550Y-108861450D01*
X69260308Y-109027028D01*
X69490491Y-109150063D01*
X69622146Y-109190000D01*
X69490491Y-109229937D01*
X69260308Y-109352972D01*
X69058550Y-109518550D01*
X68892972Y-109720308D01*
X68769937Y-109950491D01*
X68694172Y-110200255D01*
X68668589Y-110460000D01*
X68694172Y-110719745D01*
X68769937Y-110969509D01*
X68892972Y-111199692D01*
X69058550Y-111401450D01*
X69260308Y-111567028D01*
X69458011Y-111672702D01*
X69150000Y-111672702D01*
X69056884Y-111681873D01*
X68967346Y-111709034D01*
X68884827Y-111753141D01*
X68812499Y-111812499D01*
X68753141Y-111884827D01*
X68709034Y-111967346D01*
X68681873Y-112056884D01*
X68672702Y-112150000D01*
X68672702Y-113850000D01*
X68681873Y-113943116D01*
X68709034Y-114032654D01*
X68753141Y-114115173D01*
X68812499Y-114187501D01*
X68884827Y-114246859D01*
X68967346Y-114290966D01*
X69056884Y-114318127D01*
X69150000Y-114327298D01*
X70850000Y-114327298D01*
X70943116Y-114318127D01*
X71032654Y-114290966D01*
X71115173Y-114246859D01*
X71187501Y-114187501D01*
X71246859Y-114115173D01*
X71290966Y-114032654D01*
X71318127Y-113943116D01*
X71327298Y-113850000D01*
X71327298Y-112150000D01*
X71318127Y-112056884D01*
X71290966Y-111967346D01*
X71246859Y-111884827D01*
X71187501Y-111812499D01*
X71115173Y-111753141D01*
X71032654Y-111709034D01*
X70943116Y-111681873D01*
X70850000Y-111672702D01*
X70541989Y-111672702D01*
X70739692Y-111567028D01*
X70941450Y-111401450D01*
X71107028Y-111199692D01*
X71181695Y-111060000D01*
X73818305Y-111060000D01*
X73892972Y-111199692D01*
X74058550Y-111401450D01*
X74260308Y-111567028D01*
X74490491Y-111690063D01*
X74740255Y-111765828D01*
X74934909Y-111785000D01*
X75065091Y-111785000D01*
X75259745Y-111765828D01*
X75509509Y-111690063D01*
X75739692Y-111567028D01*
X75941450Y-111401450D01*
X76107028Y-111199692D01*
X76181695Y-111060000D01*
X86910526Y-111060000D01*
X86940000Y-111062903D01*
X86969474Y-111060000D01*
X87057621Y-111051318D01*
X87170721Y-111017010D01*
X87274955Y-110961296D01*
X87366317Y-110886317D01*
X87385113Y-110863414D01*
X88223528Y-110025000D01*
X88281255Y-110025000D01*
X88440644Y-109993296D01*
X88590784Y-109931106D01*
X88725907Y-109840819D01*
X88840819Y-109725907D01*
X88931106Y-109590784D01*
X88993296Y-109440644D01*
X89025000Y-109281255D01*
X89025000Y-109118745D01*
X88993296Y-108959356D01*
X88931106Y-108809216D01*
X88840819Y-108674093D01*
X88766726Y-108600000D01*
X88840819Y-108525907D01*
X88931106Y-108390784D01*
X88993296Y-108240644D01*
X89025000Y-108081255D01*
X89025000Y-107918745D01*
X88993296Y-107759356D01*
X88931106Y-107609216D01*
X88840819Y-107474093D01*
X88725907Y-107359181D01*
X88590784Y-107268894D01*
X88440644Y-107206704D01*
X88281255Y-107175000D01*
X88118745Y-107175000D01*
X87959356Y-107206704D01*
X87809216Y-107268894D01*
X87732731Y-107320000D01*
X76181695Y-107320000D01*
X76107028Y-107180308D01*
X75941450Y-106978550D01*
X75739692Y-106812972D01*
X75509509Y-106689937D01*
X75377854Y-106650000D01*
X75509509Y-106610063D01*
X75739692Y-106487028D01*
X75941450Y-106321450D01*
X75988745Y-106263820D01*
X81962500Y-106263820D01*
X81962500Y-106436180D01*
X81996126Y-106605228D01*
X82062085Y-106764468D01*
X82157843Y-106907780D01*
X82279720Y-107029657D01*
X82423032Y-107125415D01*
X82582272Y-107191374D01*
X82751320Y-107225000D01*
X82923680Y-107225000D01*
X83092728Y-107191374D01*
X83251968Y-107125415D01*
X83327419Y-107075000D01*
X89049696Y-107075000D01*
X91140923Y-109166227D01*
X91158626Y-109255228D01*
X91224585Y-109414468D01*
X91320343Y-109557780D01*
X91442220Y-109679657D01*
X91585532Y-109775415D01*
X91744772Y-109841374D01*
X91833774Y-109859078D01*
X106462172Y-124487477D01*
X106484868Y-124515132D01*
X106512523Y-124537828D01*
X106512525Y-124537830D01*
X106530597Y-124552661D01*
X106595263Y-124605731D01*
X106721212Y-124673053D01*
X106857875Y-124714509D01*
X106964393Y-124725000D01*
X106964402Y-124725000D01*
X106999999Y-124728506D01*
X107035596Y-124725000D01*
X108018629Y-124725000D01*
X107870491Y-124769937D01*
X107640308Y-124892972D01*
X107438550Y-125058550D01*
X107272972Y-125260308D01*
X107149937Y-125490491D01*
X107110000Y-125622146D01*
X107070063Y-125490491D01*
X106947028Y-125260308D01*
X106781450Y-125058550D01*
X106579692Y-124892972D01*
X106349509Y-124769937D01*
X106099745Y-124694172D01*
X105905091Y-124675000D01*
X105774909Y-124675000D01*
X105580255Y-124694172D01*
X105330491Y-124769937D01*
X105100308Y-124892972D01*
X104898550Y-125058550D01*
X104732972Y-125260308D01*
X104609937Y-125490491D01*
X104570000Y-125622146D01*
X104530063Y-125490491D01*
X104407028Y-125260308D01*
X104241450Y-125058550D01*
X104039692Y-124892972D01*
X103809509Y-124769937D01*
X103559745Y-124694172D01*
X103365091Y-124675000D01*
X103234909Y-124675000D01*
X103040255Y-124694172D01*
X102790491Y-124769937D01*
X102560308Y-124892972D01*
X102358550Y-125058550D01*
X102192972Y-125260308D01*
X102069937Y-125490491D01*
X101994172Y-125740255D01*
X101968589Y-126000000D01*
X101994172Y-126259745D01*
X102069937Y-126509509D01*
X102192972Y-126739692D01*
X102358550Y-126941450D01*
X102560308Y-127107028D01*
X102790491Y-127230063D01*
X103040255Y-127305828D01*
X103234909Y-127325000D01*
X103365091Y-127325000D01*
X103559745Y-127305828D01*
X103809509Y-127230063D01*
X104039692Y-127107028D01*
X104241450Y-126941450D01*
X104407028Y-126739692D01*
X104530063Y-126509509D01*
X104570000Y-126377854D01*
X104609937Y-126509509D01*
X104732972Y-126739692D01*
X104898550Y-126941450D01*
X105100308Y-127107028D01*
X105330491Y-127230063D01*
X105580255Y-127305828D01*
X105774909Y-127325000D01*
X105905091Y-127325000D01*
X106099745Y-127305828D01*
X106349509Y-127230063D01*
X106579692Y-127107028D01*
X106781450Y-126941450D01*
X106947028Y-126739692D01*
X107070063Y-126509509D01*
X107110000Y-126377854D01*
X107149937Y-126509509D01*
X107272972Y-126739692D01*
X107438550Y-126941450D01*
X107640308Y-127107028D01*
X107870491Y-127230063D01*
X108120255Y-127305828D01*
X108314909Y-127325000D01*
X108445091Y-127325000D01*
X108639745Y-127305828D01*
X108889509Y-127230063D01*
X109119692Y-127107028D01*
X109321450Y-126941450D01*
X109487028Y-126739692D01*
X109610063Y-126509509D01*
X109650000Y-126377854D01*
X109689937Y-126509509D01*
X109812972Y-126739692D01*
X109978550Y-126941450D01*
X110180308Y-127107028D01*
X110410491Y-127230063D01*
X110660255Y-127305828D01*
X110854909Y-127325000D01*
X110985091Y-127325000D01*
X111179745Y-127305828D01*
X111429509Y-127230063D01*
X111659692Y-127107028D01*
X111861450Y-126941450D01*
X112027028Y-126739692D01*
X112150063Y-126509509D01*
X112190000Y-126377854D01*
X112229937Y-126509509D01*
X112352972Y-126739692D01*
X112518550Y-126941450D01*
X112720308Y-127107028D01*
X112950491Y-127230063D01*
X113200255Y-127305828D01*
X113394909Y-127325000D01*
X113525091Y-127325000D01*
X113719745Y-127305828D01*
X113969509Y-127230063D01*
X114199692Y-127107028D01*
X114401450Y-126941450D01*
X114567028Y-126739692D01*
X114690063Y-126509509D01*
X114765828Y-126259745D01*
X114791411Y-126000000D01*
X114765828Y-125740255D01*
X114690063Y-125490491D01*
X114567028Y-125260308D01*
X114401450Y-125058550D01*
X114199692Y-124892972D01*
X114185000Y-124885119D01*
X114185000Y-124725000D01*
X135384403Y-124725000D01*
X135420000Y-124728506D01*
X135455597Y-124725000D01*
X135455607Y-124725000D01*
X135562125Y-124714509D01*
X135698788Y-124673053D01*
X135824737Y-124605731D01*
X135935132Y-124515132D01*
X135957832Y-124487472D01*
X136905304Y-123540000D01*
X144418493Y-123540000D01*
X144444462Y-123803666D01*
X144521370Y-124057199D01*
X144646263Y-124290857D01*
X144814340Y-124495660D01*
X145019143Y-124663737D01*
X145252801Y-124788630D01*
X145506334Y-124865538D01*
X145703934Y-124885000D01*
X146296066Y-124885000D01*
X146493666Y-124865538D01*
X146747199Y-124788630D01*
X146980857Y-124663737D01*
X147185660Y-124495660D01*
X147353737Y-124290857D01*
X147478630Y-124057199D01*
X147555538Y-123803666D01*
X147581507Y-123540000D01*
X147555538Y-123276334D01*
X147547550Y-123250000D01*
X152772702Y-123250000D01*
X152772702Y-124750000D01*
X152796284Y-124989434D01*
X152866124Y-125219667D01*
X152979539Y-125431850D01*
X153132169Y-125617831D01*
X153318150Y-125770461D01*
X153530333Y-125883876D01*
X153760566Y-125953716D01*
X154000000Y-125977298D01*
X156000000Y-125977298D01*
X156239434Y-125953716D01*
X156469667Y-125883876D01*
X156681850Y-125770461D01*
X156867831Y-125617831D01*
X157020461Y-125431850D01*
X157133876Y-125219667D01*
X157203716Y-124989434D01*
X157227298Y-124750000D01*
X157227298Y-123250000D01*
X157203716Y-123010566D01*
X157133876Y-122780333D01*
X157020461Y-122568150D01*
X156867831Y-122382169D01*
X156681850Y-122229539D01*
X156469667Y-122116124D01*
X156239434Y-122046284D01*
X156000000Y-122022702D01*
X154000000Y-122022702D01*
X153760566Y-122046284D01*
X153530333Y-122116124D01*
X153318150Y-122229539D01*
X153132169Y-122382169D01*
X152979539Y-122568150D01*
X152866124Y-122780333D01*
X152796284Y-123010566D01*
X152772702Y-123250000D01*
X147547550Y-123250000D01*
X147478630Y-123022801D01*
X147353737Y-122789143D01*
X147185660Y-122584340D01*
X146980857Y-122416263D01*
X146747199Y-122291370D01*
X146493666Y-122214462D01*
X146296066Y-122195000D01*
X145703934Y-122195000D01*
X145506334Y-122214462D01*
X145252801Y-122291370D01*
X145019143Y-122416263D01*
X144814340Y-122584340D01*
X144646263Y-122789143D01*
X144521370Y-123022801D01*
X144444462Y-123276334D01*
X144418493Y-123540000D01*
X136905304Y-123540000D01*
X137901751Y-122543554D01*
X137944772Y-122561374D01*
X138113820Y-122595000D01*
X138286180Y-122595000D01*
X138455228Y-122561374D01*
X138614468Y-122495415D01*
X138757780Y-122399657D01*
X138879657Y-122277780D01*
X138975415Y-122134468D01*
X139041374Y-121975228D01*
X139075000Y-121806180D01*
X139075000Y-121633820D01*
X139041374Y-121464772D01*
X138975415Y-121305532D01*
X138879657Y-121162220D01*
X138757780Y-121040343D01*
X138614468Y-120944585D01*
X138455228Y-120878626D01*
X138286180Y-120845000D01*
X138113820Y-120845000D01*
X137944772Y-120878626D01*
X137785532Y-120944585D01*
X137713359Y-120992810D01*
X137700000Y-120991494D01*
X137664403Y-120995000D01*
X137664393Y-120995000D01*
X137557875Y-121005491D01*
X137442983Y-121040343D01*
X137421212Y-121046947D01*
X137295263Y-121114269D01*
X137212525Y-121182170D01*
X137212523Y-121182172D01*
X137184868Y-121204868D01*
X137162172Y-121232523D01*
X135119696Y-123275000D01*
X113495607Y-123275000D01*
X113460000Y-123271493D01*
X113424393Y-123275000D01*
X107300305Y-123275000D01*
X104150305Y-120125000D01*
X157472702Y-120125000D01*
X157472702Y-121875000D01*
X157498686Y-122138820D01*
X157575640Y-122392502D01*
X157700605Y-122626297D01*
X157868781Y-122831219D01*
X158073703Y-122999395D01*
X158307498Y-123124360D01*
X158561180Y-123201314D01*
X158825000Y-123227298D01*
X160575000Y-123227298D01*
X160838820Y-123201314D01*
X161092502Y-123124360D01*
X161326297Y-122999395D01*
X161531219Y-122831219D01*
X161699395Y-122626297D01*
X161824360Y-122392502D01*
X161901314Y-122138820D01*
X161927298Y-121875000D01*
X161927298Y-120125000D01*
X161901314Y-119861180D01*
X161824360Y-119607498D01*
X161699395Y-119373703D01*
X161531219Y-119168781D01*
X161326297Y-119000605D01*
X161092502Y-118875640D01*
X160838820Y-118798686D01*
X160575000Y-118772702D01*
X158825000Y-118772702D01*
X158561180Y-118798686D01*
X158307498Y-118875640D01*
X158073703Y-119000605D01*
X157868781Y-119168781D01*
X157700605Y-119373703D01*
X157575640Y-119607498D01*
X157498686Y-119861180D01*
X157472702Y-120125000D01*
X104150305Y-120125000D01*
X97225305Y-113200000D01*
X142722702Y-113200000D01*
X142722702Y-114800000D01*
X142731873Y-114893116D01*
X142759034Y-114982654D01*
X142803141Y-115065173D01*
X142862499Y-115137501D01*
X142934827Y-115196859D01*
X143017346Y-115240966D01*
X143106884Y-115268127D01*
X143200000Y-115277298D01*
X144800000Y-115277298D01*
X144893116Y-115268127D01*
X144982654Y-115240966D01*
X145065173Y-115196859D01*
X145137501Y-115137501D01*
X145196859Y-115065173D01*
X145240966Y-114982654D01*
X145268127Y-114893116D01*
X145277298Y-114800000D01*
X145277298Y-113200000D01*
X145268127Y-113106884D01*
X145240966Y-113017346D01*
X145196859Y-112934827D01*
X145137501Y-112862499D01*
X145065173Y-112803141D01*
X144982654Y-112759034D01*
X144893116Y-112731873D01*
X144800000Y-112722702D01*
X143200000Y-112722702D01*
X143106884Y-112731873D01*
X143017346Y-112759034D01*
X142934827Y-112803141D01*
X142862499Y-112862499D01*
X142803141Y-112934827D01*
X142759034Y-113017346D01*
X142731873Y-113106884D01*
X142722702Y-113200000D01*
X97225305Y-113200000D01*
X92859078Y-108833774D01*
X92841374Y-108744772D01*
X92775415Y-108585532D01*
X92679657Y-108442220D01*
X92557780Y-108320343D01*
X92414468Y-108224585D01*
X92255228Y-108158626D01*
X92166227Y-108140923D01*
X89887832Y-105862528D01*
X89865132Y-105834868D01*
X89754737Y-105744269D01*
X89628788Y-105676947D01*
X89492125Y-105635491D01*
X89385607Y-105625000D01*
X89385597Y-105625000D01*
X89350000Y-105621494D01*
X89314403Y-105625000D01*
X83327419Y-105625000D01*
X83251968Y-105574585D01*
X83092728Y-105508626D01*
X82923680Y-105475000D01*
X82751320Y-105475000D01*
X82582272Y-105508626D01*
X82423032Y-105574585D01*
X82279720Y-105670343D01*
X82157843Y-105792220D01*
X82062085Y-105935532D01*
X81996126Y-106094772D01*
X81962500Y-106263820D01*
X75988745Y-106263820D01*
X76107028Y-106119692D01*
X76230063Y-105889509D01*
X76305828Y-105639745D01*
X76331411Y-105380000D01*
X76305828Y-105120255D01*
X76230063Y-104870491D01*
X76107028Y-104640308D01*
X75941450Y-104438550D01*
X75739692Y-104272972D01*
X75509509Y-104149937D01*
X75259745Y-104074172D01*
X75065091Y-104055000D01*
X74934909Y-104055000D01*
X74740255Y-104074172D01*
X74490491Y-104149937D01*
X74260308Y-104272972D01*
X74058550Y-104438550D01*
X73892972Y-104640308D01*
X73769937Y-104870491D01*
X73694172Y-105120255D01*
X73668589Y-105380000D01*
X73694172Y-105639745D01*
X73769937Y-105889509D01*
X73892972Y-106119692D01*
X74058550Y-106321450D01*
X74260308Y-106487028D01*
X74490491Y-106610063D01*
X74622146Y-106650000D01*
X74490491Y-106689937D01*
X74260308Y-106812972D01*
X74058550Y-106978550D01*
X73892972Y-107180308D01*
X73818305Y-107320000D01*
X71181695Y-107320000D01*
X71107028Y-107180308D01*
X70941450Y-106978550D01*
X70739692Y-106812972D01*
X70509509Y-106689937D01*
X70377854Y-106650000D01*
X70509509Y-106610063D01*
X70739692Y-106487028D01*
X70941450Y-106321450D01*
X71107028Y-106119692D01*
X71230063Y-105889509D01*
X71305828Y-105639745D01*
X71331411Y-105380000D01*
X71305828Y-105120255D01*
X71230063Y-104870491D01*
X71107028Y-104640308D01*
X70941450Y-104438550D01*
X70739692Y-104272972D01*
X70509509Y-104149937D01*
X70259745Y-104074172D01*
X70065091Y-104055000D01*
X69934909Y-104055000D01*
X69740255Y-104074172D01*
X69490491Y-104149937D01*
X69260308Y-104272972D01*
X69058550Y-104438550D01*
X68892972Y-104640308D01*
X68769937Y-104870491D01*
X68694172Y-105120255D01*
X68668589Y-105380000D01*
X67550000Y-105380000D01*
X67550000Y-100913820D01*
X87125000Y-100913820D01*
X87125000Y-101086180D01*
X87158626Y-101255228D01*
X87224585Y-101414468D01*
X87320343Y-101557780D01*
X87442220Y-101679657D01*
X87585532Y-101775415D01*
X87744772Y-101841374D01*
X87913820Y-101875000D01*
X88086180Y-101875000D01*
X88255228Y-101841374D01*
X88414468Y-101775415D01*
X88557780Y-101679657D01*
X88637437Y-101600000D01*
X100551472Y-101600000D01*
X96976473Y-105175000D01*
X96918745Y-105175000D01*
X96759356Y-105206704D01*
X96609216Y-105268894D01*
X96474093Y-105359181D01*
X96359181Y-105474093D01*
X96268894Y-105609216D01*
X96206704Y-105759356D01*
X96175000Y-105918745D01*
X96175000Y-106081255D01*
X96206704Y-106240644D01*
X96268894Y-106390784D01*
X96275052Y-106400000D01*
X96248528Y-106400000D01*
X95600000Y-105751473D01*
X95600000Y-103566726D01*
X95640819Y-103525907D01*
X95731106Y-103390784D01*
X95793296Y-103240644D01*
X95825000Y-103081255D01*
X95825000Y-102918745D01*
X95793296Y-102759356D01*
X95731106Y-102609216D01*
X95640819Y-102474093D01*
X95525907Y-102359181D01*
X95390784Y-102268894D01*
X95240644Y-102206704D01*
X95081255Y-102175000D01*
X94918745Y-102175000D01*
X94759356Y-102206704D01*
X94609216Y-102268894D01*
X94474093Y-102359181D01*
X94359181Y-102474093D01*
X94268894Y-102609216D01*
X94206704Y-102759356D01*
X94175000Y-102918745D01*
X94175000Y-103081255D01*
X94206704Y-103240644D01*
X94268894Y-103390784D01*
X94359181Y-103525907D01*
X94400001Y-103566727D01*
X94400000Y-105970526D01*
X94397097Y-106000000D01*
X94400000Y-106029473D01*
X94408682Y-106117620D01*
X94442990Y-106230720D01*
X94498704Y-106334954D01*
X94573683Y-106426317D01*
X94596586Y-106445113D01*
X95554891Y-107403419D01*
X95573683Y-107426317D01*
X95665045Y-107501296D01*
X95769277Y-107557009D01*
X95769279Y-107557010D01*
X95882379Y-107591319D01*
X96000000Y-107602903D01*
X96029476Y-107600000D01*
X97970526Y-107600000D01*
X98000000Y-107602903D01*
X98029474Y-107600000D01*
X98117621Y-107591318D01*
X98230721Y-107557010D01*
X98334955Y-107501296D01*
X98426317Y-107426317D01*
X98445113Y-107403414D01*
X99248528Y-106600000D01*
X100433274Y-106600000D01*
X100474093Y-106640819D01*
X100609216Y-106731106D01*
X100759356Y-106793296D01*
X100918745Y-106825000D01*
X101081255Y-106825000D01*
X101240644Y-106793296D01*
X101390784Y-106731106D01*
X101525907Y-106640819D01*
X101640819Y-106525907D01*
X101731106Y-106390784D01*
X101793296Y-106240644D01*
X101825000Y-106081255D01*
X101825000Y-105918745D01*
X101793296Y-105759356D01*
X101731106Y-105609216D01*
X101640819Y-105474093D01*
X101525907Y-105359181D01*
X101390784Y-105268894D01*
X101240644Y-105206704D01*
X101081255Y-105175000D01*
X100918745Y-105175000D01*
X100759356Y-105206704D01*
X100609216Y-105268894D01*
X100474093Y-105359181D01*
X100433274Y-105400000D01*
X99029476Y-105400000D01*
X99000000Y-105397097D01*
X98882379Y-105408681D01*
X98769279Y-105442990D01*
X98665045Y-105498704D01*
X98573683Y-105573683D01*
X98554894Y-105596578D01*
X97751473Y-106400000D01*
X97724948Y-106400000D01*
X97731106Y-106390784D01*
X97793296Y-106240644D01*
X97825000Y-106081255D01*
X97825000Y-106023527D01*
X101248528Y-102600000D01*
X102433274Y-102600000D01*
X102474093Y-102640819D01*
X102609216Y-102731106D01*
X102759356Y-102793296D01*
X102918745Y-102825000D01*
X103081255Y-102825000D01*
X103240644Y-102793296D01*
X103390784Y-102731106D01*
X103525907Y-102640819D01*
X103640819Y-102525907D01*
X103731106Y-102390784D01*
X103793296Y-102240644D01*
X103825000Y-102081255D01*
X103825000Y-101918745D01*
X103793296Y-101759356D01*
X103731106Y-101609216D01*
X103724948Y-101600000D01*
X113751473Y-101600000D01*
X115125000Y-102973528D01*
X115125000Y-103086180D01*
X115158626Y-103255228D01*
X115224585Y-103414468D01*
X115320343Y-103557780D01*
X115442220Y-103679657D01*
X115585532Y-103775415D01*
X115744772Y-103841374D01*
X115913820Y-103875000D01*
X116086180Y-103875000D01*
X116255228Y-103841374D01*
X116414468Y-103775415D01*
X116557780Y-103679657D01*
X116679657Y-103557780D01*
X116775415Y-103414468D01*
X116841374Y-103255228D01*
X116875000Y-103086180D01*
X116875000Y-102913820D01*
X116841374Y-102744772D01*
X116775415Y-102585532D01*
X116679657Y-102442220D01*
X116557780Y-102320343D01*
X116414468Y-102224585D01*
X116255228Y-102158626D01*
X116086180Y-102125000D01*
X115973528Y-102125000D01*
X115693780Y-101845253D01*
X115744772Y-101866374D01*
X115913820Y-101900000D01*
X116086180Y-101900000D01*
X116255228Y-101866374D01*
X116414468Y-101800415D01*
X116557780Y-101704657D01*
X116679657Y-101582780D01*
X116775415Y-101439468D01*
X116841374Y-101280228D01*
X116875000Y-101111180D01*
X116875000Y-100938820D01*
X116841374Y-100769772D01*
X116775415Y-100610532D01*
X116679657Y-100467220D01*
X116557780Y-100345343D01*
X116414468Y-100249585D01*
X116255228Y-100183626D01*
X116086180Y-100150000D01*
X115973529Y-100150000D01*
X114420113Y-98596586D01*
X114401317Y-98573683D01*
X114309955Y-98498704D01*
X114205721Y-98442990D01*
X114092621Y-98408682D01*
X114004474Y-98400000D01*
X113975000Y-98397097D01*
X113945526Y-98400000D01*
X89637437Y-98400000D01*
X89557780Y-98320343D01*
X89414468Y-98224585D01*
X89255228Y-98158626D01*
X89086180Y-98125000D01*
X88913820Y-98125000D01*
X88744772Y-98158626D01*
X88585532Y-98224585D01*
X88442220Y-98320343D01*
X88320343Y-98442220D01*
X88224585Y-98585532D01*
X88158626Y-98744772D01*
X88125000Y-98913820D01*
X88125000Y-99086180D01*
X88158626Y-99255228D01*
X88224585Y-99414468D01*
X88320343Y-99557780D01*
X88442220Y-99679657D01*
X88585532Y-99775415D01*
X88744772Y-99841374D01*
X88913820Y-99875000D01*
X89086180Y-99875000D01*
X89255228Y-99841374D01*
X89414468Y-99775415D01*
X89557780Y-99679657D01*
X89637437Y-99600000D01*
X113726473Y-99600000D01*
X115125000Y-100998529D01*
X115125000Y-101111180D01*
X115158626Y-101280228D01*
X115179748Y-101331220D01*
X114445113Y-100596586D01*
X114426317Y-100573683D01*
X114334955Y-100498704D01*
X114230721Y-100442990D01*
X114117621Y-100408682D01*
X114029474Y-100400000D01*
X114000000Y-100397097D01*
X113970526Y-100400000D01*
X88637437Y-100400000D01*
X88557780Y-100320343D01*
X88414468Y-100224585D01*
X88255228Y-100158626D01*
X88086180Y-100125000D01*
X87913820Y-100125000D01*
X87744772Y-100158626D01*
X87585532Y-100224585D01*
X87442220Y-100320343D01*
X87320343Y-100442220D01*
X87224585Y-100585532D01*
X87158626Y-100744772D01*
X87125000Y-100913820D01*
X67550000Y-100913820D01*
X67550000Y-44566433D01*
X67696971Y-45305309D01*
X68034306Y-46119708D01*
X68524040Y-46852646D01*
X69147354Y-47475960D01*
X69880292Y-47965694D01*
X70694691Y-48303029D01*
X71559251Y-48475000D01*
X72440749Y-48475000D01*
X73305309Y-48303029D01*
X74119708Y-47965694D01*
X74852646Y-47475960D01*
X75475960Y-46852646D01*
X75965694Y-46119708D01*
X76303029Y-45305309D01*
X76475000Y-44440749D01*
X76475000Y-43559251D01*
X76303029Y-42694691D01*
X75965694Y-41880292D01*
X75475960Y-41147354D01*
X74852646Y-40524040D01*
X74119708Y-40034306D01*
X73305309Y-39696971D01*
X72566433Y-39550000D01*
X184433567Y-39550000D01*
X183694691Y-39696971D01*
G36*
X128375001Y-93178077D02*
X128427452Y-93710624D01*
X128634734Y-94393939D01*
X128650346Y-94423147D01*
X128673833Y-94661616D01*
X128866820Y-95297806D01*
X129180213Y-95884122D01*
X129500999Y-96275000D01*
X127275000Y-96275000D01*
X127275000Y-95727298D01*
X127800000Y-95727298D01*
X127893116Y-95718127D01*
X127982654Y-95690966D01*
X128065173Y-95646859D01*
X128137501Y-95587501D01*
X128196859Y-95515173D01*
X128240966Y-95432654D01*
X128268127Y-95343116D01*
X128277298Y-95250000D01*
X128277298Y-90750000D01*
X128268127Y-90656884D01*
X128240966Y-90567346D01*
X128196859Y-90484827D01*
X128137501Y-90412499D01*
X128065173Y-90353141D01*
X127982654Y-90309034D01*
X127893116Y-90281873D01*
X127800000Y-90272702D01*
X125300000Y-90272702D01*
X125206884Y-90281873D01*
X125117346Y-90309034D01*
X125034827Y-90353141D01*
X124962499Y-90412499D01*
X124903141Y-90484827D01*
X124859034Y-90567346D01*
X124831873Y-90656884D01*
X124822702Y-90750000D01*
X124822702Y-95250000D01*
X124831873Y-95343116D01*
X124859034Y-95432654D01*
X124903141Y-95515173D01*
X124962499Y-95587501D01*
X125034827Y-95646859D01*
X125117346Y-95690966D01*
X125206884Y-95718127D01*
X125300000Y-95727298D01*
X125825001Y-95727298D01*
X125825001Y-96275000D01*
X111499002Y-96275000D01*
X111819788Y-95884122D01*
X112133180Y-95297806D01*
X112326167Y-94661616D01*
X112349654Y-94423149D01*
X112365267Y-94393939D01*
X112572549Y-93710624D01*
X112575001Y-93685730D01*
X112575001Y-94092109D01*
X112602131Y-94367564D01*
X112709345Y-94721003D01*
X112883452Y-95046734D01*
X113117761Y-95332240D01*
X113403267Y-95566549D01*
X113728998Y-95740656D01*
X114082437Y-95847870D01*
X114450000Y-95884072D01*
X114817564Y-95847870D01*
X115171003Y-95740656D01*
X115496734Y-95566549D01*
X115782240Y-95332240D01*
X116016549Y-95046734D01*
X116190656Y-94721003D01*
X116297870Y-94367564D01*
X116325000Y-94092109D01*
X116325000Y-91907891D01*
X116297870Y-91632436D01*
X116190656Y-91278997D01*
X116016549Y-90953266D01*
X115782240Y-90667760D01*
X115496733Y-90433451D01*
X115171002Y-90259344D01*
X114817563Y-90152130D01*
X114450000Y-90115928D01*
X114082436Y-90152130D01*
X113728997Y-90259344D01*
X113403266Y-90433451D01*
X113117760Y-90667760D01*
X112883451Y-90953267D01*
X112709344Y-91278998D01*
X112625000Y-91557044D01*
X112625000Y-77125000D01*
X128375000Y-77125000D01*
X128375001Y-93178077D01*
X128375001Y-93178077D01*
G37*
X128375001Y-93178077D02*
X128427452Y-93710624D01*
X128634734Y-94393939D01*
X128650346Y-94423147D01*
X128673833Y-94661616D01*
X128866820Y-95297806D01*
X129180213Y-95884122D01*
X129500999Y-96275000D01*
X127275000Y-96275000D01*
X127275000Y-95727298D01*
X127800000Y-95727298D01*
X127893116Y-95718127D01*
X127982654Y-95690966D01*
X128065173Y-95646859D01*
X128137501Y-95587501D01*
X128196859Y-95515173D01*
X128240966Y-95432654D01*
X128268127Y-95343116D01*
X128277298Y-95250000D01*
X128277298Y-90750000D01*
X128268127Y-90656884D01*
X128240966Y-90567346D01*
X128196859Y-90484827D01*
X128137501Y-90412499D01*
X128065173Y-90353141D01*
X127982654Y-90309034D01*
X127893116Y-90281873D01*
X127800000Y-90272702D01*
X125300000Y-90272702D01*
X125206884Y-90281873D01*
X125117346Y-90309034D01*
X125034827Y-90353141D01*
X124962499Y-90412499D01*
X124903141Y-90484827D01*
X124859034Y-90567346D01*
X124831873Y-90656884D01*
X124822702Y-90750000D01*
X124822702Y-95250000D01*
X124831873Y-95343116D01*
X124859034Y-95432654D01*
X124903141Y-95515173D01*
X124962499Y-95587501D01*
X125034827Y-95646859D01*
X125117346Y-95690966D01*
X125206884Y-95718127D01*
X125300000Y-95727298D01*
X125825001Y-95727298D01*
X125825001Y-96275000D01*
X111499002Y-96275000D01*
X111819788Y-95884122D01*
X112133180Y-95297806D01*
X112326167Y-94661616D01*
X112349654Y-94423149D01*
X112365267Y-94393939D01*
X112572549Y-93710624D01*
X112575001Y-93685730D01*
X112575001Y-94092109D01*
X112602131Y-94367564D01*
X112709345Y-94721003D01*
X112883452Y-95046734D01*
X113117761Y-95332240D01*
X113403267Y-95566549D01*
X113728998Y-95740656D01*
X114082437Y-95847870D01*
X114450000Y-95884072D01*
X114817564Y-95847870D01*
X115171003Y-95740656D01*
X115496734Y-95566549D01*
X115782240Y-95332240D01*
X116016549Y-95046734D01*
X116190656Y-94721003D01*
X116297870Y-94367564D01*
X116325000Y-94092109D01*
X116325000Y-91907891D01*
X116297870Y-91632436D01*
X116190656Y-91278997D01*
X116016549Y-90953266D01*
X115782240Y-90667760D01*
X115496733Y-90433451D01*
X115171002Y-90259344D01*
X114817563Y-90152130D01*
X114450000Y-90115928D01*
X114082436Y-90152130D01*
X113728997Y-90259344D01*
X113403266Y-90433451D01*
X113117760Y-90667760D01*
X112883451Y-90953267D01*
X112709344Y-91278998D01*
X112625000Y-91557044D01*
X112625000Y-77125000D01*
X128375000Y-77125000D01*
X128375001Y-93178077D01*
G36*
X105375001Y-93178077D02*
X105427452Y-93710624D01*
X105634734Y-94393939D01*
X105650346Y-94423147D01*
X105673833Y-94661616D01*
X105866820Y-95297806D01*
X106180213Y-95884122D01*
X106500999Y-96275000D01*
X104275000Y-96275000D01*
X104275000Y-95727298D01*
X104800000Y-95727298D01*
X104893116Y-95718127D01*
X104982654Y-95690966D01*
X105065173Y-95646859D01*
X105137501Y-95587501D01*
X105196859Y-95515173D01*
X105240966Y-95432654D01*
X105268127Y-95343116D01*
X105277298Y-95250000D01*
X105277298Y-90750000D01*
X105268127Y-90656884D01*
X105240966Y-90567346D01*
X105196859Y-90484827D01*
X105137501Y-90412499D01*
X105065173Y-90353141D01*
X104982654Y-90309034D01*
X104893116Y-90281873D01*
X104800000Y-90272702D01*
X102300000Y-90272702D01*
X102206884Y-90281873D01*
X102117346Y-90309034D01*
X102034827Y-90353141D01*
X101962499Y-90412499D01*
X101903141Y-90484827D01*
X101859034Y-90567346D01*
X101831873Y-90656884D01*
X101822702Y-90750000D01*
X101822702Y-95250000D01*
X101831873Y-95343116D01*
X101859034Y-95432654D01*
X101903141Y-95515173D01*
X101962499Y-95587501D01*
X102034827Y-95646859D01*
X102117346Y-95690966D01*
X102206884Y-95718127D01*
X102300000Y-95727298D01*
X102825001Y-95727298D01*
X102825001Y-96275000D01*
X88499002Y-96275000D01*
X88819788Y-95884122D01*
X89133180Y-95297806D01*
X89326167Y-94661616D01*
X89349654Y-94423149D01*
X89365267Y-94393939D01*
X89572549Y-93710624D01*
X89575001Y-93685730D01*
X89575001Y-94092109D01*
X89602131Y-94367564D01*
X89709345Y-94721003D01*
X89883452Y-95046734D01*
X90117761Y-95332240D01*
X90403267Y-95566549D01*
X90728998Y-95740656D01*
X91082437Y-95847870D01*
X91450000Y-95884072D01*
X91817564Y-95847870D01*
X92171003Y-95740656D01*
X92496734Y-95566549D01*
X92782240Y-95332240D01*
X93016549Y-95046734D01*
X93190656Y-94721003D01*
X93297870Y-94367564D01*
X93325000Y-94092109D01*
X93325000Y-91907891D01*
X93297870Y-91632436D01*
X93190656Y-91278997D01*
X93016549Y-90953266D01*
X92782240Y-90667760D01*
X92496733Y-90433451D01*
X92171002Y-90259344D01*
X91817563Y-90152130D01*
X91450000Y-90115928D01*
X91082436Y-90152130D01*
X90728997Y-90259344D01*
X90403266Y-90433451D01*
X90117760Y-90667760D01*
X89883451Y-90953267D01*
X89709344Y-91278998D01*
X89625000Y-91557044D01*
X89625000Y-77125000D01*
X105375000Y-77125000D01*
X105375001Y-93178077D01*
X105375001Y-93178077D01*
G37*
X105375001Y-93178077D02*
X105427452Y-93710624D01*
X105634734Y-94393939D01*
X105650346Y-94423147D01*
X105673833Y-94661616D01*
X105866820Y-95297806D01*
X106180213Y-95884122D01*
X106500999Y-96275000D01*
X104275000Y-96275000D01*
X104275000Y-95727298D01*
X104800000Y-95727298D01*
X104893116Y-95718127D01*
X104982654Y-95690966D01*
X105065173Y-95646859D01*
X105137501Y-95587501D01*
X105196859Y-95515173D01*
X105240966Y-95432654D01*
X105268127Y-95343116D01*
X105277298Y-95250000D01*
X105277298Y-90750000D01*
X105268127Y-90656884D01*
X105240966Y-90567346D01*
X105196859Y-90484827D01*
X105137501Y-90412499D01*
X105065173Y-90353141D01*
X104982654Y-90309034D01*
X104893116Y-90281873D01*
X104800000Y-90272702D01*
X102300000Y-90272702D01*
X102206884Y-90281873D01*
X102117346Y-90309034D01*
X102034827Y-90353141D01*
X101962499Y-90412499D01*
X101903141Y-90484827D01*
X101859034Y-90567346D01*
X101831873Y-90656884D01*
X101822702Y-90750000D01*
X101822702Y-95250000D01*
X101831873Y-95343116D01*
X101859034Y-95432654D01*
X101903141Y-95515173D01*
X101962499Y-95587501D01*
X102034827Y-95646859D01*
X102117346Y-95690966D01*
X102206884Y-95718127D01*
X102300000Y-95727298D01*
X102825001Y-95727298D01*
X102825001Y-96275000D01*
X88499002Y-96275000D01*
X88819788Y-95884122D01*
X89133180Y-95297806D01*
X89326167Y-94661616D01*
X89349654Y-94423149D01*
X89365267Y-94393939D01*
X89572549Y-93710624D01*
X89575001Y-93685730D01*
X89575001Y-94092109D01*
X89602131Y-94367564D01*
X89709345Y-94721003D01*
X89883452Y-95046734D01*
X90117761Y-95332240D01*
X90403267Y-95566549D01*
X90728998Y-95740656D01*
X91082437Y-95847870D01*
X91450000Y-95884072D01*
X91817564Y-95847870D01*
X92171003Y-95740656D01*
X92496734Y-95566549D01*
X92782240Y-95332240D01*
X93016549Y-95046734D01*
X93190656Y-94721003D01*
X93297870Y-94367564D01*
X93325000Y-94092109D01*
X93325000Y-91907891D01*
X93297870Y-91632436D01*
X93190656Y-91278997D01*
X93016549Y-90953266D01*
X92782240Y-90667760D01*
X92496733Y-90433451D01*
X92171002Y-90259344D01*
X91817563Y-90152130D01*
X91450000Y-90115928D01*
X91082436Y-90152130D01*
X90728997Y-90259344D01*
X90403266Y-90433451D01*
X90117760Y-90667760D01*
X89883451Y-90953267D01*
X89709344Y-91278998D01*
X89625000Y-91557044D01*
X89625000Y-77125000D01*
X105375000Y-77125000D01*
X105375001Y-93178077D01*
G36*
X90725001Y-44272702D02*
X90200000Y-44272702D01*
X90106884Y-44281873D01*
X90017346Y-44309034D01*
X89934827Y-44353141D01*
X89862499Y-44412499D01*
X89803141Y-44484827D01*
X89759034Y-44567346D01*
X89731873Y-44656884D01*
X89722702Y-44750000D01*
X89722702Y-49250000D01*
X89731873Y-49343116D01*
X89759034Y-49432654D01*
X89803141Y-49515173D01*
X89862499Y-49587501D01*
X89934827Y-49646859D01*
X90017346Y-49690966D01*
X90106884Y-49718127D01*
X90200000Y-49727298D01*
X92700000Y-49727298D01*
X92793116Y-49718127D01*
X92882654Y-49690966D01*
X92965173Y-49646859D01*
X93037501Y-49587501D01*
X93096859Y-49515173D01*
X93140966Y-49432654D01*
X93168127Y-49343116D01*
X93177298Y-49250000D01*
X93177298Y-44750000D01*
X93168127Y-44656884D01*
X93140966Y-44567346D01*
X93096859Y-44484827D01*
X93037501Y-44412499D01*
X92965173Y-44353141D01*
X92882654Y-44309034D01*
X92793116Y-44281873D01*
X92700000Y-44272702D01*
X92175000Y-44272702D01*
X92175000Y-42725000D01*
X108169711Y-42725000D01*
X107702195Y-42866820D01*
X107115879Y-43180212D01*
X106601969Y-43601968D01*
X106180213Y-44115878D01*
X105866820Y-44702194D01*
X105673833Y-45338384D01*
X105650346Y-45576852D01*
X105634733Y-45606062D01*
X105427451Y-46289377D01*
X105425000Y-46314263D01*
X105425000Y-45907891D01*
X105397870Y-45632436D01*
X105290656Y-45278997D01*
X105116549Y-44953266D01*
X104882240Y-44667760D01*
X104596734Y-44433451D01*
X104271003Y-44259344D01*
X103917564Y-44152130D01*
X103550000Y-44115928D01*
X103182437Y-44152130D01*
X102828998Y-44259344D01*
X102503267Y-44433451D01*
X102217761Y-44667760D01*
X101983452Y-44953266D01*
X101809345Y-45278997D01*
X101702131Y-45632436D01*
X101675001Y-45907891D01*
X101675000Y-48092108D01*
X101702130Y-48367563D01*
X101809344Y-48721002D01*
X101983451Y-49046733D01*
X102217760Y-49332240D01*
X102503266Y-49566549D01*
X102828997Y-49740656D01*
X103182436Y-49847870D01*
X103550000Y-49884072D01*
X103917563Y-49847870D01*
X104271002Y-49740656D01*
X104596733Y-49566549D01*
X104882240Y-49332240D01*
X105116549Y-49046734D01*
X105290656Y-48721003D01*
X105375000Y-48442956D01*
X105375001Y-61875000D01*
X89625000Y-61875000D01*
X89625000Y-46821923D01*
X89572549Y-46289376D01*
X89365267Y-45606061D01*
X89349654Y-45576851D01*
X89326167Y-45338384D01*
X89133180Y-44702194D01*
X88819788Y-44115878D01*
X88398032Y-43601968D01*
X87884122Y-43180212D01*
X87297806Y-42866820D01*
X86830290Y-42725000D01*
X90725001Y-42725000D01*
X90725001Y-44272702D01*
X90725001Y-44272702D01*
G37*
X90725001Y-44272702D02*
X90200000Y-44272702D01*
X90106884Y-44281873D01*
X90017346Y-44309034D01*
X89934827Y-44353141D01*
X89862499Y-44412499D01*
X89803141Y-44484827D01*
X89759034Y-44567346D01*
X89731873Y-44656884D01*
X89722702Y-44750000D01*
X89722702Y-49250000D01*
X89731873Y-49343116D01*
X89759034Y-49432654D01*
X89803141Y-49515173D01*
X89862499Y-49587501D01*
X89934827Y-49646859D01*
X90017346Y-49690966D01*
X90106884Y-49718127D01*
X90200000Y-49727298D01*
X92700000Y-49727298D01*
X92793116Y-49718127D01*
X92882654Y-49690966D01*
X92965173Y-49646859D01*
X93037501Y-49587501D01*
X93096859Y-49515173D01*
X93140966Y-49432654D01*
X93168127Y-49343116D01*
X93177298Y-49250000D01*
X93177298Y-44750000D01*
X93168127Y-44656884D01*
X93140966Y-44567346D01*
X93096859Y-44484827D01*
X93037501Y-44412499D01*
X92965173Y-44353141D01*
X92882654Y-44309034D01*
X92793116Y-44281873D01*
X92700000Y-44272702D01*
X92175000Y-44272702D01*
X92175000Y-42725000D01*
X108169711Y-42725000D01*
X107702195Y-42866820D01*
X107115879Y-43180212D01*
X106601969Y-43601968D01*
X106180213Y-44115878D01*
X105866820Y-44702194D01*
X105673833Y-45338384D01*
X105650346Y-45576852D01*
X105634733Y-45606062D01*
X105427451Y-46289377D01*
X105425000Y-46314263D01*
X105425000Y-45907891D01*
X105397870Y-45632436D01*
X105290656Y-45278997D01*
X105116549Y-44953266D01*
X104882240Y-44667760D01*
X104596734Y-44433451D01*
X104271003Y-44259344D01*
X103917564Y-44152130D01*
X103550000Y-44115928D01*
X103182437Y-44152130D01*
X102828998Y-44259344D01*
X102503267Y-44433451D01*
X102217761Y-44667760D01*
X101983452Y-44953266D01*
X101809345Y-45278997D01*
X101702131Y-45632436D01*
X101675001Y-45907891D01*
X101675000Y-48092108D01*
X101702130Y-48367563D01*
X101809344Y-48721002D01*
X101983451Y-49046733D01*
X102217760Y-49332240D01*
X102503266Y-49566549D01*
X102828997Y-49740656D01*
X103182436Y-49847870D01*
X103550000Y-49884072D01*
X103917563Y-49847870D01*
X104271002Y-49740656D01*
X104596733Y-49566549D01*
X104882240Y-49332240D01*
X105116549Y-49046734D01*
X105290656Y-48721003D01*
X105375000Y-48442956D01*
X105375001Y-61875000D01*
X89625000Y-61875000D01*
X89625000Y-46821923D01*
X89572549Y-46289376D01*
X89365267Y-45606061D01*
X89349654Y-45576851D01*
X89326167Y-45338384D01*
X89133180Y-44702194D01*
X88819788Y-44115878D01*
X88398032Y-43601968D01*
X87884122Y-43180212D01*
X87297806Y-42866820D01*
X86830290Y-42725000D01*
X90725001Y-42725000D01*
X90725001Y-44272702D01*
G36*
X136725001Y-44272702D02*
X136200000Y-44272702D01*
X136106884Y-44281873D01*
X136017346Y-44309034D01*
X135934827Y-44353141D01*
X135862499Y-44412499D01*
X135803141Y-44484827D01*
X135759034Y-44567346D01*
X135731873Y-44656884D01*
X135722702Y-44750000D01*
X135722702Y-49250000D01*
X135731873Y-49343116D01*
X135759034Y-49432654D01*
X135803141Y-49515173D01*
X135862499Y-49587501D01*
X135934827Y-49646859D01*
X136017346Y-49690966D01*
X136106884Y-49718127D01*
X136200000Y-49727298D01*
X138700000Y-49727298D01*
X138793116Y-49718127D01*
X138882654Y-49690966D01*
X138965173Y-49646859D01*
X139037501Y-49587501D01*
X139096859Y-49515173D01*
X139140966Y-49432654D01*
X139168127Y-49343116D01*
X139177298Y-49250000D01*
X139177298Y-44750000D01*
X139168127Y-44656884D01*
X139140966Y-44567346D01*
X139096859Y-44484827D01*
X139037501Y-44412499D01*
X138965173Y-44353141D01*
X138882654Y-44309034D01*
X138793116Y-44281873D01*
X138700000Y-44272702D01*
X138175000Y-44272702D01*
X138175000Y-42725000D01*
X154169711Y-42725000D01*
X153702195Y-42866820D01*
X153115879Y-43180212D01*
X152601969Y-43601968D01*
X152180213Y-44115878D01*
X151866820Y-44702194D01*
X151673833Y-45338384D01*
X151650346Y-45576852D01*
X151634733Y-45606062D01*
X151427451Y-46289377D01*
X151425000Y-46314263D01*
X151425000Y-45907891D01*
X151397870Y-45632436D01*
X151290656Y-45278997D01*
X151116549Y-44953266D01*
X150882240Y-44667760D01*
X150596734Y-44433451D01*
X150271003Y-44259344D01*
X149917564Y-44152130D01*
X149550000Y-44115928D01*
X149182437Y-44152130D01*
X148828998Y-44259344D01*
X148503267Y-44433451D01*
X148217761Y-44667760D01*
X147983452Y-44953266D01*
X147809345Y-45278997D01*
X147702131Y-45632436D01*
X147675001Y-45907891D01*
X147675000Y-48092108D01*
X147702130Y-48367563D01*
X147809344Y-48721002D01*
X147983451Y-49046733D01*
X148217760Y-49332240D01*
X148503266Y-49566549D01*
X148828997Y-49740656D01*
X149182436Y-49847870D01*
X149550000Y-49884072D01*
X149917563Y-49847870D01*
X150271002Y-49740656D01*
X150596733Y-49566549D01*
X150882240Y-49332240D01*
X151116549Y-49046734D01*
X151290656Y-48721003D01*
X151375000Y-48442956D01*
X151375001Y-61875000D01*
X135625000Y-61875000D01*
X135625000Y-46821923D01*
X135572549Y-46289376D01*
X135365267Y-45606061D01*
X135349654Y-45576851D01*
X135326167Y-45338384D01*
X135133180Y-44702194D01*
X134819788Y-44115878D01*
X134398032Y-43601968D01*
X133884122Y-43180212D01*
X133297806Y-42866820D01*
X132830290Y-42725000D01*
X136725001Y-42725000D01*
X136725001Y-44272702D01*
X136725001Y-44272702D01*
G37*
X136725001Y-44272702D02*
X136200000Y-44272702D01*
X136106884Y-44281873D01*
X136017346Y-44309034D01*
X135934827Y-44353141D01*
X135862499Y-44412499D01*
X135803141Y-44484827D01*
X135759034Y-44567346D01*
X135731873Y-44656884D01*
X135722702Y-44750000D01*
X135722702Y-49250000D01*
X135731873Y-49343116D01*
X135759034Y-49432654D01*
X135803141Y-49515173D01*
X135862499Y-49587501D01*
X135934827Y-49646859D01*
X136017346Y-49690966D01*
X136106884Y-49718127D01*
X136200000Y-49727298D01*
X138700000Y-49727298D01*
X138793116Y-49718127D01*
X138882654Y-49690966D01*
X138965173Y-49646859D01*
X139037501Y-49587501D01*
X139096859Y-49515173D01*
X139140966Y-49432654D01*
X139168127Y-49343116D01*
X139177298Y-49250000D01*
X139177298Y-44750000D01*
X139168127Y-44656884D01*
X139140966Y-44567346D01*
X139096859Y-44484827D01*
X139037501Y-44412499D01*
X138965173Y-44353141D01*
X138882654Y-44309034D01*
X138793116Y-44281873D01*
X138700000Y-44272702D01*
X138175000Y-44272702D01*
X138175000Y-42725000D01*
X154169711Y-42725000D01*
X153702195Y-42866820D01*
X153115879Y-43180212D01*
X152601969Y-43601968D01*
X152180213Y-44115878D01*
X151866820Y-44702194D01*
X151673833Y-45338384D01*
X151650346Y-45576852D01*
X151634733Y-45606062D01*
X151427451Y-46289377D01*
X151425000Y-46314263D01*
X151425000Y-45907891D01*
X151397870Y-45632436D01*
X151290656Y-45278997D01*
X151116549Y-44953266D01*
X150882240Y-44667760D01*
X150596734Y-44433451D01*
X150271003Y-44259344D01*
X149917564Y-44152130D01*
X149550000Y-44115928D01*
X149182437Y-44152130D01*
X148828998Y-44259344D01*
X148503267Y-44433451D01*
X148217761Y-44667760D01*
X147983452Y-44953266D01*
X147809345Y-45278997D01*
X147702131Y-45632436D01*
X147675001Y-45907891D01*
X147675000Y-48092108D01*
X147702130Y-48367563D01*
X147809344Y-48721002D01*
X147983451Y-49046733D01*
X148217760Y-49332240D01*
X148503266Y-49566549D01*
X148828997Y-49740656D01*
X149182436Y-49847870D01*
X149550000Y-49884072D01*
X149917563Y-49847870D01*
X150271002Y-49740656D01*
X150596733Y-49566549D01*
X150882240Y-49332240D01*
X151116549Y-49046734D01*
X151290656Y-48721003D01*
X151375000Y-48442956D01*
X151375001Y-61875000D01*
X135625000Y-61875000D01*
X135625000Y-46821923D01*
X135572549Y-46289376D01*
X135365267Y-45606061D01*
X135349654Y-45576851D01*
X135326167Y-45338384D01*
X135133180Y-44702194D01*
X134819788Y-44115878D01*
X134398032Y-43601968D01*
X133884122Y-43180212D01*
X133297806Y-42866820D01*
X132830290Y-42725000D01*
X136725001Y-42725000D01*
X136725001Y-44272702D01*
G36*
X113725001Y-44272702D02*
X113200000Y-44272702D01*
X113106884Y-44281873D01*
X113017346Y-44309034D01*
X112934827Y-44353141D01*
X112862499Y-44412499D01*
X112803141Y-44484827D01*
X112759034Y-44567346D01*
X112731873Y-44656884D01*
X112722702Y-44750000D01*
X112722702Y-49250000D01*
X112731873Y-49343116D01*
X112759034Y-49432654D01*
X112803141Y-49515173D01*
X112862499Y-49587501D01*
X112934827Y-49646859D01*
X113017346Y-49690966D01*
X113106884Y-49718127D01*
X113200000Y-49727298D01*
X115700000Y-49727298D01*
X115793116Y-49718127D01*
X115882654Y-49690966D01*
X115965173Y-49646859D01*
X116037501Y-49587501D01*
X116096859Y-49515173D01*
X116140966Y-49432654D01*
X116168127Y-49343116D01*
X116177298Y-49250000D01*
X116177298Y-44750000D01*
X116168127Y-44656884D01*
X116140966Y-44567346D01*
X116096859Y-44484827D01*
X116037501Y-44412499D01*
X115965173Y-44353141D01*
X115882654Y-44309034D01*
X115793116Y-44281873D01*
X115700000Y-44272702D01*
X115175000Y-44272702D01*
X115175000Y-42725000D01*
X131169711Y-42725000D01*
X130702195Y-42866820D01*
X130115879Y-43180212D01*
X129601969Y-43601968D01*
X129180213Y-44115878D01*
X128866820Y-44702194D01*
X128673833Y-45338384D01*
X128650346Y-45576852D01*
X128634733Y-45606062D01*
X128427451Y-46289377D01*
X128425000Y-46314263D01*
X128425000Y-45907891D01*
X128397870Y-45632436D01*
X128290656Y-45278997D01*
X128116549Y-44953266D01*
X127882240Y-44667760D01*
X127596734Y-44433451D01*
X127271003Y-44259344D01*
X126917564Y-44152130D01*
X126550000Y-44115928D01*
X126182437Y-44152130D01*
X125828998Y-44259344D01*
X125503267Y-44433451D01*
X125217761Y-44667760D01*
X124983452Y-44953266D01*
X124809345Y-45278997D01*
X124702131Y-45632436D01*
X124675001Y-45907891D01*
X124675000Y-48092108D01*
X124702130Y-48367563D01*
X124809344Y-48721002D01*
X124983451Y-49046733D01*
X125217760Y-49332240D01*
X125503266Y-49566549D01*
X125828997Y-49740656D01*
X126182436Y-49847870D01*
X126550000Y-49884072D01*
X126917563Y-49847870D01*
X127271002Y-49740656D01*
X127596733Y-49566549D01*
X127882240Y-49332240D01*
X128116549Y-49046734D01*
X128290656Y-48721003D01*
X128375000Y-48442956D01*
X128375001Y-61875000D01*
X112625000Y-61875000D01*
X112625000Y-46821923D01*
X112572549Y-46289376D01*
X112365267Y-45606061D01*
X112349654Y-45576851D01*
X112326167Y-45338384D01*
X112133180Y-44702194D01*
X111819788Y-44115878D01*
X111398032Y-43601968D01*
X110884122Y-43180212D01*
X110297806Y-42866820D01*
X109830290Y-42725000D01*
X113725001Y-42725000D01*
X113725001Y-44272702D01*
X113725001Y-44272702D01*
G37*
X113725001Y-44272702D02*
X113200000Y-44272702D01*
X113106884Y-44281873D01*
X113017346Y-44309034D01*
X112934827Y-44353141D01*
X112862499Y-44412499D01*
X112803141Y-44484827D01*
X112759034Y-44567346D01*
X112731873Y-44656884D01*
X112722702Y-44750000D01*
X112722702Y-49250000D01*
X112731873Y-49343116D01*
X112759034Y-49432654D01*
X112803141Y-49515173D01*
X112862499Y-49587501D01*
X112934827Y-49646859D01*
X113017346Y-49690966D01*
X113106884Y-49718127D01*
X113200000Y-49727298D01*
X115700000Y-49727298D01*
X115793116Y-49718127D01*
X115882654Y-49690966D01*
X115965173Y-49646859D01*
X116037501Y-49587501D01*
X116096859Y-49515173D01*
X116140966Y-49432654D01*
X116168127Y-49343116D01*
X116177298Y-49250000D01*
X116177298Y-44750000D01*
X116168127Y-44656884D01*
X116140966Y-44567346D01*
X116096859Y-44484827D01*
X116037501Y-44412499D01*
X115965173Y-44353141D01*
X115882654Y-44309034D01*
X115793116Y-44281873D01*
X115700000Y-44272702D01*
X115175000Y-44272702D01*
X115175000Y-42725000D01*
X131169711Y-42725000D01*
X130702195Y-42866820D01*
X130115879Y-43180212D01*
X129601969Y-43601968D01*
X129180213Y-44115878D01*
X128866820Y-44702194D01*
X128673833Y-45338384D01*
X128650346Y-45576852D01*
X128634733Y-45606062D01*
X128427451Y-46289377D01*
X128425000Y-46314263D01*
X128425000Y-45907891D01*
X128397870Y-45632436D01*
X128290656Y-45278997D01*
X128116549Y-44953266D01*
X127882240Y-44667760D01*
X127596734Y-44433451D01*
X127271003Y-44259344D01*
X126917564Y-44152130D01*
X126550000Y-44115928D01*
X126182437Y-44152130D01*
X125828998Y-44259344D01*
X125503267Y-44433451D01*
X125217761Y-44667760D01*
X124983452Y-44953266D01*
X124809345Y-45278997D01*
X124702131Y-45632436D01*
X124675001Y-45907891D01*
X124675000Y-48092108D01*
X124702130Y-48367563D01*
X124809344Y-48721002D01*
X124983451Y-49046733D01*
X125217760Y-49332240D01*
X125503266Y-49566549D01*
X125828997Y-49740656D01*
X126182436Y-49847870D01*
X126550000Y-49884072D01*
X126917563Y-49847870D01*
X127271002Y-49740656D01*
X127596733Y-49566549D01*
X127882240Y-49332240D01*
X128116549Y-49046734D01*
X128290656Y-48721003D01*
X128375000Y-48442956D01*
X128375001Y-61875000D01*
X112625000Y-61875000D01*
X112625000Y-46821923D01*
X112572549Y-46289376D01*
X112365267Y-45606061D01*
X112349654Y-45576851D01*
X112326167Y-45338384D01*
X112133180Y-44702194D01*
X111819788Y-44115878D01*
X111398032Y-43601968D01*
X110884122Y-43180212D01*
X110297806Y-42866820D01*
X109830290Y-42725000D01*
X113725001Y-42725000D01*
X113725001Y-44272702D01*
G04 #@! TO.N,Net-(J2-Pad1)*
G36*
X189800001Y-67800000D02*
X170125000Y-67800000D01*
X170125000Y-50125000D01*
X189800000Y-50125000D01*
X189800001Y-67800000D01*
X189800001Y-67800000D01*
G37*
X189800001Y-67800000D02*
X170125000Y-67800000D01*
X170125000Y-50125000D01*
X189800000Y-50125000D01*
X189800001Y-67800000D01*
G04 #@! TD*
M02*
